<?xml version="1.0" encoding="UTF-8"?><svg id="Layer_2" xmlns="http://www.w3.org/2000/svg" viewBox="0 0 102.53 68"><defs><style>.cls-1{fill:#103828;}</style></defs><g id="Layer_1-2"><path class="cls-1" d="M36.69,43.56h5.22c.43,0,.79-.35.79-.79v-7.41c0-.43-.35-.78-.79-.78h-5.22c-.43,0-.79.35-.79.78v7.41c0,.43.35.79.79.79M37.48,39.85h3.65v2.13h-3.65v-2.13ZM41.13,38.28h-3.65v-2.13h3.65v2.13Z"/><path class="cls-1" d="M48.65,43.56h5.22c.43,0,.79-.35.79-.79v-7.41c0-.43-.35-.78-.79-.78h-5.22c-.43,0-.79.35-.79.78v7.41c0,.43.35.79.79.79M49.44,39.85h3.65v2.13h-3.65v-2.13ZM53.09,38.28h-3.65v-2.13h3.65v2.13Z"/><path class="cls-1" d="M60.67,43.56h5.22c.43,0,.79-.35.79-.79v-7.41c0-.43-.35-.78-.79-.78h-5.22c-.43,0-.79.35-.79.78v7.41c0,.43.35.79.79.79M61.45,39.85h3.65v2.13h-3.65v-2.13ZM65.11,38.28h-3.65v-2.13h3.65v2.13Z"/><path class="cls-1" d="M36.69,56.7h5.22c.43,0,.79-.35.79-.79v-7.41c0-.43-.35-.79-.79-.79h-5.22c-.43,0-.79.35-.79.79v7.41c0,.43.35.79.79.79M37.48,52.99h3.65v2.13h-3.65v-2.13ZM41.13,51.42h-3.65v-2.13h3.65v2.13Z"/><path class="cls-1" d="M60.67,56.7h5.22c.43,0,.79-.35.79-.79v-7.41c0-.43-.35-.79-.79-.79h-5.22c-.43,0-.79.35-.79.79v7.41c0,.43.35.79.79.79M61.45,52.99h3.65v2.13h-3.65v-2.13ZM65.11,51.42h-3.65v-2.13h3.65v2.13Z"/><path class="cls-1" d="M73.11,35.36v7.41c0,.43.35.79.79.79h5.22c.43,0,.79-.35.79-.79v-7.41c0-.43-.35-.78-.79-.78h-5.22c-.43,0-.79.35-.79.78M74.68,39.85h3.65v2.13h-3.65v-2.13ZM78.33,38.28h-3.65v-2.13h3.65v2.13Z"/><path class="cls-1" d="M83.18,43.56h5.22c.43,0,.79-.35.79-.79v-7.41c0-.43-.35-.78-.79-.78h-5.22c-.43,0-.79.35-.79.78v7.41c0,.43.35.79.79.79M83.96,39.85h3.65v2.13h-3.65v-2.13ZM87.61,38.28h-3.65v-2.13h3.65v2.13Z"/><path class="cls-1" d="M79.11,47.58h-5.22c-.43,0-.79.35-.79.79v7.41c0,.44.35.79.79.79h5.22c.43,0,.79-.35.79-.79v-7.41c0-.43-.35-.79-.79-.79M78.33,51.29h-3.65v-2.13h3.65v2.13ZM74.68,52.86h3.65v2.13h-3.65v-2.13Z"/><path class="cls-1" d="M83.18,56.56h5.22c.43,0,.79-.35.79-.79v-7.41c0-.43-.35-.79-.79-.79h-5.22c-.43,0-.79.35-.79.79v7.41c0,.44.35.79.79.79M83.96,52.86h3.65v2.13h-3.65v-2.13ZM87.61,51.29h-3.65v-2.13h3.65v2.13Z"/><path class="cls-1" d="M23.41,43.56h5.22c.43,0,.79-.35.79-.79v-7.41c0-.43-.35-.78-.79-.78h-5.22c-.43,0-.79.35-.79.78v7.41c0,.43.35.79.79.79M24.2,39.85h3.65v2.13h-3.65v-2.13ZM27.85,38.28h-3.65v-2.13h3.65v2.13Z"/><path class="cls-1" d="M14.13,43.56h5.22c.43,0,.79-.35.79-.79v-7.41c0-.43-.35-.78-.79-.78h-5.22c-.43,0-.79.35-.79.78v7.41c0,.43.35.79.79.79M14.92,39.85h3.65v2.13h-3.65v-2.13ZM18.57,38.28h-3.65v-2.13h3.65v2.13Z"/><path class="cls-1" d="M23.41,56.56h5.22c.43,0,.79-.35.79-.79v-7.41c0-.43-.35-.79-.79-.79h-5.22c-.43,0-.79.35-.79.79v7.41c0,.44.35.79.79.79M24.2,52.86h3.65v2.13h-3.65v-2.13ZM27.85,51.29h-3.65v-2.13h3.65v2.13Z"/><path class="cls-1" d="M14.13,56.56h5.22c.43,0,.79-.35.79-.79v-7.41c0-.43-.35-.79-.79-.79h-5.22c-.43,0-.79.35-.79.79v7.41c0,.44.35.79.79.79M14.92,52.86h3.65v2.13h-3.65v-2.13ZM18.57,51.29h-3.65v-2.13h3.65v2.13Z"/><path class="cls-1" d="M51.26,27.09c2.66,0,4.83-2.17,4.83-4.83s-2.17-4.83-4.83-4.83-4.83,2.17-4.83,4.83,2.17,4.83,4.83,4.83M51.26,19c1.8,0,3.26,1.46,3.26,3.26s-1.46,3.26-3.26,3.26-3.26-1.46-3.26-3.26,1.46-3.26,3.26-3.26"/><path class="cls-1" d="M101.74,66.42h-1.87v-2.62c0-.43-.35-.78-.79-.78h-2.47v-2.62c0-.43-.35-.79-.79-.79h-2.74v-27.7h2.75c.28,0,.55-.15.68-.4.14-.25.13-.55-.01-.79l-5.78-9.52c-.14-.23-.4-.38-.67-.38h-24.37l-13.64-11.29v-3.49h6.23c.43,0,.79-.35.79-.79V.79c0-.43-.35-.79-.79-.79h-7.02c-.43,0-.79.35-.79.79v8.73l-13.67,11.32c-.06-.02-.13-.02-.2-.02H12.46c-.27,0-.53.14-.67.38l-5.78,9.52c-.15.24-.15.54-.01.79.14.25.4.4.68.4h2.75v27.7h-2.74c-.43,0-.79.35-.79.79v2.62h-2.47c-.43,0-.79.35-.79.78v2.62H.79c-.43,0-.79.35-.79.79s.35.79.79.79h100.96c.43,0,.79-.35.79-.79s-.35-.79-.79-.79M52.05,1.57h5.45v2.88h-5.45V1.57ZM51.26,10.91l23.46,19.42H27.8l23.46-19.42ZM55.42,59.6h-3.37v-10.33h3.37v10.33ZM50.48,59.6h-3.37v-10.33h3.37v10.33ZM38.79,31.9h30.35v27.7h-12.15v-11.12c0-.44-.35-.79-.79-.79h-9.88c-.43,0-.79.35-.79.79v11.12h-12.15v-27.7h5.41ZM91.52,59.6h-20.81v-27.7h20.81v27.7ZM89.62,22.38l4.83,7.94h-17.26l-9.6-7.94h22.03ZM12.91,22.38h22.03l-9.6,7.94H8.08l4.83-7.94ZM25.62,31.9h6.19v27.7H11v-27.7h14.62ZM7.48,61.17h87.57v1.84H7.48v-1.84ZM4.22,64.58h94.08v1.84H4.22v-1.84Z"/></g></svg>