<?xml version="1.0" encoding="UTF-8"?><svg id="Layer_2" xmlns="http://www.w3.org/2000/svg" viewBox="0 0 686.29 150.85"><defs><style>.cls-1{fill:#4ed858;}.cls-2{fill:#111b22;}</style></defs><g id="Layer_1-2"><path class="cls-2" d="M76.07,0H7.11C3.18,0,0,3.18,0,7.11v44.79c0,7.85,6.37,14.22,14.22,14.22h2.85v4.27h-2.85c-7.85,0-14.22,6.36-14.22,14.22v55.45c0,3.92,3.18,7.11,7.11,7.11h68.95c3.93,0,7.11-3.18,7.11-7.11v-55.45c0-7.85-6.37-14.22-14.22-14.22h-2.84v-4.27h2.84c7.85,0,14.22-6.36,14.22-14.22V7.11c0-3.93-3.18-7.11-7.11-7.11M46.92,119.43h-10.66v-44.79h10.66v44.79ZM46.92,61.85h-10.66V27.73h10.66v34.12ZM140.76,106.64h-29.86v-4.27h4.15c6.84,0,12.52-5.3,13-12.12L134.36,0h-36.26l-7.29,104.22c-.57,8.22,5.94,15.21,14.18,15.21h35.76v27.72h36.26V0h-36.26v106.64ZM272.98,27.73V0h-83.17v57.58l46.92-6.59v68.44h-10.66v-55.45h-36.26v76.07c0,3.92,3.18,7.11,7.11,7.11h68.96c3.93,0,7.11-3.18,7.11-7.11V49.46c0-8.64-7.64-15.28-16.2-14.08l-30.72,4.32v-11.97h46.92Z"/><path class="cls-2" d="M479.89,66.11c7.85,0,14.22-6.36,14.22-14.22V0h-36.25v61.85h-10.66V0h-36.26v51.9c0,7.85,6.37,14.22,14.22,14.22h4.97v4.26h-4.97c-7.85,0-14.22,6.37-14.22,14.22v62.56h36.26v-72.51h10.66v72.51h36.25v-62.56c0-7.85-6.36-14.22-14.22-14.22h-4.97v-4.26h4.97Z"/><path class="cls-2" d="M398.38,55.45V0h-76.07c-3.93,0-7.11,3.18-7.11,7.11v44.79c0,7.85,6.36,14.22,14.22,14.22h4.98v4.26h-4.98c-7.85,0-14.22,6.36-14.22,14.22v55.45c0,3.93,3.18,7.11,7.11,7.11h76.07v-66.11h-36.26v38.39h-10.66v-37.68c0-3.93,3.18-7.11,7.11-7.11h12.08v-12.8h-12.08c-3.92,0-7.11-3.18-7.11-7.11v-27.02h10.66v27.73h36.26Z"/><path class="cls-2" d="M679.18,0h-68.96c-3.93,0-7.11,3.18-7.11,7.11v132.94c0,3.93,3.18,7.11,7.11,7.11h68.96c3.92,0,7.11-3.18,7.11-7.11V7.11C686.29,3.18,683.11,0,679.18,0M650.03,119.43h-10.66V27.73h10.66v91.71Z"/><path class="cls-2" d="M583.45,0h-76.07v147.16h36.26v-27.72h39.81c3.92,0,7.11-3.18,7.11-7.11V7.11c0-3.92-3.18-7.11-7.11-7.11M543.64,106.64v-60.43c0-7.85-6.37-14.22-14.22-14.22h-3.32v-4.27h28.2v78.91h-10.66Z"/><path class="cls-1" d="M306.39,128.74c0,12.21-9.9,22.11-22.11,22.11s-22.1-9.9-22.1-22.11,9.9-22.11,22.1-22.11,22.11,9.9,22.11,22.11"/></g></svg>