<?xml version="1.0" encoding="UTF-8"?><svg id="Layer_2" xmlns="http://www.w3.org/2000/svg" viewBox="0 0 459.33 514.71"><defs><style>.cls-1{fill:#103828;}.cls-2{opacity:.25;}</style></defs><g id="Layer_1-2"><g class="cls-2"><path class="cls-1" d="M410.98,114.97h-166.58c-15.97,0-28.97-12.99-28.97-28.97s12.99-28.97,28.97-28.97h166.58v57.94ZM244.4,58.57c-15.12,0-27.43,12.3-27.43,27.43s12.3,27.43,27.43,27.43h165.04v-54.85h-165.04Z"/><path class="cls-1" d="M245.2,87.56c0,1.33.06,2.5.18,3.51.12,1.02.3,1.86.54,2.55.24.69.53,1.21.89,1.55.36.35.77.53,1.23.53.82,0,1.47-.55,1.95-1.65.48-1.1.76-2.72.86-4.86h3.17c-.08,1.61-.27,3.01-.57,4.19-.29,1.18-.69,2.16-1.19,2.93-.5.77-1.09,1.34-1.78,1.72-.69.38-1.48.56-2.36.56-1.05,0-1.96-.23-2.75-.7-.79-.47-1.45-1.16-1.99-2.09-.53-.93-.93-2.08-1.2-3.45-.27-1.38-.4-2.97-.4-4.79,0-3.64.53-6.39,1.6-8.24,1.07-1.86,2.65-2.79,4.74-2.79.88,0,1.67.19,2.36.56.69.38,1.28.95,1.78,1.72.5.77.89,1.75,1.19,2.93.3,1.18.48,2.58.57,4.19h-3.17c-.1-2.14-.38-3.76-.86-4.86-.48-1.1-1.13-1.66-1.95-1.66-.47,0-.88.18-1.23.53-.35.35-.65.87-.89,1.55-.24.69-.42,1.54-.54,2.55-.12,1.01-.18,2.19-.18,3.51"/><path class="cls-1" d="M259.36,98.15h-3.29v-21.92h3.29v7.59h.08c.41-.83.92-1.44,1.52-1.84.6-.4,1.33-.59,2.17-.59,2.61,0,3.92,1.93,3.92,5.79v10.97h-3.29v-10.38c0-.69-.03-1.26-.09-1.73-.06-.46-.17-.84-.31-1.12-.15-.28-.34-.49-.58-.61-.24-.12-.53-.19-.89-.19-.86,0-1.49.34-1.91,1.03-.41.68-.62,1.73-.62,3.14v9.86Z"/><path class="cls-1" d="M274.48,95.85c.53,0,.95-.29,1.27-.86.32-.57.57-1.43.76-2.56h3.02c-.12,1.01-.31,1.89-.56,2.66-.26.77-.59,1.41-.99,1.93-.41.52-.9.91-1.47,1.17-.57.26-1.23.39-1.99.39-.89,0-1.68-.19-2.36-.55-.68-.37-1.25-.92-1.71-1.64-.46-.72-.81-1.62-1.04-2.69-.23-1.07-.35-2.31-.35-3.72s.11-2.65.35-3.72c.23-1.07.58-1.97,1.04-2.69.46-.73,1.04-1.27,1.72-1.64.68-.37,1.48-.55,2.38-.55.8,0,1.52.17,2.14.5.63.33,1.15.85,1.58,1.54.43.7.76,1.58.98,2.65.22,1.07.34,2.34.34,3.82v.26c0,.08,0,.16,0,.24,0,.07-.01.15-.01.23,0,.08-.01.17-.02.27h-7.19c.05,1.62.26,2.85.62,3.7.36.84.86,1.27,1.49,1.27M274.47,84.12c-.61,0-1.08.38-1.44,1.15-.35.77-.57,1.9-.65,3.39h4.14c-.08-1.49-.28-2.63-.63-3.39-.34-.77-.81-1.15-1.42-1.15"/><path class="cls-1" d="M286.28,81.38c1.61,0,2.83.52,3.65,1.57.83,1.05,1.24,2.58,1.24,4.61h-3.05c0-1.18-.14-2.06-.41-2.61-.27-.56-.7-.83-1.28-.83-.23,0-.43.04-.62.12-.19.08-.35.19-.48.34-.13.15-.24.32-.31.53-.07.21-.1.43-.1.68,0,.34.06.64.19.9.13.26.3.5.51.7.21.21.45.4.72.56.27.16.54.32.82.48l.62.34c.26.14.54.3.82.47.28.17.56.36.83.57.27.21.53.44.77.71.24.26.45.56.64.9.18.34.33.72.43,1.13.11.42.16.89.16,1.41,0,.73-.11,1.38-.33,1.96-.22.58-.54,1.07-.95,1.46-.41.39-.92.7-1.51.91-.59.21-1.27.32-2.02.32-.86,0-1.61-.14-2.27-.41-.66-.27-1.21-.68-1.66-1.21-.45-.53-.79-1.19-1.02-1.97-.23-.78-.35-1.68-.35-2.69h3.05c0,.56.05,1.06.14,1.5.09.44.23.81.41,1.11.18.3.4.53.66.69.26.16.55.24.89.24.26,0,.5-.05.72-.15s.41-.23.56-.41c.15-.18.27-.38.36-.63.09-.24.13-.51.13-.81,0-.37-.06-.7-.2-.97-.13-.28-.3-.53-.52-.75-.22-.22-.47-.42-.75-.59-.29-.18-.58-.35-.88-.51l-.57-.31c-.23-.13-.48-.27-.75-.43-.27-.16-.54-.33-.81-.53-.26-.2-.52-.43-.76-.68-.24-.25-.46-.55-.65-.87-.19-.33-.34-.7-.45-1.1-.11-.41-.17-.86-.17-1.37,0-.68.1-1.28.31-1.82.21-.54.51-.99.9-1.37.39-.38.87-.67,1.44-.87.57-.2,1.2-.3,1.91-.3"/><path class="cls-1" d="M292.61,84.34v-2.52h1.5v-3.76h3.29v3.76h3.94v2.52h-3.94v9.33c0,.41.03.77.1,1.06.07.29.18.53.33.72.15.19.34.32.58.41.24.09.52.13.85.13.28,0,.59-.03.92-.09.33-.06.72-.15,1.16-.28v2.59c-.49.13-.95.23-1.4.29-.44.06-.87.09-1.28.09-.73,0-1.38-.11-1.95-.32-.56-.22-1.04-.53-1.43-.94-.39-.41-.68-.92-.88-1.52-.2-.6-.3-1.29-.3-2.07v-9.41h-1.5Z"/><path class="cls-1" d="M306.17,98.15h-3.29v-16.33h3.13v1.99h.08c.41-.82.93-1.44,1.55-1.83.62-.4,1.36-.59,2.22-.59,2.67,0,4.01,1.93,4.01,5.79v10.97h-3.29v-10.38c0-.69-.03-1.26-.09-1.73-.06-.46-.17-.84-.31-1.12-.15-.28-.34-.49-.58-.61-.24-.12-.53-.19-.89-.19-.86,0-1.49.34-1.91,1.03-.41.68-.62,1.73-.62,3.14v9.86Z"/><path class="cls-1" d="M323.74,81.83h3.29v16.33h-3.13v-1.99h-.08c-.41.82-.93,1.43-1.55,1.83-.62.4-1.36.6-2.21.6-2.67,0-4.01-1.93-4.01-5.79v-10.97h3.29v10.38c0,.68.03,1.26.09,1.72.06.46.17.84.31,1.12.15.28.34.49.58.61.24.12.53.19.88.19.86,0,1.49-.34,1.91-1.03.41-.68.62-1.73.62-3.14v-9.86Z"/><path class="cls-1" d="M328.72,84.34v-2.52h1.5v-3.76h3.29v3.76h3.94v2.52h-3.94v9.33c0,.41.03.77.1,1.06.07.29.18.53.33.72.15.19.34.32.58.41.24.09.52.13.85.13.28,0,.59-.03.92-.09.33-.06.72-.15,1.16-.28v2.59c-.49.13-.95.23-1.4.29-.44.06-.87.09-1.28.09-.73,0-1.38-.11-1.95-.32-.56-.22-1.04-.53-1.43-.94-.39-.41-.68-.92-.88-1.52-.2-.6-.3-1.29-.3-2.07v-9.41h-1.5Z"/><path class="cls-1" d="M348.69,76.97c1.08,0,2.05.14,2.9.42.85.28,1.57.67,2.15,1.19.59.51,1.03,1.14,1.34,1.87.31.73.46,1.56.46,2.48,0,.66-.08,1.27-.23,1.85-.15.58-.36,1.09-.63,1.55-.27.45-.59.83-.96,1.13-.37.3-.77.51-1.21.61v.07c.98.19,1.73.71,2.24,1.56.51.85.77,2,.77,3.46v2.08c0,.35,0,.65,0,.89,0,.25.02.48.04.68.02.2.04.4.08.59.03.19.07.39.12.61v.15h-3.29c-.06-.29-.11-.55-.14-.79-.03-.24-.06-.47-.07-.7-.02-.23-.03-.46-.03-.7,0-.24,0-.5,0-.79v-2.46c0-.61-.06-1.13-.17-1.54-.11-.41-.3-.74-.56-.99-.26-.25-.61-.43-1.04-.53-.43-.11-.97-.16-1.61-.16h-1.1v8.66h-3.41v-21.18h4.36ZM348.8,86.82c1.18,0,2.04-.31,2.59-.92s.83-1.57.83-2.88c0-.61-.06-1.13-.19-1.56-.12-.43-.32-.78-.6-1.05-.28-.27-.63-.47-1.07-.59-.43-.12-.96-.19-1.59-.19h-1.04v7.18h1.06Z"/><path class="cls-1" d="M360.95,79.93h-3.29v-3.7h3.29v3.7ZM360.95,98.15h-3.29v-16.33h3.29v16.33Z"/><path class="cls-1" d="M373.96,76.23v21.92h-3.13v-1.83h-.08c-.37.77-.84,1.34-1.4,1.72-.56.38-1.23.56-2,.56s-1.39-.17-1.93-.52c-.55-.35-1-.88-1.36-1.59-.36-.71-.62-1.61-.8-2.7-.18-1.08-.26-2.36-.26-3.82s.08-2.71.25-3.79c.17-1.08.43-1.97.78-2.68.35-.71.79-1.23,1.32-1.58.53-.35,1.16-.52,1.88-.52.76,0,1.41.19,1.97.57.55.38,1.02.96,1.39,1.74h.08v-7.46h3.29ZM370.67,89.99c0-3.91-.79-5.86-2.36-5.86-.36,0-.67.11-.93.33-.26.22-.47.56-.63,1.04-.16.47-.28,1.08-.35,1.82-.07.74-.11,1.64-.11,2.68s.04,1.93.11,2.68c.07.74.19,1.35.35,1.82.16.47.37.82.63,1.04.26.22.57.33.93.33,1.58,0,2.36-1.96,2.36-5.87"/><path class="cls-1" d="M386.98,81.81v15.59c0,2.28-.45,3.98-1.36,5.1-.91,1.12-2.22,1.68-3.94,1.68s-3.02-.56-3.92-1.69c-.9-1.12-1.35-2.83-1.35-5.1h3.04c0,.77.04,1.42.13,1.95.08.54.21.97.38,1.3.17.33.39.57.66.72.27.15.58.22.95.22s.69-.08.95-.23c.26-.15.48-.39.66-.72.17-.33.3-.77.39-1.3.08-.53.12-1.18.12-1.95v-2.93h-.08c-.37.77-.86,1.34-1.46,1.71-.6.37-1.28.56-2.03.56-1.39,0-2.42-.63-3.1-1.89s-1.01-3.17-1.01-5.76.34-4.56,1.04-5.82c.69-1.26,1.74-1.9,3.15-1.9.78,0,1.48.19,2.09.57.61.38,1.1.96,1.49,1.74h.08v-1.86h3.13ZM383.68,89.05c0-.68-.05-1.31-.15-1.91-.1-.6-.25-1.12-.45-1.57-.2-.45-.44-.8-.74-1.06-.29-.26-.64-.39-1.03-.39-.36,0-.67.09-.93.28-.26.19-.47.48-.63.88-.16.4-.28.91-.36,1.53-.07.63-.11,1.38-.11,2.26s.04,1.63.11,2.26c.08.63.19,1.14.36,1.53.16.39.37.68.63.87.26.19.57.28.93.28.26,0,.5-.06.72-.18.22-.12.42-.29.59-.5.18-.22.33-.48.46-.78.13-.3.24-.64.33-1,.09-.36.15-.76.2-1.18.04-.42.06-.85.06-1.3"/><path class="cls-1" d="M394.44,95.85c.53,0,.95-.29,1.27-.86.32-.57.57-1.43.76-2.56h3.02c-.12,1.01-.31,1.89-.56,2.66-.26.77-.59,1.41-.99,1.93-.41.52-.9.91-1.47,1.17-.57.26-1.23.39-1.99.39-.89,0-1.68-.19-2.36-.55-.68-.37-1.25-.92-1.71-1.64-.46-.72-.81-1.62-1.04-2.69-.23-1.07-.35-2.31-.35-3.72s.12-2.65.35-3.72c.23-1.07.58-1.97,1.04-2.69.46-.73,1.04-1.27,1.72-1.64.69-.37,1.48-.55,2.38-.55.8,0,1.52.17,2.14.5.63.33,1.15.85,1.58,1.54.43.7.76,1.58.98,2.65.22,1.07.34,2.34.34,3.82v.26c0,.08,0,.16,0,.24,0,.07-.01.15-.01.23,0,.08-.01.17-.02.27h-7.19c.05,1.62.26,2.85.62,3.7.36.84.86,1.27,1.49,1.27M394.43,84.12c-.61,0-1.08.38-1.44,1.15-.35.77-.57,1.9-.65,3.39h4.14c-.08-1.49-.28-2.63-.63-3.39-.34-.77-.81-1.15-1.42-1.15"/><polygon class="cls-1" points="204.53 440.53 199.82 440.53 197.33 429.21 195.87 421.56 195.79 421.56 196.49 429.21 196.49 440.53 193.24 440.53 193.24 419.36 198.03 419.36 200.15 429.21 201.85 437.84 201.93 437.84 201.28 429.21 201.28 419.36 204.53 419.36 204.53 440.53"/><path class="cls-1" d="M212.06,438.24c.53,0,.95-.29,1.27-.86.32-.57.57-1.42.76-2.55h3.02c-.12,1.01-.31,1.89-.56,2.66-.26.77-.59,1.41-.99,1.93-.41.52-.9.91-1.47,1.17-.57.26-1.23.39-1.99.39-.9,0-1.68-.19-2.36-.56-.68-.37-1.25-.92-1.71-1.64-.46-.72-.81-1.62-1.04-2.69-.23-1.07-.35-2.31-.35-3.72s.12-2.65.35-3.72c.23-1.07.58-1.97,1.04-2.69.46-.72,1.04-1.27,1.72-1.64.69-.37,1.48-.56,2.38-.56.8,0,1.51.17,2.14.5.63.33,1.15.85,1.59,1.54.43.7.76,1.58.98,2.65.22,1.07.34,2.34.34,3.82v.27c0,.08,0,.16,0,.23,0,.08,0,.16,0,.23,0,.08-.01.17-.02.27h-7.19c.06,1.62.26,2.85.62,3.69.36.85.85,1.27,1.49,1.27M212.05,426.51c-.61,0-1.08.38-1.44,1.15-.35.77-.57,1.9-.65,3.39h4.14c-.08-1.5-.28-2.63-.63-3.39-.34-.77-.82-1.15-1.42-1.15"/><polygon class="cls-1" points="228.69 424.21 229.72 433.57 230.15 438.68 230.23 438.68 230.64 433.57 231.62 424.21 234.79 424.21 232.25 440.53 227.88 440.53 226.92 431.77 226.47 426.43 226.39 426.43 225.93 431.77 224.97 440.53 220.6 440.53 218.07 424.21 221.48 424.21 222.46 433.55 222.86 438.68 222.94 438.68 223.38 433.57 224.41 424.21 228.69 424.21"/><polygon class="cls-1" points="253.36 440.53 249.94 440.53 249.94 431.26 245.48 431.26 245.48 440.53 242.07 440.53 242.07 419.36 245.48 419.36 245.48 428.37 249.94 428.37 249.94 419.36 253.36 419.36 253.36 440.53"/><path class="cls-1" d="M260.89,438.24c.53,0,.95-.29,1.27-.86.32-.57.57-1.42.76-2.55h3.02c-.12,1.01-.31,1.89-.56,2.66-.26.77-.59,1.41-.99,1.93-.41.52-.9.91-1.47,1.17-.57.26-1.23.39-1.99.39-.89,0-1.68-.19-2.36-.56-.68-.37-1.25-.92-1.71-1.64-.46-.72-.81-1.62-1.04-2.69-.23-1.07-.35-2.31-.35-3.72s.12-2.65.35-3.72c.23-1.07.58-1.97,1.04-2.69.46-.72,1.04-1.27,1.72-1.64.69-.37,1.48-.56,2.38-.56.8,0,1.52.17,2.14.5.63.33,1.15.85,1.58,1.54.43.7.76,1.58.98,2.65.22,1.07.34,2.34.34,3.82v.27c0,.08,0,.16,0,.23,0,.08-.01.16-.01.23,0,.08-.01.17-.02.27h-7.19c.05,1.62.26,2.85.62,3.69.36.85.86,1.27,1.49,1.27M260.88,426.51c-.61,0-1.08.38-1.44,1.15-.35.77-.57,1.9-.65,3.39h4.14c-.08-1.5-.28-2.63-.63-3.39-.34-.77-.81-1.15-1.42-1.15"/><path class="cls-1" d="M271.37,440.53h-3.29v-16.33h3.13v1.98h.08c.39-.82.89-1.43,1.48-1.83.59-.39,1.3-.59,2.11-.59,1.69,0,2.82.83,3.4,2.5h.08c.39-.85.9-1.48,1.51-1.89.61-.41,1.36-.61,2.23-.61,2.66,0,3.98,1.93,3.98,5.79v10.97h-3.29v-10.38c0-.69-.03-1.26-.09-1.73-.06-.46-.15-.84-.29-1.12-.13-.28-.31-.49-.53-.61-.22-.12-.5-.19-.82-.19-.79,0-1.38.34-1.76,1.02-.39.68-.58,1.73-.58,3.14v9.86h-3.29v-10.38c0-.69-.03-1.26-.09-1.73-.06-.46-.15-.84-.29-1.12-.13-.28-.31-.49-.53-.61-.22-.12-.5-.19-.82-.19-.79,0-1.38.34-1.76,1.02-.39.68-.58,1.73-.58,3.14v9.86Z"/><path class="cls-1" d="M288.3,446.15v-21.93h3.13v1.85h.08c.37-.78.84-1.36,1.4-1.73.56-.38,1.22-.56,2-.56s1.39.17,1.94.52c.54.35,1,.88,1.36,1.59.36.71.63,1.61.8,2.69.18,1.08.26,2.36.26,3.83s-.09,2.71-.26,3.79c-.17,1.08-.43,1.97-.78,2.68-.35.71-.79,1.24-1.32,1.58-.53.35-1.16.52-1.88.52-.76,0-1.41-.19-1.97-.57-.55-.38-1.02-.96-1.39-1.74h-.08v7.48h-3.29ZM291.59,432.37c0,3.91.79,5.87,2.36,5.87.36,0,.67-.11.93-.33.26-.22.47-.57.63-1.04.16-.47.28-1.08.36-1.82.08-.74.11-1.63.11-2.68s-.04-1.94-.11-2.68c-.08-.74-.2-1.34-.36-1.82-.16-.47-.37-.82-.63-1.04-.26-.22-.57-.33-.93-.33-1.57,0-2.36,1.95-2.36,5.86"/><path class="cls-1" d="M305.82,423.76c1.61,0,2.83.52,3.65,1.57.83,1.05,1.24,2.58,1.24,4.61h-3.05c0-1.18-.14-2.06-.41-2.61-.27-.56-.7-.83-1.28-.83-.23,0-.43.04-.62.12-.19.08-.35.19-.48.34-.13.14-.24.32-.31.52-.07.21-.1.43-.1.69,0,.34.06.64.19.9.13.26.3.5.51.7.21.21.45.4.72.56.27.17.54.32.82.48l.62.34c.26.14.54.3.82.47.28.17.56.36.83.57.27.21.53.44.77.71.24.26.45.56.64.9.18.34.33.72.43,1.13.11.42.16.89.16,1.41,0,.73-.11,1.39-.33,1.96s-.54,1.06-.95,1.46c-.41.4-.92.7-1.51.91-.59.21-1.27.31-2.02.31-.86,0-1.61-.14-2.27-.41-.66-.27-1.21-.67-1.66-1.2-.45-.53-.79-1.19-1.02-1.97-.23-.78-.35-1.67-.35-2.69h3.05c0,.56.05,1.06.14,1.5.09.44.23.81.41,1.11.18.3.4.53.66.69.26.16.55.24.89.24.26,0,.5-.05.72-.15.22-.1.41-.23.56-.41.15-.17.27-.38.36-.62.09-.24.13-.51.13-.81,0-.37-.06-.69-.2-.97-.13-.28-.3-.53-.52-.75-.22-.22-.47-.42-.75-.6-.29-.18-.58-.35-.88-.51l-.57-.31c-.23-.13-.48-.27-.75-.43-.27-.16-.54-.33-.81-.53-.26-.2-.52-.43-.76-.68-.24-.26-.46-.55-.65-.87-.19-.33-.34-.7-.45-1.1-.11-.41-.17-.86-.17-1.36,0-.68.1-1.28.31-1.82.21-.54.51-1,.9-1.37.39-.38.87-.67,1.44-.87.57-.2,1.2-.3,1.91-.3"/><path class="cls-1" d="M312.15,426.72v-2.52h1.5v-3.76h3.29v3.76h3.94v2.52h-3.94v9.33c0,.41.03.77.1,1.06.07.3.18.54.33.72.15.19.34.32.58.41.24.09.52.13.85.13.28,0,.59-.03.92-.09.33-.06.72-.15,1.16-.28v2.59c-.49.13-.95.23-1.4.29-.44.07-.87.1-1.28.1-.73,0-1.38-.11-1.95-.32-.56-.21-1.04-.53-1.43-.94-.39-.41-.68-.91-.88-1.52-.2-.6-.3-1.29-.3-2.07v-9.41h-1.5Z"/><path class="cls-1" d="M327.22,438.24c.53,0,.95-.29,1.27-.86.32-.57.57-1.42.76-2.55h3.02c-.12,1.01-.31,1.89-.56,2.66-.26.77-.59,1.41-.99,1.93-.41.52-.9.91-1.47,1.17-.57.26-1.23.39-1.99.39-.89,0-1.68-.19-2.36-.56-.68-.37-1.25-.92-1.71-1.64-.46-.72-.81-1.62-1.04-2.69-.23-1.07-.35-2.31-.35-3.72s.12-2.65.35-3.72c.23-1.07.58-1.97,1.04-2.69.46-.72,1.04-1.27,1.72-1.64.69-.37,1.48-.56,2.38-.56.8,0,1.52.17,2.14.5.63.33,1.15.85,1.58,1.54.43.7.76,1.58.98,2.65.22,1.07.34,2.34.34,3.82v.27c0,.08,0,.16,0,.23,0,.08-.01.16-.01.23,0,.08-.01.17-.02.27h-7.19c.05,1.62.26,2.85.62,3.69.36.85.86,1.27,1.49,1.27M327.21,426.51c-.61,0-1.08.38-1.44,1.15-.35.77-.57,1.9-.65,3.39h4.14c-.08-1.5-.28-2.63-.63-3.39-.34-.77-.81-1.15-1.42-1.15"/><path class="cls-1" d="M334.33,430.63c0-1.2.1-2.23.31-3.09.21-.86.53-1.58.96-2.14.43-.56.97-.97,1.63-1.24.66-.27,1.44-.4,2.34-.4s1.72.14,2.4.42c.68.28,1.24.71,1.68,1.29.44.58.77,1.32.99,2.21.22.89.33,1.95.33,3.17v9.69h-3.13v-1.83h-.08c-.17.35-.38.67-.62.95-.25.28-.52.52-.83.71-.31.2-.65.35-1.01.45-.36.1-.74.16-1.12.16-.59,0-1.14-.12-1.65-.35-.51-.24-.94-.56-1.31-.97-.37-.41-.66-.9-.86-1.47-.21-.57-.31-1.19-.31-1.85,0-.73.13-1.4.38-2.01.25-.61.61-1.13,1.07-1.57.46-.44,1.01-.78,1.64-1.02.64-.24,1.34-.36,2.11-.36h2.43v-.3c0-.88-.03-1.61-.1-2.19-.07-.59-.19-1.05-.35-1.41-.17-.35-.39-.6-.67-.75-.28-.15-.63-.22-1.06-.22s-.75.07-1.02.2c-.27.14-.49.36-.65.68-.17.32-.28.74-.35,1.27-.07.53-.1,1.19-.1,1.98h-3.05ZM337.29,436.15c0,.35.05.66.13.93.09.27.22.51.39.7.17.19.38.34.62.44.24.1.51.15.82.15.39,0,.73-.08,1.04-.25.3-.17.55-.41.76-.74.21-.32.37-.72.47-1.19.11-.47.16-1.01.16-1.61v-.98h-1.67c-.43,0-.81.06-1.15.17-.34.12-.62.28-.85.5-.23.22-.41.48-.53.8-.12.32-.18.68-.18,1.08"/><path class="cls-1" d="M357.95,418.62v21.92h-3.13v-1.84h-.08c-.37.77-.84,1.34-1.4,1.72-.56.38-1.23.56-2,.56s-1.39-.17-1.93-.52c-.55-.35-1-.88-1.36-1.59-.36-.71-.62-1.61-.8-2.7-.18-1.08-.26-2.36-.26-3.83s.08-2.71.25-3.79c.17-1.08.43-1.97.78-2.68.35-.71.79-1.23,1.32-1.58.53-.35,1.16-.52,1.88-.52.76,0,1.41.19,1.97.57.55.38,1.02.96,1.39,1.74h.08v-7.46h3.29ZM354.66,432.37c0-3.91-.79-5.86-2.36-5.86-.36,0-.67.11-.93.33-.26.22-.47.57-.63,1.04-.16.47-.28,1.08-.35,1.82-.07.74-.11,1.64-.11,2.68s.04,1.93.11,2.68c.07.74.19,1.35.35,1.82.16.47.37.82.63,1.04.26.22.57.33.93.33,1.58,0,2.36-1.96,2.36-5.87"/><path class="cls-1" d="M66.09,476.12c3.45,0,5.18,2.52,5.18,7.57h-3.17c0-.84-.04-1.57-.11-2.17-.07-.6-.19-1.09-.34-1.47-.16-.38-.35-.66-.59-.84-.24-.18-.53-.27-.86-.27-.28,0-.52.05-.74.17-.22.11-.4.27-.55.47-.15.21-.27.45-.35.75-.08.29-.12.62-.12.99,0,.53.08,1.01.23,1.43.15.42.35.8.58,1.13.24.33.49.62.77.88.28.25.54.48.79.69l.67.55c.31.26.63.52.95.8.32.27.63.57.93.88.3.31.58.65.85,1,.26.36.49.75.69,1.17.2.42.35.88.47,1.38.11.5.17,1.04.17,1.63,0,.83-.12,1.58-.36,2.24-.24.66-.58,1.22-1.04,1.68-.46.46-1.01.81-1.67,1.05-.66.24-1.4.37-2.23.37-1.87,0-3.27-.64-4.18-1.91-.91-1.27-1.37-3.22-1.37-5.84h3.17c0,1.68.19,2.92.56,3.73.37.81.95,1.21,1.72,1.21.31,0,.6-.06.85-.18.25-.12.47-.3.65-.52.18-.23.32-.5.41-.82.1-.32.15-.67.15-1.06,0-.52-.08-.98-.24-1.4-.16-.42-.37-.81-.63-1.17-.26-.36-.55-.69-.88-1-.33-.31-.66-.6-1-.89l-.67-.57c-.25-.21-.52-.44-.8-.69-.28-.25-.56-.52-.83-.82-.27-.29-.54-.61-.78-.96-.25-.34-.47-.72-.66-1.13-.19-.41-.34-.85-.45-1.33-.11-.48-.17-1-.17-1.56,0-.79.12-1.5.35-2.14.23-.63.56-1.17,1-1.62.43-.45.95-.79,1.57-1.03.61-.24,1.31-.36,2.07-.36"/><path class="cls-1" d="M81.26,481.42h3.29v16.33h-3.13v-1.99h-.08c-.41.82-.93,1.43-1.55,1.83-.62.4-1.36.6-2.21.6-2.67,0-4.01-1.93-4.01-5.79v-10.97h3.29v10.38c0,.69.03,1.26.09,1.73.06.46.17.84.31,1.12.14.28.34.49.58.61.24.12.53.19.89.19.85,0,1.49-.34,1.9-1.03.41-.68.62-1.73.62-3.14v-9.86Z"/><path class="cls-1" d="M94.81,483.93h-3.78v13.81h-3.29v-13.81h-1.5v-2.52h1.5v-1.18c0-1.5.42-2.64,1.27-3.41.85-.77,2.08-1.16,3.71-1.16.31,0,.64.01.98.04s.71.07,1.1.12v2.59c-.34-.05-.65-.08-.92-.1-.27-.02-.53-.03-.77-.03-.4,0-.73.03-1,.1-.27.07-.48.18-.64.35-.16.16-.27.39-.34.66-.07.28-.1.62-.1,1.04v.97h3.78v2.52Z"/><path class="cls-1" d="M104.44,483.93h-3.78v13.81h-3.29v-13.81h-1.5v-2.52h1.5v-1.18c0-1.5.42-2.64,1.27-3.41.84-.77,2.08-1.16,3.71-1.16.31,0,.64.01.98.04.34.03.71.07,1.09.12v2.59c-.34-.05-.65-.08-.92-.1-.27-.02-.53-.03-.77-.03-.4,0-.73.03-1.01.1-.27.07-.48.18-.64.35-.16.16-.27.39-.34.66-.06.28-.1.62-.1,1.04v.97h3.78v2.52Z"/><path class="cls-1" d="M110.45,495.44c.53,0,.95-.29,1.27-.86.32-.57.57-1.42.76-2.55h3.02c-.12,1.01-.31,1.89-.56,2.66-.26.77-.59,1.41-.99,1.93-.41.52-.9.91-1.47,1.17-.57.26-1.23.39-1.99.39-.9,0-1.68-.19-2.36-.56-.68-.37-1.25-.92-1.71-1.64-.46-.72-.81-1.62-1.04-2.69-.23-1.07-.35-2.31-.35-3.72s.12-2.65.35-3.72c.23-1.07.58-1.97,1.04-2.69.46-.72,1.04-1.27,1.72-1.64.69-.37,1.48-.56,2.38-.56.8,0,1.51.17,2.14.5.63.33,1.15.85,1.59,1.54.43.7.76,1.58.98,2.65.22,1.07.34,2.34.34,3.82v.27c0,.08,0,.16,0,.23,0,.08,0,.16,0,.23,0,.08-.01.17-.02.27h-7.19c.06,1.62.26,2.85.62,3.69.36.85.85,1.27,1.49,1.27M110.44,483.71c-.61,0-1.08.38-1.44,1.15-.35.77-.57,1.9-.65,3.4h4.14c-.08-1.5-.28-2.63-.63-3.4-.34-.77-.82-1.15-1.42-1.15"/><path class="cls-1" d="M120.93,497.74h-3.29v-16.33h3.13v1.98h.08c.39-.83.87-1.44,1.43-1.83.56-.39,1.24-.59,2.03-.59,1.28,0,2.25.49,2.91,1.47.66.98.99,2.42.99,4.32v2.21h-3.05v-1.61c0-.7-.03-1.28-.09-1.74-.06-.47-.16-.84-.31-1.12-.15-.28-.34-.48-.58-.6-.24-.12-.54-.18-.9-.18-.42,0-.78.08-1.08.23-.3.15-.54.4-.73.73-.19.33-.33.76-.41,1.29-.09.53-.13,1.16-.13,1.91v9.86Z"/><path class="cls-1" d="M133.44,497.74h-3.29v-16.33h3.13v1.99h.08c.41-.83.93-1.44,1.55-1.83.62-.4,1.36-.6,2.21-.6,2.67,0,4.01,1.93,4.01,5.79v10.97h-3.29v-10.38c0-.69-.03-1.26-.09-1.73-.06-.46-.17-.84-.31-1.12-.15-.28-.34-.49-.58-.61-.24-.12-.53-.19-.89-.19-.86,0-1.49.34-1.9,1.03-.41.68-.62,1.73-.62,3.14v9.86Z"/><polygon class="cls-1" points="216.93 210.46 212.22 210.46 209.73 199.14 208.27 191.49 208.19 191.49 208.89 199.14 208.89 210.46 205.64 210.46 205.64 189.28 210.43 189.28 212.55 199.14 214.25 207.77 214.33 207.77 213.68 199.14 213.68 189.28 216.93 189.28 216.93 210.46"/><path class="cls-1" d="M224.46,208.17c.53,0,.95-.29,1.27-.86.32-.57.57-1.43.76-2.56h3.02c-.12,1.01-.31,1.89-.56,2.66-.25.77-.59,1.41-.99,1.93-.41.52-.9.91-1.47,1.17-.57.26-1.23.39-1.99.39-.89,0-1.68-.19-2.36-.55-.68-.37-1.25-.92-1.71-1.64-.46-.72-.81-1.62-1.04-2.69-.23-1.07-.35-2.31-.35-3.72s.12-2.65.35-3.72c.23-1.07.58-1.97,1.04-2.69.46-.73,1.04-1.27,1.72-1.64.69-.37,1.48-.55,2.38-.55.8,0,1.51.17,2.14.5.63.33,1.15.85,1.58,1.54.43.7.76,1.58.98,2.65.22,1.07.34,2.34.34,3.82v.26c0,.08,0,.16,0,.24,0,.07-.01.15-.01.23,0,.08-.01.17-.02.27h-7.19c.06,1.62.26,2.85.62,3.7.36.84.86,1.27,1.5,1.27M224.45,196.44c-.61,0-1.09.38-1.44,1.15-.35.77-.57,1.9-.65,3.39h4.14c-.08-1.49-.28-2.63-.63-3.39-.34-.77-.81-1.15-1.42-1.15"/><polygon class="cls-1" points="241.1 194.13 242.12 203.5 242.55 208.61 242.63 208.61 243.04 203.5 244.02 194.13 247.19 194.13 244.66 210.46 240.29 210.46 239.33 201.7 238.87 196.36 238.79 196.36 238.34 201.7 237.38 210.46 233.01 210.46 230.47 194.13 233.88 194.13 234.86 203.48 235.27 208.61 235.35 208.61 235.78 203.5 236.81 194.13 241.1 194.13"/><path class="cls-1" d="M259.53,188.84c3.46,0,5.18,2.52,5.18,7.57h-3.17c0-.84-.04-1.57-.11-2.16-.07-.6-.19-1.09-.34-1.47-.15-.38-.35-.66-.59-.84-.24-.18-.53-.27-.87-.27-.28,0-.52.06-.74.17-.22.11-.4.27-.55.48-.15.2-.26.45-.34.75-.08.29-.12.62-.12.99,0,.53.07,1.01.23,1.43.16.42.35.8.58,1.13.23.33.49.63.77.88.28.25.54.48.79.69l.67.55c.32.26.63.52.96.8.32.27.63.57.93.88.3.31.58.64.84,1,.26.36.49.75.69,1.17.2.42.35.88.47,1.38.11.5.17,1.04.17,1.62,0,.83-.12,1.58-.36,2.25-.24.66-.58,1.22-1.04,1.68-.45.46-1.01.81-1.67,1.05-.65.25-1.4.37-2.23.37-1.87,0-3.27-.64-4.18-1.91-.92-1.28-1.37-3.23-1.37-5.85h3.17c0,1.68.19,2.92.56,3.73.37.81.95,1.22,1.72,1.22.32,0,.6-.06.85-.18.25-.12.47-.3.65-.53.18-.23.32-.5.41-.82.1-.32.15-.67.15-1.06,0-.51-.08-.98-.24-1.4-.16-.42-.37-.81-.63-1.17-.26-.36-.55-.69-.88-1-.33-.31-.66-.6-1-.89l-.68-.57c-.25-.21-.51-.44-.8-.69-.28-.25-.56-.52-.83-.81-.27-.29-.53-.61-.78-.96-.25-.34-.47-.72-.66-1.13-.19-.41-.34-.85-.45-1.33-.11-.48-.17-1-.17-1.56,0-.79.12-1.5.35-2.14.23-.63.57-1.17,1-1.62.43-.45.95-.79,1.57-1.03.61-.24,1.3-.36,2.07-.36"/><path class="cls-1" d="M274.32,208.6h-.08c-.38.78-.84,1.36-1.39,1.74-.55.38-1.21.57-1.96.57s-1.35-.17-1.88-.52c-.53-.35-.97-.88-1.32-1.58-.35-.71-.61-1.6-.79-2.68-.17-1.08-.26-2.34-.26-3.79s.09-2.74.26-3.82c.18-1.08.44-1.98.8-2.7.36-.71.81-1.24,1.36-1.59.55-.35,1.19-.52,1.93-.52s1.44.19,2,.56c.56.38,1.02.95,1.4,1.73h.08v-1.85h3.13v21.93h-3.29v-7.48ZM274.32,202.3c0-3.91-.79-5.86-2.35-5.86-.36,0-.67.11-.93.33-.26.22-.47.56-.63,1.04-.16.47-.28,1.08-.36,1.82-.08.74-.11,1.64-.11,2.68s.04,1.93.11,2.68c.07.74.19,1.35.36,1.82.16.47.37.82.63,1.04.26.22.57.33.93.33,1.57,0,2.35-1.96,2.35-5.87"/><path class="cls-1" d="M287.49,194.14h3.29v16.33h-3.13v-1.99h-.08c-.41.82-.93,1.43-1.55,1.83-.62.4-1.36.6-2.21.6-2.67,0-4.01-1.93-4.01-5.79v-10.97h3.29v10.38c0,.68.03,1.26.09,1.72.06.46.17.84.31,1.12.15.28.34.49.58.61.24.12.53.19.89.19.86,0,1.49-.34,1.91-1.03.41-.68.62-1.73.62-3.14v-9.86Z"/><path class="cls-1" d="M292.97,200.56c0-1.2.1-2.23.31-3.1.21-.86.53-1.57.96-2.14.43-.56.97-.97,1.63-1.24.66-.27,1.44-.4,2.34-.4s1.72.14,2.4.42c.68.28,1.24.71,1.68,1.29.44.58.77,1.31.99,2.21.22.89.33,1.95.33,3.17v9.69h-3.13v-1.83h-.08c-.17.36-.38.67-.62.95-.25.28-.52.52-.83.72-.31.2-.65.35-1.01.45-.36.1-.74.16-1.12.16-.59,0-1.14-.12-1.65-.35-.51-.24-.94-.56-1.31-.97-.37-.41-.66-.9-.86-1.47-.21-.57-.31-1.19-.31-1.85,0-.73.13-1.4.38-2.01.25-.61.61-1.13,1.07-1.57.46-.44,1.01-.78,1.64-1.02.64-.24,1.34-.36,2.11-.36h2.43v-.29c0-.88-.03-1.61-.1-2.2-.07-.59-.19-1.05-.35-1.41-.17-.35-.39-.6-.67-.75-.28-.15-.63-.22-1.06-.22s-.75.07-1.02.2c-.27.14-.49.36-.65.68-.17.32-.28.74-.35,1.27-.07.53-.1,1.19-.1,1.98h-3.05ZM295.94,206.08c0,.34.05.65.13.93.09.28.22.51.39.7.17.19.38.34.62.44.24.1.51.15.82.15.39,0,.73-.08,1.04-.25.3-.17.55-.41.76-.73.21-.32.37-.72.47-1.19.1-.47.16-1.01.16-1.62v-.98h-1.67c-.43,0-.81.06-1.15.17-.34.11-.62.28-.85.5-.23.22-.41.49-.53.81-.12.32-.18.68-.18,1.08"/><path class="cls-1" d="M309.12,210.46h-3.29v-16.33h3.13v1.98h.08c.39-.83.86-1.44,1.43-1.83.56-.39,1.24-.58,2.03-.58,1.28,0,2.25.49,2.91,1.46.66.98.99,2.42.99,4.33v2.21h-3.05v-1.61c0-.69-.03-1.28-.09-1.74-.06-.47-.16-.84-.31-1.12-.15-.28-.34-.48-.58-.6-.24-.12-.54-.18-.9-.18-.42,0-.78.08-1.08.23-.3.15-.54.4-.73.73-.19.33-.32.76-.41,1.29-.09.53-.13,1.17-.13,1.92v9.86Z"/><path class="cls-1" d="M323.56,208.17c.53,0,.95-.29,1.27-.86.32-.57.57-1.43.76-2.56h3.02c-.12,1.01-.31,1.89-.56,2.66-.26.77-.59,1.41-.99,1.93-.41.52-.9.91-1.47,1.17-.57.26-1.23.39-1.99.39-.89,0-1.68-.19-2.36-.55-.68-.37-1.25-.92-1.71-1.64-.46-.72-.81-1.62-1.04-2.69-.23-1.07-.35-2.31-.35-3.72s.12-2.65.35-3.72c.23-1.07.58-1.97,1.04-2.69.46-.73,1.04-1.27,1.72-1.64.69-.37,1.48-.55,2.38-.55.8,0,1.52.17,2.14.5.63.33,1.15.85,1.58,1.54.43.7.76,1.58.98,2.65.22,1.07.34,2.34.34,3.82v.26c0,.08,0,.16,0,.24,0,.07-.01.15-.01.23,0,.08-.01.17-.02.27h-7.19c.05,1.62.26,2.85.62,3.7.36.84.86,1.27,1.49,1.27M323.55,196.44c-.61,0-1.08.38-1.44,1.15-.35.77-.57,1.9-.65,3.39h4.14c-.08-1.49-.28-2.63-.63-3.39-.34-.77-.81-1.15-1.42-1.15"/><polygon class="cls-1" points="41.27 210.16 37.86 210.16 37.86 200.88 33.39 200.88 33.39 210.16 29.98 210.16 29.98 188.98 33.39 188.98 33.39 198 37.86 198 37.86 188.98 41.27 188.98 41.27 210.16"/><path class="cls-1" d="M43.44,200.26c0-1.2.1-2.23.31-3.1.21-.86.53-1.57.96-2.14.43-.56.97-.97,1.63-1.24.66-.27,1.44-.4,2.34-.4s1.72.14,2.4.42c.68.28,1.24.71,1.68,1.29.44.58.78,1.32,1,2.21.22.89.33,1.95.33,3.17v9.69h-3.13v-1.83h-.08c-.17.36-.38.67-.62.95-.25.28-.52.52-.83.72-.31.2-.64.35-1,.45-.36.1-.74.16-1.13.16-.59,0-1.14-.12-1.64-.35-.51-.24-.94-.56-1.31-.97-.37-.41-.66-.9-.86-1.47-.21-.57-.31-1.19-.31-1.85,0-.73.13-1.4.38-2.01.25-.61.61-1.13,1.07-1.57.46-.44,1.01-.78,1.65-1.02.64-.24,1.34-.36,2.11-.36h2.43v-.29c0-.88-.03-1.61-.1-2.2-.07-.59-.19-1.05-.35-1.41-.17-.35-.39-.6-.68-.75-.28-.15-.63-.22-1.05-.22s-.75.07-1.02.2c-.27.14-.49.36-.66.68-.16.32-.28.74-.35,1.27-.07.53-.1,1.19-.1,1.98h-3.04ZM46.41,205.78c0,.34.04.65.13.93.09.28.22.51.39.7.17.19.38.34.62.44.24.1.51.15.82.15.39,0,.73-.08,1.04-.25.3-.17.55-.41.76-.73.21-.32.36-.72.47-1.19.1-.47.16-1.01.16-1.61v-.98h-1.67c-.43,0-.81.06-1.15.17-.34.11-.62.28-.85.5-.23.22-.41.49-.53.81-.12.32-.18.68-.18,1.08"/><polygon class="cls-1" points="66.87 193.83 63.31 210.16 58.53 210.16 55.09 193.83 58.5 193.83 60.17 203.38 60.96 208.59 61.04 208.59 61.88 203.35 63.62 193.83 66.87 193.83"/><path class="cls-1" d="M73.05,207.87c.53,0,.95-.29,1.27-.86.32-.57.57-1.43.76-2.56h3.02c-.12,1.01-.31,1.89-.56,2.66-.26.77-.59,1.41-.99,1.93-.41.52-.9.91-1.47,1.17-.57.26-1.23.39-1.99.39-.9,0-1.68-.19-2.36-.55-.68-.37-1.25-.92-1.71-1.64-.46-.72-.81-1.62-1.04-2.69-.23-1.07-.35-2.31-.35-3.72s.12-2.64.35-3.72c.23-1.07.58-1.97,1.04-2.69.46-.73,1.04-1.27,1.72-1.64.68-.37,1.48-.55,2.38-.55.8,0,1.51.17,2.14.5.63.33,1.15.85,1.59,1.54.43.7.76,1.58.98,2.65.22,1.07.34,2.34.34,3.82v.26c0,.08,0,.16,0,.24,0,.07,0,.15,0,.23,0,.08-.01.17-.02.27h-7.19c.06,1.62.26,2.85.62,3.7.36.84.85,1.27,1.49,1.27M73.04,196.14c-.61,0-1.08.38-1.44,1.15-.35.77-.57,1.9-.65,3.39h4.14c-.08-1.49-.28-2.63-.63-3.39-.34-.77-.82-1.15-1.42-1.15"/><path class="cls-1" d="M83.53,210.16h-3.29v-16.33h3.13v1.98h.08c.39-.83.87-1.44,1.43-1.83.56-.39,1.24-.58,2.03-.58,1.28,0,2.25.49,2.91,1.46.66.98.99,2.42.99,4.33v2.21h-3.05v-1.61c0-.69-.03-1.28-.09-1.74-.06-.47-.16-.84-.31-1.12-.15-.28-.34-.48-.58-.6-.24-.12-.54-.18-.9-.18-.42,0-.78.08-1.08.23-.3.15-.54.4-.73.73-.19.33-.33.76-.41,1.29-.09.53-.13,1.17-.13,1.92v9.86Z"/><path class="cls-1" d="M97.17,193.39c1.61,0,2.82.52,3.65,1.57.83,1.05,1.24,2.58,1.24,4.61h-3.05c0-1.18-.14-2.06-.41-2.61-.27-.56-.7-.83-1.28-.83-.23,0-.43.04-.62.12-.19.08-.35.19-.48.34-.13.14-.23.32-.3.53-.07.21-.1.43-.1.68,0,.34.06.64.19.9.13.26.3.5.51.7.21.21.45.4.72.56.27.16.54.32.82.48l.62.34c.26.14.54.3.82.47.28.17.56.36.83.57.27.21.53.44.77.71.24.26.46.56.64.9.18.34.33.72.43,1.13.1.42.16.89.16,1.41,0,.73-.11,1.39-.33,1.96-.22.58-.53,1.07-.95,1.46-.41.39-.92.7-1.51.9-.59.21-1.27.32-2.02.32-.86,0-1.61-.14-2.27-.41-.66-.27-1.21-.68-1.66-1.21-.45-.53-.79-1.19-1.02-1.97-.23-.78-.35-1.68-.35-2.69h3.05c0,.56.05,1.06.14,1.5.09.44.23.81.41,1.11.18.3.4.53.66.69.26.16.56.24.89.24.26,0,.5-.05.72-.15.22-.1.41-.23.56-.41.16-.18.28-.38.36-.63.09-.24.13-.51.13-.81,0-.37-.07-.7-.19-.97-.13-.28-.3-.53-.52-.75-.22-.22-.47-.42-.75-.6-.28-.18-.58-.35-.88-.51l-.57-.31c-.23-.13-.48-.27-.76-.43-.27-.16-.54-.33-.8-.53-.27-.2-.52-.43-.76-.68-.24-.25-.46-.55-.65-.87-.19-.33-.34-.7-.45-1.1-.11-.41-.17-.86-.17-1.37,0-.68.1-1.28.31-1.82.21-.54.51-1,.9-1.37.39-.38.87-.67,1.44-.87.56-.2,1.2-.3,1.91-.3"/><path class="cls-1" d="M103.5,196.35v-2.52h1.5v-3.76h3.29v3.76h3.94v2.52h-3.94v9.33c0,.41.03.77.1,1.06.07.29.18.53.33.72.15.19.35.32.58.41.23.09.52.13.85.13.28,0,.59-.03.92-.09.33-.06.72-.15,1.16-.28v2.59c-.49.13-.95.22-1.4.29-.44.06-.87.09-1.28.09-.73,0-1.38-.11-1.95-.32-.56-.22-1.04-.53-1.43-.94-.39-.41-.68-.92-.88-1.52-.2-.6-.3-1.29-.3-2.07v-9.41h-1.5Z"/><path class="cls-1" d="M117.03,210.16h-3.29v-16.33h3.13v1.98h.08c.39-.83.87-1.44,1.43-1.83.56-.39,1.24-.58,2.03-.58,1.28,0,2.24.49,2.9,1.46.66.98.99,2.42.99,4.33v2.21h-3.05v-1.61c0-.69-.03-1.28-.09-1.74-.06-.47-.16-.84-.31-1.12-.15-.28-.34-.48-.58-.6-.24-.12-.54-.18-.9-.18-.42,0-.78.08-1.08.23-.3.15-.54.4-.73.73-.19.33-.32.76-.41,1.29-.09.53-.13,1.17-.13,1.92v9.86Z"/><path class="cls-1" d="M126.17,200.26c0-1.2.1-2.23.31-3.1.21-.86.53-1.57.96-2.14.43-.56.97-.97,1.63-1.24.66-.27,1.44-.4,2.34-.4s1.72.14,2.4.42c.68.28,1.24.71,1.68,1.29.44.58.78,1.32.99,2.21.22.89.33,1.95.33,3.17v9.69h-3.13v-1.83h-.08c-.17.36-.38.67-.62.95-.25.28-.52.52-.83.72-.31.2-.64.35-1,.45-.36.1-.73.16-1.13.16-.59,0-1.14-.12-1.65-.35-.51-.24-.94-.56-1.31-.97-.37-.41-.66-.9-.87-1.47-.21-.57-.31-1.19-.31-1.85,0-.73.13-1.4.38-2.01.25-.61.61-1.13,1.07-1.57.46-.44,1.01-.78,1.65-1.02.64-.24,1.34-.36,2.11-.36h2.43v-.29c0-.88-.03-1.61-.1-2.2-.07-.59-.19-1.05-.35-1.41-.17-.35-.39-.6-.67-.75-.28-.15-.63-.22-1.06-.22s-.74.07-1.02.2c-.27.14-.49.36-.65.68-.17.32-.28.74-.35,1.27-.07.53-.1,1.19-.1,1.98h-3.05ZM129.13,205.78c0,.34.05.65.13.93.09.28.22.51.39.7.17.19.38.34.62.44.24.1.51.15.82.15.39,0,.73-.08,1.04-.25.3-.17.56-.41.76-.73.21-.32.37-.72.47-1.19.1-.47.16-1.01.16-1.61v-.98h-1.67c-.43,0-.81.06-1.15.17-.33.11-.62.28-.85.5-.23.22-.41.49-.53.81-.12.32-.18.68-.18,1.08"/><polygon class="cls-1" points="148.54 193.83 149.56 203.2 149.99 208.31 150.07 208.31 150.48 203.2 151.46 193.83 154.63 193.83 152.1 210.16 147.73 210.16 146.77 201.4 146.31 196.06 146.23 196.06 145.78 201.4 144.82 210.16 140.45 210.16 137.91 193.83 141.32 193.83 142.3 203.18 142.71 208.31 142.79 208.31 143.23 203.2 144.25 193.83 148.54 193.83"/><path class="cls-1" d="M307.69,302.51c3.46,0,5.18,2.52,5.18,7.57h-3.17c0-.84-.04-1.57-.11-2.16-.07-.6-.19-1.09-.34-1.48-.15-.38-.35-.66-.59-.84-.24-.18-.53-.27-.87-.27-.28,0-.52.05-.74.17-.22.11-.4.27-.55.48-.15.2-.26.45-.34.75-.08.29-.12.62-.12.99,0,.53.08,1.01.23,1.43.16.42.35.8.58,1.13.23.33.49.62.77.88.28.25.54.48.79.69l.67.55c.32.26.63.52.96.8.32.27.63.57.93.88.3.31.58.64.85,1,.26.36.49.75.69,1.17.2.42.35.88.47,1.38.11.5.17,1.04.17,1.62,0,.83-.12,1.58-.36,2.24-.24.66-.58,1.22-1.04,1.68-.45.46-1.01.81-1.67,1.05-.66.24-1.4.37-2.23.37-1.87,0-3.27-.64-4.18-1.92-.92-1.27-1.37-3.22-1.37-5.84h3.17c0,1.68.19,2.92.56,3.73.37.81.95,1.21,1.72,1.21.32,0,.6-.06.85-.19.25-.12.47-.3.65-.52.18-.23.32-.5.41-.82.1-.32.15-.67.15-1.06,0-.51-.08-.98-.24-1.4-.16-.42-.37-.81-.63-1.17-.26-.36-.55-.69-.88-1-.33-.31-.66-.6-1-.89l-.68-.57c-.25-.21-.51-.44-.8-.69-.28-.25-.56-.52-.83-.81-.27-.29-.53-.61-.78-.96-.25-.34-.47-.72-.66-1.13-.19-.41-.34-.85-.45-1.33-.11-.48-.17-1-.17-1.56,0-.79.12-1.5.35-2.14.23-.63.57-1.18,1-1.62.43-.45.95-.79,1.57-1.03.61-.24,1.3-.36,2.07-.36"/><path class="cls-1" d="M315.11,329.74v-21.93h3.13v1.85h.08c.37-.78.84-1.36,1.4-1.73.56-.38,1.22-.56,2-.56s1.39.17,1.93.52c.55.35,1,.88,1.36,1.59.36.71.63,1.61.8,2.69.18,1.08.26,2.36.26,3.82s-.09,2.72-.26,3.79c-.17,1.08-.43,1.97-.78,2.68-.35.71-.79,1.24-1.32,1.58-.53.35-1.16.52-1.88.52-.76,0-1.42-.19-1.97-.57-.55-.38-1.02-.96-1.39-1.74h-.08v7.48h-3.29ZM318.4,315.97c0,3.91.79,5.87,2.36,5.87.36,0,.67-.11.93-.33.26-.22.47-.56.63-1.04.16-.47.28-1.08.36-1.82.08-.74.11-1.63.11-2.68s-.04-1.94-.11-2.68c-.08-.74-.2-1.34-.36-1.82-.16-.47-.37-.82-.63-1.03-.26-.22-.57-.33-.93-.33-1.57,0-2.36,1.95-2.36,5.86"/><path class="cls-1" d="M331.4,324.13h-3.29v-16.33h3.13v1.98h.08c.39-.83.86-1.44,1.43-1.83.56-.39,1.24-.59,2.03-.59,1.28,0,2.25.49,2.91,1.47.66.98.99,2.42.99,4.32v2.21h-3.05v-1.61c0-.7-.03-1.28-.09-1.74-.06-.47-.16-.84-.31-1.12-.15-.28-.34-.48-.58-.6-.24-.12-.54-.18-.9-.18-.42,0-.78.08-1.08.23-.3.15-.54.4-.73.73-.19.33-.32.76-.41,1.29-.09.53-.13,1.17-.13,1.91v9.86Z"/><path class="cls-1" d="M343.91,305.91h-3.29v-3.7h3.29v3.7ZM343.91,324.13h-3.29v-16.33h3.29v16.33Z"/><path class="cls-1" d="M349.44,324.13h-3.29v-16.33h3.13v1.99h.08c.41-.83.93-1.44,1.55-1.83.62-.4,1.36-.6,2.22-.6,2.67,0,4.01,1.93,4.01,5.79v10.97h-3.29v-10.38c0-.69-.03-1.26-.09-1.73-.06-.46-.17-.84-.31-1.12-.15-.28-.34-.49-.58-.61-.24-.12-.53-.19-.89-.19-.86,0-1.49.34-1.91,1.02-.41.68-.62,1.73-.62,3.14v9.86Z"/><path class="cls-1" d="M370.12,307.8v15.59c0,2.28-.45,3.98-1.36,5.1-.91,1.12-2.22,1.68-3.94,1.68s-3.02-.56-3.92-1.69c-.9-1.12-1.35-2.82-1.35-5.1h3.04c0,.77.04,1.42.13,1.95.08.53.21.97.38,1.3.17.33.39.57.66.72.27.15.58.22.95.22s.69-.07.95-.23c.26-.15.48-.39.66-.73.17-.33.3-.77.39-1.3.08-.54.12-1.19.12-1.95v-2.93h-.08c-.37.77-.86,1.34-1.46,1.71-.6.37-1.28.56-2.03.56-1.39,0-2.42-.63-3.1-1.89-.68-1.26-1.01-3.18-1.01-5.76s.34-4.56,1.04-5.82c.69-1.27,1.74-1.9,3.15-1.9.78,0,1.47.19,2.09.57.61.38,1.1.96,1.49,1.74h.08v-1.86h3.13ZM366.83,315.04c0-.68-.05-1.31-.15-1.91-.1-.6-.25-1.12-.45-1.57-.2-.45-.44-.8-.74-1.07-.3-.26-.64-.39-1.03-.39-.36,0-.67.09-.93.28-.26.19-.47.48-.63.87-.16.4-.28.91-.36,1.53-.07.63-.11,1.38-.11,2.26s.04,1.63.11,2.26c.08.63.19,1.14.36,1.53.16.39.37.68.63.87.26.19.57.28.93.28.26,0,.5-.06.72-.18.22-.12.42-.29.59-.51.18-.21.33-.48.46-.78.13-.3.24-.64.33-1,.09-.37.15-.76.2-1.18.04-.42.06-.85.06-1.3"/><polygon class="cls-1" points="389.27 302.95 385.73 324.13 380.63 324.13 377.2 302.95 380.86 302.95 382.67 317.17 383.23 322.35 383.31 322.35 383.89 317.17 385.78 302.95 389.27 302.95"/><path class="cls-1" d="M389.8,314.23c0-1.2.1-2.23.31-3.09.21-.86.53-1.58.96-2.14.43-.56.97-.97,1.63-1.24.66-.26,1.44-.4,2.34-.4s1.72.14,2.4.42c.68.28,1.24.71,1.68,1.29.44.58.77,1.31.99,2.21.22.89.33,1.95.33,3.17v9.69h-3.13v-1.83h-.08c-.17.36-.38.67-.62.95-.25.28-.52.52-.83.71-.31.2-.65.35-1.01.45-.36.1-.73.15-1.12.15-.59,0-1.14-.12-1.65-.35-.51-.24-.94-.56-1.31-.97-.37-.41-.66-.9-.86-1.47-.21-.57-.31-1.19-.31-1.85,0-.73.13-1.4.38-2.01.25-.61.61-1.13,1.07-1.57.46-.44,1-.78,1.64-1.02.64-.24,1.34-.36,2.11-.36h2.43v-.3c0-.88-.03-1.61-.1-2.2-.07-.58-.19-1.05-.35-1.41-.17-.35-.39-.6-.67-.75-.28-.15-.63-.22-1.06-.22s-.75.07-1.02.2c-.27.14-.49.36-.65.68-.17.32-.28.74-.35,1.27-.07.53-.1,1.19-.1,1.98h-3.05ZM392.77,319.75c0,.35.05.66.13.93.09.27.22.51.39.7.17.19.38.34.62.44.24.1.51.15.82.15.39,0,.73-.08,1.04-.25.3-.17.55-.41.76-.73.21-.32.37-.72.47-1.19.11-.47.16-1.01.16-1.61v-.98h-1.67c-.43,0-.81.06-1.15.17-.34.12-.62.28-.85.5-.23.22-.41.49-.53.81-.12.32-.18.68-.18,1.08"/><rect class="cls-1" x="402.66" y="302.21" width="3.29" height="21.92"/><rect class="cls-1" x="408.19" y="302.21" width="3.29" height="21.92"/><path class="cls-1" d="M418.94,321.84c.53,0,.95-.29,1.27-.86.32-.57.57-1.42.76-2.55h3.02c-.12,1.01-.31,1.89-.56,2.66-.26.77-.59,1.41-.99,1.93-.41.52-.9.91-1.47,1.17-.57.26-1.23.39-1.99.39-.89,0-1.68-.19-2.36-.56-.68-.37-1.25-.92-1.71-1.64-.46-.72-.81-1.62-1.04-2.69-.23-1.07-.35-2.31-.35-3.72s.11-2.65.35-3.72c.23-1.07.58-1.97,1.04-2.69.46-.72,1.04-1.27,1.72-1.64.68-.37,1.48-.56,2.38-.56.8,0,1.52.17,2.14.5.63.33,1.15.85,1.58,1.54.43.7.76,1.58.98,2.65.22,1.07.34,2.34.34,3.82v.26c0,.08,0,.16,0,.23,0,.08-.01.16-.01.23,0,.08-.01.17-.02.27h-7.19c.05,1.62.26,2.85.62,3.69.36.85.86,1.27,1.49,1.27M418.93,310.11c-.61,0-1.08.38-1.44,1.15-.35.77-.57,1.9-.65,3.39h4.14c-.08-1.5-.28-2.63-.63-3.39-.34-.77-.81-1.15-1.42-1.15"/><path class="cls-1" d="M436.6,307.8l-4.12,17.35c-.17.7-.35,1.31-.55,1.83-.2.52-.44.97-.7,1.34-.27.37-.57.68-.91.91-.34.23-.74.42-1.18.56-.45.14-.95.23-1.52.29-.57.06-1.2.08-1.91.08h-.24v-2.61h.24c.42,0,.81-.02,1.19-.06.37-.04.7-.13.99-.26.28-.13.51-.33.68-.58.17-.25.25-.59.25-1.02,0-.14-.01-.29-.03-.45-.02-.16-.06-.33-.1-.51l-3.85-16.87h3.41l1.66,9.51.79,5.24h.08l.84-5.24,1.75-9.51h3.25Z"/><polygon class="cls-1" points="99.25 38.81 95.92 38.81 95.92 26.89 96.36 19.84 96.28 19.84 95.25 26.89 93.51 38.81 89.1 38.81 87.5 26.89 86.54 19.84 86.46 19.84 86.81 26.89 86.81 38.81 83.56 38.81 83.56 17.64 89.32 17.64 90.93 31.86 91.4 36.28 91.48 36.28 92.02 31.86 93.85 17.64 99.25 17.64 99.25 38.81"/><path class="cls-1" d="M101.33,30.65c0-1.41.12-2.64.36-3.72.24-1.07.59-1.97,1.05-2.69.46-.73,1.04-1.27,1.73-1.64.69-.37,1.49-.55,2.39-.55s1.7.18,2.39.55c.69.37,1.26.92,1.73,1.64.46.72.81,1.62,1.05,2.69.24,1.07.36,2.31.36,3.72s-.12,2.65-.36,3.72c-.24,1.07-.59,1.97-1.05,2.69-.46.73-1.04,1.27-1.73,1.64-.69.37-1.48.55-2.39.55s-1.7-.19-2.39-.55c-.69-.37-1.27-.92-1.73-1.64-.46-.72-.82-1.62-1.05-2.69-.24-1.07-.36-2.31-.36-3.72M104.62,30.65c0,1.92.19,3.37.57,4.37.38,1,.93,1.5,1.67,1.5s1.29-.5,1.67-1.5c.38-1,.57-2.45.57-4.37s-.19-3.37-.57-4.37c-.38-1-.93-1.5-1.67-1.5s-1.29.5-1.67,1.5c-.38,1-.57,2.45-.57,4.37"/><path class="cls-1" d="M117.74,38.81h-3.29v-16.33h3.13v1.99h.08c.41-.82.93-1.44,1.55-1.83.62-.4,1.36-.59,2.22-.59,2.67,0,4.01,1.93,4.01,5.79v10.97h-3.29v-10.38c0-.68-.03-1.26-.09-1.72-.06-.46-.17-.84-.31-1.12-.15-.28-.34-.49-.58-.61-.24-.12-.53-.19-.89-.19-.86,0-1.49.34-1.91,1.03-.41.68-.62,1.73-.62,3.14v9.86Z"/><path class="cls-1" d="M132.16,22.04c1.61,0,2.82.52,3.65,1.57.83,1.05,1.24,2.58,1.24,4.61h-3.05c0-1.18-.14-2.06-.41-2.61-.27-.56-.7-.83-1.28-.83-.23,0-.44.04-.62.12-.19.08-.35.19-.48.34-.13.15-.23.32-.3.53-.07.21-.1.43-.1.68,0,.34.06.64.19.9.13.26.29.5.51.7.21.21.45.4.72.56.27.16.54.32.83.48l.62.34c.26.14.54.3.82.47.28.17.56.36.83.57.27.21.53.44.77.71.24.26.45.56.64.9.18.34.33.72.43,1.13.11.42.16.89.16,1.41,0,.73-.11,1.38-.33,1.96-.22.58-.54,1.07-.95,1.46-.41.39-.92.7-1.51.91-.59.21-1.27.31-2.02.31-.85,0-1.61-.14-2.27-.41-.66-.27-1.21-.68-1.66-1.21-.45-.53-.79-1.19-1.02-1.97-.23-.78-.35-1.68-.35-2.69h3.05c0,.56.05,1.06.14,1.5.09.44.23.81.41,1.11.18.3.4.53.66.69.26.16.55.24.88.24.26,0,.5-.05.72-.15.22-.1.41-.23.56-.41.15-.18.27-.38.36-.63.09-.24.13-.51.13-.81,0-.37-.07-.7-.2-.97-.13-.28-.3-.53-.52-.75-.22-.22-.47-.42-.75-.6-.29-.18-.58-.35-.88-.51l-.57-.31c-.23-.13-.48-.27-.75-.43-.27-.16-.54-.33-.81-.53-.26-.2-.52-.43-.76-.68-.24-.25-.46-.55-.65-.87-.19-.33-.34-.7-.45-1.1-.11-.41-.17-.86-.17-1.37,0-.68.1-1.28.31-1.82.21-.54.51-.99.9-1.37.39-.38.87-.67,1.44-.87.56-.2,1.2-.3,1.91-.3"/><path class="cls-1" d="M144.42,36.52c.53,0,.95-.29,1.27-.86.32-.57.57-1.43.76-2.56h3.02c-.12,1.01-.31,1.89-.56,2.66-.26.77-.59,1.41-.99,1.93-.41.52-.9.91-1.47,1.17-.57.26-1.23.39-1.99.39-.9,0-1.68-.19-2.36-.55-.68-.37-1.25-.92-1.71-1.64-.46-.72-.81-1.62-1.04-2.69-.23-1.07-.35-2.31-.35-3.72s.12-2.65.35-3.72c.23-1.07.58-1.97,1.04-2.69.46-.73,1.04-1.27,1.72-1.64.68-.37,1.48-.55,2.38-.55.8,0,1.51.17,2.14.5.63.33,1.15.85,1.59,1.54.43.7.76,1.58.98,2.65.22,1.07.34,2.34.34,3.82v.26c0,.08,0,.16,0,.24,0,.07,0,.15,0,.23,0,.08-.01.17-.02.27h-7.19c.06,1.62.26,2.85.62,3.7.36.84.85,1.27,1.49,1.27M144.41,24.79c-.61,0-1.08.38-1.44,1.15-.35.77-.57,1.9-.65,3.4h4.14c-.08-1.49-.28-2.63-.63-3.4-.34-.77-.82-1.15-1.42-1.15"/><path class="cls-1" d="M162.04,22.49l-4.12,17.36c-.17.7-.35,1.31-.55,1.83-.2.52-.44.97-.7,1.34s-.57.68-.91.91c-.34.24-.74.42-1.18.56-.45.14-.95.23-1.52.29-.57.05-1.21.08-1.91.08h-.24v-2.61h.24c.42,0,.81-.02,1.19-.06.38-.04.7-.13.99-.26.28-.13.51-.33.68-.58.17-.25.25-.59.25-1.02,0-.15-.01-.3-.03-.46-.02-.16-.05-.33-.1-.52l-3.85-16.87h3.41l1.66,9.51.79,5.24h.08l.84-5.24,1.75-9.51h3.25Z"/><polygon class="cls-1" points="316.12 266.59 312.71 266.59 312.71 257.31 308.24 257.31 308.24 266.59 304.83 266.59 304.83 245.41 308.24 245.41 308.24 254.43 312.71 254.43 312.71 245.41 316.12 245.41 316.12 266.59"/><path class="cls-1" d="M321.73,248.38h-3.29v-3.7h3.29v3.7ZM321.73,266.59h-3.29v-16.33h3.29v16.33Z"/><rect class="cls-1" x="323.97" y="244.67" width="3.29" height="21.92"/><rect class="cls-1" x="329.5" y="244.67" width="3.29" height="21.92"/><path class="cls-1" d="M338.12,258.43c0,1.92.18,3.37.55,4.37.36,1,.89,1.5,1.59,1.5.62,0,1.1-.39,1.46-1.17.36-.78.59-1.92.7-3.43h3.05c-.08,1.2-.23,2.26-.46,3.17-.23.91-.56,1.68-.97,2.3-.42.62-.93,1.09-1.54,1.4-.61.31-1.33.47-2.17.47-.9,0-1.69-.19-2.38-.55-.68-.37-1.26-.92-1.72-1.64-.46-.72-.81-1.62-1.04-2.69-.23-1.07-.35-2.31-.35-3.72s.11-2.64.35-3.72c.23-1.07.58-1.97,1.04-2.69.46-.73,1.04-1.27,1.72-1.64.69-.37,1.48-.55,2.38-.55.83,0,1.55.16,2.16.47.61.31,1.12.78,1.54,1.4.42.62.74,1.38.97,2.3.23.91.39,1.97.46,3.17h-3.05c-.11-1.51-.34-2.65-.7-3.43-.36-.77-.84-1.16-1.46-1.16-.7,0-1.23.5-1.59,1.5-.36,1-.55,2.45-.55,4.37"/><path class="cls-1" d="M350.83,266.59h-3.29v-16.33h3.13v1.98h.08c.39-.83.86-1.44,1.43-1.83.56-.39,1.24-.58,2.03-.58,1.28,0,2.25.49,2.91,1.46.66.98.99,2.42.99,4.33v2.21h-3.05v-1.61c0-.69-.03-1.28-.09-1.74-.06-.47-.16-.84-.31-1.12-.15-.28-.34-.48-.58-.6-.24-.12-.54-.18-.9-.18-.42,0-.78.08-1.08.23-.3.15-.54.4-.73.73-.19.33-.32.76-.41,1.29-.09.53-.13,1.17-.13,1.92v9.86Z"/><path class="cls-1" d="M365.27,264.3c.53,0,.95-.29,1.27-.86.32-.57.57-1.43.76-2.56h3.02c-.12,1.01-.31,1.89-.56,2.66-.26.77-.59,1.41-.99,1.93-.41.52-.9.91-1.47,1.17-.57.26-1.23.39-1.99.39-.89,0-1.68-.19-2.36-.55-.68-.37-1.25-.92-1.71-1.64-.46-.72-.81-1.62-1.04-2.69-.23-1.07-.35-2.31-.35-3.72s.11-2.64.35-3.72c.23-1.07.58-1.97,1.04-2.69.46-.73,1.04-1.27,1.72-1.64.68-.37,1.48-.55,2.38-.55.8,0,1.52.17,2.14.5.63.33,1.15.85,1.58,1.54.43.7.76,1.58.98,2.65.22,1.07.34,2.34.34,3.82v.26c0,.08,0,.16,0,.24,0,.07-.01.15-.01.23,0,.08-.01.17-.02.27h-7.19c.05,1.62.26,2.85.62,3.7.36.84.86,1.27,1.49,1.27M365.26,252.57c-.61,0-1.08.38-1.44,1.15-.35.77-.57,1.9-.65,3.39h4.14c-.08-1.49-.28-2.63-.63-3.39-.34-.77-.81-1.15-1.42-1.15"/><path class="cls-1" d="M377.07,249.82c1.61,0,2.83.52,3.65,1.57.83,1.05,1.24,2.58,1.24,4.61h-3.05c0-1.18-.14-2.06-.41-2.61-.27-.56-.7-.83-1.28-.83-.23,0-.43.04-.62.12-.19.08-.35.19-.48.34-.13.14-.24.32-.31.53-.07.21-.1.43-.1.68,0,.34.06.64.19.9.13.26.29.5.51.7.21.21.45.4.72.56.27.16.54.32.82.48l.62.34c.26.14.54.3.82.47.28.17.56.36.83.57.27.21.53.44.77.71.24.26.45.56.64.9.18.34.33.72.43,1.13.11.42.16.89.16,1.41,0,.73-.11,1.39-.33,1.96-.22.58-.54,1.07-.95,1.46-.41.39-.92.7-1.51.9-.59.21-1.27.32-2.02.32-.86,0-1.61-.14-2.27-.41-.66-.27-1.21-.68-1.66-1.21-.45-.53-.79-1.19-1.02-1.97-.23-.78-.35-1.68-.35-2.69h3.05c0,.56.05,1.06.14,1.5.09.44.23.81.41,1.11.18.3.4.53.66.69.26.16.55.24.89.24.26,0,.5-.05.72-.15s.41-.23.56-.41c.15-.18.27-.38.36-.63.09-.24.13-.51.13-.81,0-.37-.06-.7-.2-.97-.13-.28-.3-.53-.52-.75-.22-.22-.47-.42-.75-.6-.29-.18-.58-.35-.88-.51l-.57-.31c-.23-.13-.48-.27-.75-.43-.27-.16-.54-.33-.81-.53-.26-.2-.52-.43-.76-.68-.24-.25-.46-.55-.65-.87-.19-.33-.34-.7-.45-1.1-.11-.41-.17-.86-.17-1.37,0-.68.1-1.28.31-1.82.21-.54.51-1,.9-1.37.39-.38.87-.67,1.44-.87.57-.2,1.2-.3,1.91-.3"/><path class="cls-1" d="M383.4,252.78v-2.52h1.5v-3.76h3.29v3.76h3.94v2.52h-3.94v9.33c0,.41.03.77.1,1.06.07.29.18.53.33.72.15.19.34.32.58.41.24.09.52.13.85.13.28,0,.59-.03.92-.09.33-.06.72-.15,1.16-.28v2.59c-.49.13-.95.23-1.4.29-.44.06-.87.09-1.28.09-.73,0-1.38-.11-1.95-.32-.56-.22-1.04-.53-1.43-.94-.39-.41-.68-.92-.88-1.52-.2-.6-.3-1.29-.3-2.07v-9.41h-1.5Z"/><polygon class="cls-1" points="131.76 369.78 137.2 380.54 133.43 380.54 129.16 371.07 129.08 371.07 129.08 380.54 125.67 380.54 125.67 359.37 129.08 359.37 129.08 368.7 129.16 368.7 132.82 359.37 136.36 359.37 131.76 369.78"/><path class="cls-1" d="M142.74,378.25c.53,0,.95-.29,1.27-.86.32-.57.57-1.42.76-2.55h3.02c-.12,1.01-.31,1.89-.56,2.66-.26.77-.59,1.41-.99,1.93-.41.52-.9.91-1.47,1.17-.57.26-1.23.39-1.99.39-.9,0-1.68-.19-2.36-.56-.68-.37-1.25-.92-1.71-1.64-.46-.72-.81-1.62-1.04-2.69-.23-1.07-.35-2.31-.35-3.72s.12-2.65.35-3.72c.23-1.07.58-1.97,1.04-2.69.46-.72,1.04-1.27,1.72-1.64.68-.37,1.48-.56,2.38-.56.8,0,1.51.17,2.14.5.63.33,1.15.85,1.59,1.54.43.7.76,1.58.98,2.65.22,1.07.34,2.34.34,3.82v.27c0,.08,0,.16,0,.23,0,.08,0,.16,0,.23,0,.08-.01.17-.02.27h-7.19c.06,1.62.26,2.85.62,3.69.36.85.85,1.27,1.49,1.27M142.73,366.52c-.61,0-1.08.38-1.44,1.15-.35.77-.57,1.9-.65,3.39h4.13c-.08-1.5-.28-2.63-.63-3.39-.34-.77-.82-1.15-1.42-1.15"/><path class="cls-1" d="M154.54,363.77c1.61,0,2.82.52,3.65,1.57.83,1.05,1.24,2.58,1.24,4.61h-3.05c0-1.18-.14-2.05-.41-2.61-.27-.56-.7-.83-1.28-.83-.23,0-.44.04-.62.12-.19.08-.35.19-.48.34-.13.14-.23.32-.3.52-.07.21-.1.43-.1.69,0,.34.06.64.19.9.13.26.29.5.51.7.21.21.45.4.72.56.27.17.54.32.83.48l.62.34c.26.14.54.3.82.47.28.17.56.36.83.57.27.21.53.45.77.71.24.26.45.56.64.9.18.34.33.72.43,1.13.11.42.16.89.16,1.41,0,.73-.11,1.39-.33,1.96s-.54,1.06-.95,1.46c-.41.4-.92.7-1.51.91-.59.21-1.27.31-2.02.31-.85,0-1.61-.14-2.27-.41-.66-.27-1.21-.67-1.66-1.2-.45-.53-.79-1.19-1.02-1.97-.23-.78-.35-1.67-.35-2.69h3.05c0,.56.05,1.06.14,1.5.09.44.23.81.41,1.11.18.3.4.53.66.69.26.16.55.24.88.24.26,0,.5-.05.72-.15.22-.1.41-.23.56-.41.15-.18.27-.38.36-.63.09-.24.13-.51.13-.81,0-.37-.07-.69-.2-.97-.13-.28-.3-.53-.52-.75-.22-.22-.47-.42-.75-.6-.29-.18-.58-.35-.88-.51l-.57-.31c-.23-.13-.48-.27-.75-.43-.27-.16-.54-.33-.81-.53-.26-.2-.52-.43-.76-.68-.24-.26-.46-.55-.65-.87-.19-.33-.34-.7-.45-1.1-.11-.41-.17-.86-.17-1.36,0-.68.1-1.28.31-1.82.21-.54.51-1,.9-1.37.39-.38.87-.67,1.44-.87.56-.2,1.2-.3,1.91-.3"/><path class="cls-1" d="M166.8,378.25c.53,0,.95-.29,1.27-.86.32-.57.57-1.42.76-2.55h3.02c-.12,1.01-.31,1.89-.56,2.66-.26.77-.59,1.41-.99,1.93-.41.52-.9.91-1.47,1.17-.57.26-1.23.39-1.99.39-.9,0-1.68-.19-2.36-.56-.68-.37-1.25-.92-1.71-1.64-.46-.72-.81-1.62-1.04-2.69-.23-1.07-.35-2.31-.35-3.72s.12-2.65.35-3.72c.23-1.07.58-1.97,1.04-2.69.46-.72,1.04-1.27,1.72-1.64.68-.37,1.48-.56,2.38-.56.8,0,1.51.17,2.14.5.63.33,1.15.85,1.59,1.54.43.7.76,1.58.98,2.65.22,1.07.34,2.34.34,3.82v.27c0,.08,0,.16,0,.23,0,.08,0,.16,0,.23,0,.08-.01.17-.02.27h-7.19c.06,1.62.26,2.85.62,3.69.36.85.85,1.27,1.49,1.27M166.79,366.52c-.61,0-1.08.38-1.44,1.15-.35.77-.57,1.9-.65,3.39h4.13c-.08-1.5-.28-2.63-.63-3.39-.34-.77-.82-1.15-1.42-1.15"/><path class="cls-1" d="M177.28,380.54h-3.29v-16.33h3.13v1.98h.08c.39-.83.87-1.44,1.43-1.83.56-.39,1.24-.59,2.03-.59,1.28,0,2.24.49,2.9,1.47.66.98.99,2.42.99,4.32v2.21h-3.05v-1.61c0-.7-.03-1.28-.09-1.74-.06-.47-.16-.84-.31-1.12-.15-.28-.34-.48-.58-.6-.24-.12-.54-.18-.9-.18-.42,0-.78.08-1.08.23-.3.15-.54.4-.73.73-.19.33-.32.76-.41,1.29-.09.53-.13,1.16-.13,1.91v9.86Z"/><path class="cls-1" d="M381.67,457.49h-192.2c-16.1,0-29.19-13.09-29.19-29.19s13.09-29.19,29.19-29.19h192.2v58.38ZM189.47,400.65c-15.24,0-27.65,12.4-27.65,27.64s12.4,27.65,27.65,27.65h190.66v-55.29h-190.66Z"/><path class="cls-1" d="M139.15,514.71H57.26c-16.11,0-29.23-13.11-29.23-29.23s13.11-29.23,29.23-29.23h81.89c16.12,0,29.23,13.11,29.23,29.23s-13.11,29.23-29.23,29.23M57.26,457.8c-15.26,0-27.68,12.42-27.68,27.68s12.42,27.69,27.68,27.69h81.89c15.27,0,27.68-12.42,27.68-27.69s-12.42-27.68-27.68-27.68H57.26Z"/><path class="cls-1" d="M349.67,229.55h-141.67c-15.9,0-28.83-12.94-28.83-28.83s12.94-28.83,28.83-28.83h141.67v57.67ZM208,173.43c-15.05,0-27.29,12.24-27.29,27.29s12.24,27.29,27.29,27.29h140.12v-54.58h-140.12Z"/><path class="cls-1" d="M174.89,343.49h-84.67c-15.9,0-28.83-12.94-28.83-28.83s12.93-28.83,28.83-28.83h84.67v57.67ZM90.23,287.36c-15.05,0-27.29,12.24-27.29,27.29s12.24,27.29,27.29,27.29h83.12v-54.58h-83.12Z"/><path class="cls-1" d="M180.61,229.55H29.29c-16.15,0-29.29-13.14-29.29-29.29s13.14-29.29,29.29-29.29h151.33v58.58ZM29.29,172.52c-15.3,0-27.74,12.45-27.74,27.75s12.45,27.74,27.74,27.74h149.78v-55.49H29.29Z"/><path class="cls-1" d="M430.32,343.33h-123.78c-15.99,0-29.01-13.01-29.01-29.01s13.01-29.01,29.01-29.01h123.78c15.99,0,29.01,13.01,29.01,29.01s-13.01,29.01-29.01,29.01M306.54,286.87c-15.14,0-27.46,12.32-27.46,27.46s12.32,27.46,27.46,27.46h123.78c15.14,0,27.46-12.32,27.46-27.46s-12.32-27.46-27.46-27.46h-123.78Z"/><path class="cls-1" d="M156.4,57.54h-75.56c-15.06,0-27.3-12.25-27.3-27.3v-2.93c0-15.06,12.25-27.3,27.3-27.3h75.56c15.86,0,28.77,12.91,28.77,28.77s-12.91,28.77-28.77,28.77M80.84,1.54c-14.2,0-25.76,11.56-25.76,25.76v2.93c0,14.2,11.55,25.76,25.76,25.76h75.56c15.01,0,27.22-12.21,27.22-27.22S171.41,1.54,156.4,1.54h-75.56Z"/><path class="cls-1" d="M391.52,286.58h-86.74c-15.31,0-27.77-12.46-27.77-27.77v-2.99c0-15.31,12.46-27.77,27.77-27.77h86.74c16.14,0,29.26,13.12,29.26,29.26s-13.13,29.26-29.26,29.26M304.78,229.61c-14.46,0-26.22,11.76-26.22,26.22v2.99c0,14.46,11.76,26.23,26.22,26.23h86.74c15.28,0,27.72-12.44,27.72-27.72s-12.43-27.72-27.72-27.72h-86.74Z"/><path class="cls-1" d="M181.07,400.65h-55.45c-15.4,0-27.93-12.53-27.93-27.93v-3c0-15.4,12.53-27.93,27.93-27.93h55.45c16.23,0,29.43,13.2,29.43,29.43s-13.2,29.43-29.43,29.43M125.62,343.33c-14.55,0-26.39,11.84-26.39,26.39v3c0,14.55,11.84,26.39,26.39,26.39h55.45c15.37,0,27.88-12.51,27.88-27.88s-12.51-27.89-27.88-27.89h-55.45Z"/><path class="cls-1" d="M84.26,302.84h4.29c.93,0,1.77.16,2.5.47.74.32,1.36.77,1.88,1.37.52.6.91,1.32,1.18,2.17.27.85.41,1.82.41,2.9s-.13,2.01-.39,2.85c-.26.84-.63,1.56-1.12,2.15-.49.59-1.08,1.04-1.78,1.36-.7.32-1.49.47-2.37.47h-1.47v7.55h-3.13v-21.29ZM87.39,305.75v7.93h1.18c.5,0,.94-.08,1.3-.24.37-.16.67-.4.91-.73.24-.33.42-.74.53-1.24.12-.5.17-1.1.17-1.79s-.06-1.27-.17-1.76c-.11-.49-.28-.9-.52-1.22-.23-.32-.53-.56-.89-.71s-.78-.23-1.27-.23h-1.26Z"/><path class="cls-1" d="M95.97,315.93c0-1.41.11-2.66.33-3.74s.54-1.98.96-2.71.95-1.28,1.58-1.65c.63-.37,1.36-.56,2.18-.56s1.56.19,2.19.56c.63.37,1.16.92,1.58,1.65.42.73.75,1.63.96,2.71.22,1.08.33,2.32.33,3.74s-.11,2.66-.33,3.74c-.22,1.08-.54,1.98-.96,2.71-.42.73-.95,1.28-1.58,1.65-.63.37-1.36.56-2.19.56s-1.55-.19-2.18-.56c-.63-.37-1.16-.92-1.58-1.65s-.75-1.63-.96-2.71-.33-2.32-.33-3.74ZM98.98,315.93c0,1.93.17,3.39.52,4.39.35,1,.86,1.5,1.53,1.5s1.18-.5,1.53-1.5c.35-1,.52-2.47.52-4.39s-.17-3.39-.52-4.39c-.35-1-.86-1.5-1.53-1.5s-1.18.5-1.53,1.5c-.35,1-.52,2.47-.52,4.39Z"/><path class="cls-1" d="M110.7,324.13h-3.01v-16.41h2.87v2h.07c.36-.83.81-1.44,1.36-1.84.54-.4,1.19-.6,1.94-.6,1.55,0,2.58.84,3.11,2.52h.07c.36-.86.83-1.49,1.39-1.9.56-.41,1.24-.61,2.04-.61,2.43,0,3.65,1.94,3.65,5.82v11.03h-3.01v-10.44c0-.69-.03-1.27-.08-1.73-.05-.47-.14-.84-.26-1.13-.12-.29-.28-.49-.49-.61s-.45-.19-.75-.19c-.72,0-1.26.34-1.62,1.03-.35.69-.53,1.74-.53,3.15v9.91h-3.01v-10.44c0-.69-.03-1.27-.08-1.73-.05-.47-.14-.84-.26-1.13-.12-.29-.28-.49-.49-.61-.2-.12-.45-.19-.75-.19-.72,0-1.26.34-1.62,1.03-.35.69-.53,1.74-.53,3.15v9.91Z"/><path class="cls-1" d="M125.8,315.93c0-1.41.11-2.66.33-3.74s.54-1.98.96-2.71.95-1.28,1.58-1.65c.63-.37,1.36-.56,2.18-.56s1.56.19,2.19.56c.63.37,1.16.92,1.58,1.65.42.73.75,1.63.96,2.71.22,1.08.33,2.32.33,3.74s-.11,2.66-.33,3.74c-.22,1.08-.54,1.98-.96,2.71-.42.73-.95,1.28-1.58,1.65-.63.37-1.36.56-2.19.56s-1.55-.19-2.18-.56c-.63-.37-1.16-.92-1.58-1.65s-.75-1.63-.96-2.71-.33-2.32-.33-3.74ZM128.81,315.93c0,1.93.17,3.39.52,4.39.35,1,.86,1.5,1.53,1.5s1.18-.5,1.53-1.5c.35-1,.52-2.47.52-4.39s-.17-3.39-.52-4.39c-.35-1-.86-1.5-1.53-1.5s-1.18.5-1.53,1.5c-.35,1-.52,2.47-.52,4.39Z"/><path class="cls-1" d="M140.54,324.13h-3.01v-16.41h2.87v2h.07c.38-.83.85-1.44,1.42-1.84.57-.4,1.24-.6,2.03-.6,2.45,0,3.67,1.94,3.67,5.82v11.03h-3.01v-10.44c0-.69-.03-1.27-.08-1.73-.06-.47-.15-.84-.29-1.13s-.31-.49-.53-.61-.49-.19-.81-.19c-.78,0-1.37.34-1.75,1.03-.38.69-.57,1.74-.57,3.15v9.91Z"/><path class="cls-1" d="M149.3,314.18c0-1.21.1-2.24.29-3.11.19-.87.48-1.58.88-2.15.39-.56.89-.98,1.5-1.25.6-.27,1.32-.4,2.14-.4s1.58.14,2.2.42,1.13.71,1.54,1.29c.41.58.71,1.32.91,2.22.2.9.3,1.96.3,3.19v9.74h-2.87v-1.84h-.07c-.15.36-.34.68-.57.96-.23.28-.48.52-.76.72-.28.2-.59.35-.92.45-.33.1-.67.16-1.03.16-.54,0-1.04-.12-1.51-.35-.46-.24-.86-.56-1.2-.98-.34-.41-.6-.91-.79-1.48-.19-.57-.29-1.19-.29-1.86,0-.73.12-1.41.35-2.02.23-.61.56-1.14.98-1.58.42-.44.92-.78,1.51-1.02s1.23-.36,1.94-.36h2.23v-.3c0-.88-.03-1.62-.09-2.21-.06-.59-.17-1.06-.32-1.41-.15-.35-.36-.61-.62-.76s-.58-.22-.97-.22-.68.07-.93.2c-.25.14-.45.36-.6.68-.15.32-.26.75-.32,1.28-.06.53-.09,1.19-.09,1.99h-2.79ZM152.01,319.72c0,.35.04.66.12.93.08.28.2.51.36.7.16.19.35.34.57.44.22.1.47.15.75.15.36,0,.67-.08.95-.25.28-.17.51-.42.7-.74.19-.33.33-.72.43-1.19.1-.47.15-1.01.15-1.62v-.98h-1.53c-.39,0-.74.06-1.05.17-.31.12-.57.28-.78.5-.21.22-.38.49-.49.81-.11.32-.17.68-.17,1.08Z"/></g></g></svg>