<?xml version="1.0" encoding="UTF-8"?><svg id="Layer_2" xmlns="http://www.w3.org/2000/svg" viewBox="0 0 289.22 73.11"><defs><style>.cls-1{stroke:#103828;}.cls-1,.cls-2{fill:none;stroke-miterlimit:10;}.cls-3{fill:#84ec5a;}.cls-4{font-family:Manrope-ExtraLight, Manrope;font-size:18.26px;font-variation-settings:'wght' 200;font-weight:200;}.cls-5{fill:#ffbc38;}.cls-2{stroke:#000;}.cls-6{fill:#353535;}</style></defs><g id="Layer_1-2"><path class="cls-3" d="M276.17.5H13.05C6.12.5.5,6.12.5,13.05v47.02c0,6.93,5.62,12.55,12.55,12.55h263.13c6.93,0,12.55-5.62,12.55-12.55V13.05c0-6.93-5.62-12.55-12.55-12.55"/><path class="cls-1" d="M13.05.5h263.13c6.92,0,12.55,5.62,12.55,12.55v47.02c0,6.92-5.62,12.55-12.55,12.55H13.05c-6.92,0-12.55-5.62-12.55-12.55V13.05C.5,6.12,6.12.5,13.05.5Z"/><path class="cls-5" d="M61.64,36.19c0,11.86-9.62,21.48-21.48,21.48s-21.48-9.62-21.48-21.48,9.62-21.48,21.48-21.48,21.48,9.62,21.48,21.48"/><circle class="cls-2" cx="40.15" cy="36.19" r="21.48"/><text class="cls-4" transform="translate(77.46 33.06)"><tspan x="0" y="0">GROW WITH MONSEY</tspan></text><path d="M82.21,47.92v-1.15h12.05v1.15h-12.05ZM100.29,53.92v-13.15h5.08c.13,0,.27,0,.43.01.16,0,.32.03.49.06.69.1,1.27.34,1.75.72.48.37.84.84,1.09,1.41.25.57.37,1.19.37,1.88s-.12,1.31-.37,1.87c-.25.57-.61,1.04-1.09,1.41-.48.37-1.06.61-1.74.72-.16.02-.33.04-.49.05-.16.01-.31.02-.43.02h-3.74v5h-1.34ZM101.63,47.65h3.7c.11,0,.24,0,.38-.02s.29-.03.43-.06c.45-.1.82-.28,1.11-.56.29-.27.51-.6.65-.98.14-.38.21-.77.21-1.18s-.07-.8-.21-1.18c-.14-.38-.36-.71-.65-.98-.29-.27-.66-.46-1.11-.56-.14-.03-.28-.05-.43-.06-.15,0-.27-.01-.38-.01h-3.7v5.59ZM111.32,53.92v-13.15h5.08c.13,0,.27,0,.43.01.16,0,.32.03.49.06.69.1,1.27.34,1.75.72.48.37.84.84,1.09,1.41.25.57.37,1.19.37,1.88,0,.99-.26,1.85-.79,2.58-.52.73-1.27,1.19-2.25,1.38l-.47.11h-4.37v5h-1.34ZM112.66,47.65h3.7c.11,0,.24,0,.38-.02s.29-.03.43-.06c.45-.1.82-.28,1.11-.56.29-.27.51-.6.65-.98.14-.38.21-.77.21-1.18s-.07-.8-.21-1.18c-.14-.38-.36-.71-.65-.98-.29-.27-.66-.46-1.11-.56-.14-.03-.28-.05-.43-.06-.15,0-.27-.01-.38-.01h-3.7v5.59ZM119.28,53.92l-2.59-5.35,1.29-.49,2.85,5.84h-1.54ZM128.15,54.2c-1.31,0-2.41-.29-3.32-.87-.9-.58-1.58-1.39-2.05-2.42-.46-1.03-.69-2.22-.69-3.56s.23-2.53.69-3.56c.46-1.03,1.14-1.83,2.05-2.42.9-.58,2.01-.87,3.32-.87s2.42.29,3.32.87c.9.58,1.58,1.39,2.05,2.42.47,1.03.7,2.22.7,3.56s-.23,2.53-.7,3.56c-.47,1.03-1.15,1.83-2.05,2.42-.9.58-2,.87-3.32.87ZM128.15,52.91c1.03,0,1.89-.23,2.58-.7.69-.47,1.2-1.12,1.55-1.96.34-.84.52-1.8.52-2.9s-.17-2.06-.52-2.9c-.34-.83-.86-1.49-1.55-1.95-.69-.47-1.55-.71-2.58-.71-1.03,0-1.88.23-2.57.7-.68.47-1.19,1.12-1.54,1.96-.34.84-.52,1.8-.53,2.9,0,1.1.16,2.06.51,2.89.34.83.86,1.48,1.55,1.95.69.47,1.55.71,2.58.72ZM136.03,53.92v-13.15h7.55v1.34h-6.21v4.57h5.11v1.33h-5.11v5.91h-1.34ZM145.22,53.92v-13.15h8.22v1.29h-6.88v4.55h5.78v1.29h-5.78v4.74h6.88v1.29h-8.22ZM160.2,54.2c-.92,0-1.75-.15-2.48-.46-.73-.31-1.34-.74-1.82-1.31-.48-.57-.79-1.24-.94-2.02l1.37-.23c.22.85.68,1.52,1.39,2,.71.48,1.55.73,2.53.73.65,0,1.22-.1,1.74-.31.51-.2.91-.49,1.21-.87.29-.38.44-.82.44-1.34,0-.34-.06-.63-.18-.87-.12-.24-.28-.44-.48-.6-.2-.16-.42-.29-.66-.4-.24-.11-.47-.19-.69-.26l-3.33-1c-.4-.12-.77-.26-1.11-.44-.34-.18-.64-.4-.89-.65-.25-.25-.45-.55-.59-.89-.14-.34-.21-.73-.21-1.17,0-.74.19-1.39.58-1.93.39-.54.92-.96,1.6-1.25s1.45-.44,2.31-.43c.88,0,1.66.16,2.35.47.69.31,1.26.75,1.71,1.33.45.58.75,1.26.89,2.04l-1.41.26c-.09-.57-.3-1.07-.63-1.49-.33-.42-.75-.74-1.26-.97-.51-.23-1.07-.35-1.68-.35-.59,0-1.12.1-1.58.3-.46.2-.82.47-1.09.81-.27.34-.4.73-.4,1.17s.12.8.37,1.07c.25.27.55.48.91.63.36.15.71.28,1.05.37l2.58.76c.27.07.58.18.95.32s.72.33,1.06.58c.34.25.63.58.85.99.23.41.34.93.34,1.55s-.12,1.15-.36,1.63c-.24.48-.58.89-1.01,1.21s-.94.58-1.53.75c-.58.17-1.22.26-1.9.26ZM171.45,54.2c-.92,0-1.75-.15-2.48-.46-.73-.31-1.34-.74-1.82-1.31-.48-.57-.79-1.24-.94-2.02l1.37-.23c.22.85.68,1.52,1.39,2,.71.48,1.55.73,2.53.73.65,0,1.22-.1,1.74-.31.51-.2.91-.49,1.21-.87.29-.38.44-.82.44-1.34,0-.34-.06-.63-.18-.87-.12-.24-.28-.44-.48-.6-.2-.16-.42-.29-.66-.4-.24-.11-.47-.19-.69-.26l-3.33-1c-.4-.12-.77-.26-1.11-.44-.34-.18-.64-.4-.89-.65-.25-.25-.45-.55-.59-.89-.14-.34-.21-.73-.21-1.17,0-.74.19-1.39.58-1.93.39-.54.92-.96,1.6-1.25s1.45-.44,2.31-.43c.88,0,1.66.16,2.35.47.69.31,1.26.75,1.71,1.33.45.58.75,1.26.89,2.04l-1.41.26c-.09-.57-.3-1.07-.63-1.49-.33-.42-.75-.74-1.26-.97-.51-.23-1.07-.35-1.68-.35-.59,0-1.12.1-1.58.3-.46.2-.82.47-1.09.81-.27.34-.4.73-.4,1.17s.12.8.37,1.07c.25.27.55.48.91.63.36.15.71.28,1.05.37l2.58.76c.27.07.58.18.95.32s.72.33,1.06.58c.34.25.63.58.85.99.23.41.34.93.34,1.55s-.12,1.15-.36,1.63c-.24.48-.58.89-1.01,1.21s-.94.58-1.53.75c-.58.17-1.22.26-1.9.26ZM178.31,53.92v-13.15h1.34v13.15h-1.34ZM187.71,54.2c-1.31,0-2.41-.29-3.32-.87-.9-.58-1.58-1.39-2.05-2.42-.46-1.03-.69-2.22-.69-3.56s.23-2.53.69-3.56c.46-1.03,1.14-1.83,2.05-2.42.9-.58,2.01-.87,3.32-.87s2.42.29,3.32.87c.9.58,1.58,1.39,2.05,2.42.47,1.03.7,2.22.7,3.56s-.23,2.53-.7,3.56c-.47,1.03-1.15,1.83-2.05,2.42-.9.58-2,.87-3.32.87ZM187.71,52.91c1.03,0,1.89-.23,2.58-.7.69-.47,1.2-1.12,1.55-1.96.34-.84.52-1.8.52-2.9s-.17-2.06-.52-2.9c-.34-.83-.86-1.49-1.55-1.95-.69-.47-1.55-.71-2.58-.71-1.03,0-1.88.23-2.57.7-.68.47-1.19,1.12-1.54,1.96-.34.84-.52,1.8-.53,2.9,0,1.1.16,2.06.51,2.89.34.83.86,1.48,1.55,1.95.69.47,1.55.71,2.58.72ZM195.59,53.92v-13.15h1.35l7.24,10.78v-10.78h1.35v13.15h-1.35l-7.24-10.79v10.79h-1.35ZM207.17,53.92l4.53-13.15h1.78l4.53,13.15h-1.4l-4.3-12.4h.53l-4.27,12.4h-1.4ZM209.19,50.73v-1.26h6.79v1.26h-6.79ZM219.83,53.92v-13.15h1.34v11.86h6.25v1.29h-7.59ZM229.14,53.92v-13.15h1.34v11.86h6.25v1.29h-7.59ZM241.41,53.92v-5.51l-4.41-7.64h1.55l3.53,6.11,3.52-6.11h1.55l-4.39,7.64v5.51h-1.35ZM248.69,53.92v-1.56h1.56v1.56h-1.56Z"/><path class="cls-6" d="M40.15,25.43c-5.75,0-10.42,4.68-10.42,10.42s4.68,10.42,10.42,10.42,10.42-4.68,10.42-10.42-4.68-10.42-10.42-10.42M39.9,35.6h-5.03c.03-1.92.34-3.74.91-5.3,1.34.33,2.72.5,4.11.52v4.78ZM39.9,36.11v4.78c-1.39.02-2.77.2-4.11.52-.57-1.56-.88-3.38-.91-5.3h5.03ZM40.41,36.11h5.02c-.03,1.92-.34,3.74-.91,5.3-1.34-.33-2.72-.5-4.11-.52v-4.78ZM40.41,35.6v-4.78c1.39-.02,2.77-.19,4.11-.52.57,1.56.89,3.38.91,5.3h-5.02ZM40.41,30.31v-4.35c1.29.12,2.5,1.11,3.43,2.83.18.32.34.67.49,1.03-1.28.31-2.6.47-3.93.49M39.9,30.31c-1.33-.02-2.64-.18-3.92-.49.15-.36.31-.7.49-1.03.94-1.72,2.15-2.72,3.44-2.83v4.35ZM34.36,35.6h-4.11c.06-2.43,1-4.64,2.51-6.33.82.36,1.66.66,2.53.9-.58,1.6-.9,3.47-.93,5.43M34.36,36.11c.03,1.96.35,3.82.93,5.43-.86.24-1.71.54-2.53.9-1.51-1.69-2.45-3.9-2.51-6.33h4.11ZM39.9,41.4v4.35c-1.29-.12-2.5-1.11-3.44-2.83-.18-.32-.34-.67-.49-1.03,1.28-.31,2.6-.47,3.92-.49M40.41,41.4c1.33.02,2.64.18,3.93.49-.15.36-.31.71-.49,1.03-.94,1.72-2.15,2.71-3.43,2.83v-4.35ZM45.95,36.11h4.11c-.06,2.43-1,4.64-2.51,6.33-.81-.36-1.66-.66-2.53-.9.58-1.61.9-3.47.93-5.43M45.95,35.6c-.03-1.96-.35-3.82-.93-5.43.87-.24,1.71-.54,2.53-.9,1.51,1.69,2.45,3.9,2.51,6.33h-4.11ZM47.18,28.87c-.76.33-1.54.6-2.34.82-.16-.4-.34-.78-.54-1.15-.56-1.03-1.23-1.83-1.95-2.35,1.86.42,3.53,1.37,4.84,2.68M37.96,26.19c-.73.53-1.39,1.32-1.95,2.35-.2.36-.38.74-.54,1.15-.8-.22-1.58-.49-2.34-.82,1.3-1.31,2.97-2.26,4.83-2.68M33.13,42.84c.76-.33,1.54-.6,2.34-.82.16.4.34.78.54,1.15.56,1.03,1.23,1.83,1.95,2.35-1.86-.42-3.53-1.37-4.83-2.68M42.34,45.52c.73-.53,1.39-1.32,1.95-2.35.2-.36.38-.74.54-1.15.8.22,1.59.49,2.34.82-1.3,1.31-2.97,2.26-4.84,2.68"/></g></svg>