<?xml version="1.0" encoding="UTF-8"?><svg id="Layer_2" xmlns="http://www.w3.org/2000/svg" viewBox="0 0 211.3 67.31"><defs><style>.cls-1,.cls-2{stroke:#103828;}.cls-1,.cls-2,.cls-3{fill:none;stroke-miterlimit:10;}.cls-4{font-family:Manrope-ExtraLight, Manrope;font-size:13.73px;font-variation-settings:'wght' 200;font-weight:200;}.cls-5{fill:#e7ffd9;}.cls-2{stroke-linecap:round;}.cls-6{fill:#ca8dff;}.cls-3{stroke:#000;}</style></defs><g id="Layer_1-2"><path class="cls-5" d="M198.99,66.81H12.31c-6.52,0-11.81-5.29-11.81-11.8V12.31C.5,5.79,5.79.5,12.31.5h186.68c6.52,0,11.81,5.29,11.81,11.81v42.7c0,6.52-5.29,11.8-11.81,11.8"/><path class="cls-1" d="M12.3.5h186.69c6.52,0,11.81,5.29,11.81,11.81v42.69c0,6.52-5.29,11.81-11.81,11.81H12.31c-6.52,0-11.81-5.29-11.81-11.81V12.3C.5,5.79,5.79.5,12.3.5Z"/><path class="cls-6" d="M50.46,33.69c0,9.82-7.96,17.79-17.79,17.79s-17.79-7.96-17.79-17.79,7.96-17.79,17.79-17.79,17.79,7.96,17.79,17.79"/><path class="cls-3" d="M50.46,33.69c0,9.82-7.96,17.79-17.79,17.79s-17.79-7.96-17.79-17.79,7.96-17.79,17.79-17.79,17.79,7.96,17.79,17.79Z"/><text class="cls-4" transform="translate(64.09 31.59)"><tspan x="0" y="0">DOWNLOAD THE </tspan></text><text class="cls-4" transform="translate(64.09 48.07)"><tspan x="0" y="0">EXHIBITORS MANUAL</tspan></text><path class="cls-2" d="M39.53,35.25c-1.56.81-3.53.54-4.8-.79-1.54-1.62-1.48-4.18.13-5.73,1.62-1.54,4.18-1.49,5.72.13,1.27,1.33,1.46,3.31.57,4.83"/><path class="cls-2" d="M39.46,33.55c-1.03.98-2.66.94-3.64-.08-.98-1.03-.94-2.66.08-3.64,1.03-.98,2.66-.94,3.64.08.98,1.03.94,2.66-.08,3.64Z"/><path class="cls-2" d="M41.16,33.69l3.26,3.41c.43.45.41,1.16-.04,1.59-.45.43-1.16.41-1.59-.04l-3.26-3.41"/><path class="cls-2" d="M24.61,25.97c0-.87.7-1.57,1.57-1.57h11.48v1.71"/><path class="cls-2" d="M24.62,39.75c0-.87.7-1.57,1.57-1.57h11.48"/><line class="cls-2" x1="32.66" y1="41.32" x2="37.68" y2="41.32"/><path class="cls-2" d="M24.62,39.75c0,.87.7,1.57,1.57,1.57h3.37"/><line class="cls-2" x1="24.62" y1="39.75" x2="24.61" y2="25.97"/><line class="cls-2" x1="37.66" y1="37.17" x2="37.67" y2="38.17"/><path class="cls-2" d="M36.68,38.17s-.55,1.37.06,3.15"/><line class="cls-2" x1="26.89" y1="26.04" x2="26.89" y2="36.2"/><polyline class="cls-2" points="29.57 40.16 29.57 42.99 31.15 42.12 32.66 42.99 32.66 40.16"/></g></svg>