<?xml version="1.0" encoding="UTF-8"?><svg id="Layer_2" xmlns="http://www.w3.org/2000/svg" viewBox="0 0 157.29 67.31"><defs><style>.cls-1{fill:none;stroke:#103828;stroke-miterlimit:10;}.cls-2{font-family:Manrope-ExtraLight, Manrope;font-size:13.73px;font-variation-settings:'wght' 200;font-weight:200;}.cls-3{fill:#e7ffd9;}.cls-4{fill:#00d4f0;}.cls-5{letter-spacing:-.02em;}.cls-6{letter-spacing:-.02em;}.cls-7{fill:#353535;}</style></defs><g id="Layer_1-2"><path class="cls-3" d="M144.99,66.81H12.3c-6.52,0-11.8-5.29-11.8-11.81V12.31C.5,5.79,5.79.5,12.3.5h132.68c6.52,0,11.8,5.29,11.8,11.81v42.69c0,6.52-5.29,11.81-11.8,11.81"/><rect class="cls-1" x=".5" y=".5" width="156.29" height="66.31" rx="11.8" ry="11.8"/><text class="cls-2" transform="translate(66.5 31.59)"><tspan class="cls-6" x="0" y="0">I WANT </tspan><tspan x="44.58" y="0">T</tspan></text><text class="cls-2" transform="translate(118.83 31.59)"><tspan x="0" y="0">O</tspan></text><text class="cls-2" transform="translate(66.5 45.85)"><tspan class="cls-6" x="0" y="0">E</tspan><tspan x="7.44" y="0">X</tspan></text><text class="cls-2" transform="translate(81.57 45.85)"><tspan class="cls-5" x="0" y="0">H</tspan><tspan x="8.82" y="0">I</tspan></text><text class="cls-2" transform="translate(92.88 45.85)"><tspan x="0" y="0">B</tspan></text><text class="cls-2" transform="translate(100.89 45.85)"><tspan class="cls-6" x="0" y="0">I</tspan><tspan x="2.53" y="0">T</tspan></text><text class="cls-2" transform="translate(111.25 45.85)"><tspan x="0" y="0"> </tspan></text><path class="cls-4" d="M53.01,33.69c0,9.82-7.96,17.79-17.79,17.79s-17.79-7.96-17.79-17.79,7.96-17.79,17.79-17.79,17.79,7.96,17.79,17.79"/><path class="cls-1" d="M53.01,33.69c0,9.82-7.96,17.79-17.79,17.79s-17.79-7.96-17.79-17.79,7.96-17.79,17.79-17.79,17.79,7.96,17.79,17.79Z"/><path class="cls-7" d="M35.23,23.27c-5.75,0-10.42,4.67-10.42,10.42s4.68,10.42,10.42,10.42,10.42-4.67,10.42-10.42-4.68-10.42-10.42-10.42M34.97,33.43h-5.02c.03-1.92.34-3.74.91-5.3,1.34.33,2.72.5,4.11.52v4.77ZM34.97,33.94v4.78c-1.39.02-2.77.19-4.11.52-.57-1.56-.88-3.38-.91-5.3h5.02ZM35.49,33.94h5.02c-.02,1.92-.34,3.74-.91,5.3-1.34-.33-2.72-.5-4.11-.52v-4.78ZM35.49,33.43v-4.77c1.39-.02,2.77-.2,4.11-.52.57,1.56.89,3.38.91,5.3h-5.02ZM35.49,28.14v-4.35c1.29.12,2.5,1.11,3.43,2.83.18.33.34.67.49,1.03-1.28.31-2.6.47-3.92.49M34.97,28.14c-1.33-.02-2.64-.18-3.92-.49.15-.36.31-.7.49-1.03.94-1.72,2.15-2.71,3.44-2.83v4.35ZM29.43,33.43h-4.11c.06-2.42,1-4.64,2.51-6.33.82.36,1.66.66,2.53.9-.58,1.6-.9,3.47-.93,5.43M29.43,33.94c.03,1.96.35,3.82.93,5.43-.86.24-1.71.54-2.53.9-1.51-1.69-2.45-3.9-2.51-6.33h4.11ZM34.97,39.23v4.35c-1.29-.12-2.5-1.11-3.44-2.83-.18-.32-.34-.67-.49-1.03,1.28-.31,2.6-.47,3.92-.49M35.49,39.23c1.33.02,2.64.18,3.92.49-.15.36-.31.71-.49,1.03-.94,1.72-2.15,2.72-3.43,2.83v-4.35ZM41.02,33.94h4.11c-.06,2.43-1,4.64-2.51,6.33-.82-.36-1.66-.66-2.53-.9.58-1.6.9-3.47.92-5.43M41.02,33.43c-.02-1.96-.35-3.82-.92-5.43.86-.24,1.71-.54,2.53-.9,1.51,1.69,2.45,3.9,2.51,6.33h-4.11ZM42.25,26.71c-.76.33-1.54.6-2.34.81-.16-.4-.34-.79-.54-1.15-.56-1.03-1.23-1.83-1.95-2.35,1.86.42,3.53,1.37,4.83,2.68M33.04,24.02c-.73.53-1.39,1.32-1.95,2.35-.2.36-.38.74-.54,1.15-.8-.22-1.58-.49-2.34-.81,1.3-1.31,2.97-2.26,4.83-2.68M28.2,40.67c.76-.32,1.54-.6,2.34-.82.16.4.34.78.54,1.15.56,1.03,1.23,1.83,1.95,2.35-1.87-.42-3.53-1.37-4.83-2.68M37.42,43.35c.73-.53,1.39-1.32,1.95-2.35.2-.36.38-.75.54-1.15.8.22,1.58.49,2.34.82-1.3,1.31-2.97,2.26-4.83,2.68"/></g></svg>