<?xml version="1.0" encoding="UTF-8"?><svg id="Layer_2" xmlns="http://www.w3.org/2000/svg" viewBox="0 0 242.9 73.11"><defs><style>.cls-1{stroke:#103828;}.cls-1,.cls-2{fill:none;stroke-miterlimit:10;}.cls-3{fill:#84ec5a;}.cls-4{font-family:Manrope-ExtraLight, Manrope;font-size:18.26px;font-variation-settings:'wght' 200;font-weight:200;}.cls-5{fill:#103828;}.cls-6{fill:#ca8dff;}.cls-2{stroke:#000;}</style></defs><g id="Layer_1-2"><path class="cls-3" d="M229.86.5H13.05C6.12.5.5,6.12.5,13.05v47.02c0,6.93,5.62,12.55,12.55,12.55h216.81c6.93,0,12.55-5.62,12.55-12.55V13.05c0-6.93-5.62-12.55-12.55-12.55"/><path class="cls-1" d="M13.05.5h216.81c6.92,0,12.55,5.62,12.55,12.55v47.02c0,6.92-5.62,12.55-12.55,12.55H13.05c-6.92,0-12.55-5.62-12.55-12.55V13.05C.5,6.12,6.12.5,13.05.5Z"/><path class="cls-6" d="M61.64,36.19c0,11.86-9.62,21.48-21.48,21.48s-21.48-9.62-21.48-21.48,9.62-21.48,21.48-21.48,21.48,9.62,21.48,21.48"/><circle class="cls-2" cx="40.15" cy="36.19" r="21.48"/><text class="cls-4" transform="translate(77.46 33.06)"><tspan x="0" y="0">BUILD VISIBILITY </tspan></text><text class="cls-4" transform="translate(77.46 53.92)"><tspan x="0" y="0">THAT LASTS.</tspan></text><path class="cls-5" d="M40.54,28.74c5.43.14,10.49,2.95,13.48,7.47-2.99,4.52-8.05,7.34-13.49,7.47,3.94-.21,7.08-3.48,7.08-7.47s-3.13-7.26-7.07-7.47M39.71,28.74c-3.93.22-7.07,3.48-7.07,7.47s3.14,7.26,7.08,7.47c-5.44-.13-10.5-2.95-13.49-7.47,2.99-4.52,8.04-7.34,13.48-7.47M40.56,27.99l-.06,1.5c3.57.19,6.36,3.15,6.36,6.72s-2.8,6.53-6.37,6.72l.06,1.5c5.69-.14,10.96-3.06,14.1-7.81l.27-.41-.27-.41c-3.14-4.75-8.4-7.67-14.09-7.81M39.69,27.99c-5.68.14-10.95,3.06-14.09,7.81l-.27.41.27.41c3.14,4.75,8.41,7.67,14.1,7.81l.06-1.5c-3.57-.19-6.37-3.14-6.37-6.72s2.79-6.53,6.36-6.72l-.06-1.5Z"/><path class="cls-5" d="M40.53,43.68c-.13,0-.27.01-.4.01s-.27,0-.4-.01c.13,0,.27,0,.4,0s.27,0,.4,0M40.51,42.93c-.13,0-.26,0-.38,0s-.26,0-.38,0l-.06,1.5c.15,0,.29.01.44.01s.29,0,.44-.01l-.06-1.5Z"/><path class="cls-5" d="M40.13,28.72c.14,0,.28,0,.42.01-.14,0-.28,0-.42,0s-.28,0-.42,0c.14,0,.28-.01.42-.01M40.13,27.97c-.15,0-.3,0-.46.01l.06,1.5c.13,0,.26,0,.4,0s.26,0,.4,0l.06-1.5c-.15,0-.3-.01-.46-.01"/><path class="cls-5" d="M40.13,32.44c2.08,0,3.77,1.69,3.77,3.77s-1.69,3.77-3.77,3.77-3.77-1.69-3.77-3.77,1.69-3.77,3.77-3.77M40.13,31.69c-2.49,0-4.52,2.03-4.52,4.52s2.03,4.52,4.52,4.52,4.52-2.03,4.52-4.52-2.03-4.52-4.52-4.52"/></g></svg>