<?xml version="1.0" encoding="UTF-8"?><svg id="Layer_2" xmlns="http://www.w3.org/2000/svg" viewBox="0 0 157.29 67.31"><defs><style>.cls-1{stroke-width:1.1px;}.cls-1,.cls-2,.cls-3{fill:none;stroke:#103828;stroke-miterlimit:10;}.cls-4{font-family:Manrope-ExtraLight, Manrope;font-size:13.73px;font-variation-settings:'wght' 200;font-weight:200;}.cls-5{fill:#e7ffd9;}.cls-3{stroke-linecap:round;}</style></defs><g id="Layer_1-2"><path class="cls-5" d="M144.99,66.81H12.3c-6.52,0-11.8-5.29-11.8-11.81V12.31C.5,5.79,5.79.5,12.3.5h132.68c6.52,0,11.8,5.29,11.8,11.81v42.69c0,6.52-5.28,11.81-11.8,11.81"/><rect class="cls-2" x=".5" y=".5" width="156.29" height="66.31" rx="11.81" ry="11.81"/><path class="cls-1" d="M50.46,33.69c0,9.82-7.96,17.79-17.79,17.79s-17.79-7.96-17.79-17.79,7.96-17.79,17.79-17.79,17.79,7.96,17.79,17.79Z"/><text class="cls-4" transform="translate(63.09 31.59)"><tspan x="0" y="0">I </tspan></text><text class="cls-4" transform="translate(69.04 31.59)"><tspan x="0" y="0">W</tspan></text><text class="cls-4" transform="translate(80.97 31.59)"><tspan x="0" y="0">A</tspan></text><text class="cls-4" transform="translate(89.4 31.59)"><tspan x="0" y="0">N</tspan></text><text class="cls-4" transform="translate(98.62 31.59)"><tspan x="0" y="0">T </tspan></text><text class="cls-4" transform="translate(109.55 31.59)"><tspan x="0" y="0">T</tspan></text><text class="cls-4" transform="translate(117.33 31.59)"><tspan x="0" y="0">O</tspan></text><text class="cls-4" transform="translate(63.09 45.85)"><tspan x="0" y="0">A</tspan></text><text class="cls-4" transform="translate(70.55 45.85)"><tspan x="0" y="0">T</tspan></text><text class="cls-4" transform="translate(78.95 45.85)"><tspan x="0" y="0">T</tspan></text><text class="cls-4" transform="translate(86.96 45.85)"><tspan x="0" y="0">E</tspan></text><text class="cls-4" transform="translate(94.35 45.85)"><tspan x="0" y="0">N</tspan></text><text class="cls-4" transform="translate(103.56 45.85)"><tspan x="0" y="0">D </tspan></text><path class="cls-3" d="M32.67,26.25c1.25,0,2.31-.79,2.71-1.91h2.46c.44,0,.8.36.8.8v18.2c0,.44-.36.8-.8.8h-2.46c-.4-1.12-1.46-1.91-2.71-1.91s-2.31.79-2.71,1.91h-2.46c-.44,0-.8-.36-.8-.8v-18.2c0-.44.36-.8.8-.8h2.46c.4,1.12,1.46,1.91,2.71,1.91Z"/><line class="cls-3" x1="28.75" y1="28.4" x2="37.04" y2="28.4"/><line class="cls-3" x1="28.75" y1="39.99" x2="37.04" y2="39.99"/><circle class="cls-3" cx="32.9" cy="34.19" r="2.6"/></g></svg>