<?xml version="1.0" encoding="UTF-8"?><svg id="Layer_2" xmlns="http://www.w3.org/2000/svg" viewBox="0 0 233.76 233.76"><defs><style>.cls-1{fill:#74be57;}.cls-2{fill:#1c2a22;}.cls-3{fill:none;stroke:#142114;stroke-linecap:round;stroke-linejoin:round;stroke-width:1.38px;}.cls-4{fill:#f2ede8;}</style></defs><g id="Layer_1-2"><path class="cls-1" d="M231.65,94.93c12.12,63.39-29.43,124.6-92.82,136.73-63.39,12.12-124.61-29.44-136.73-92.82C-10.02,75.44,31.54,14.23,94.93,2.1c63.39-12.12,124.6,29.44,136.73,92.83"/><path class="cls-4" d="M47.93,52.97c.73-.79,1.52-1.36,2.36-1.69.84-.34,1.73-.45,2.67-.34.94.11,1.91.44,2.93,1,1.02.56,2.07,1.34,3.15,2.34l-3.12,3.37c-.64-.6-1.22-1.08-1.74-1.46-.51-.38-.97-.64-1.38-.8s-.76-.21-1.07-.17c-.3.05-.57.2-.81.45-.18.19-.3.41-.36.64-.06.23-.07.47-.02.72.05.25.15.5.31.75.16.26.37.51.64.76.4.37.82.64,1.25.81.44.17.88.28,1.32.33.44.05.87.05,1.29,0,.42-.04.81-.09,1.18-.15l1.03-.16c.46-.07.94-.14,1.44-.21.5-.07,1.01-.11,1.53-.13.53-.02,1.06,0,1.6.05.54.05,1.09.16,1.63.33.55.17,1.09.41,1.64.71.55.31,1.09.71,1.62,1.2.75.7,1.33,1.44,1.72,2.22.39.78.61,1.58.63,2.39.03.81-.13,1.63-.47,2.44-.34.82-.86,1.61-1.57,2.37-1.56,1.69-3.3,2.43-5.22,2.23s-4.01-1.35-6.28-3.45l3.12-3.37c1.31,1.21,2.4,1.98,3.26,2.29.87.31,1.56.19,2.08-.37.2-.22.34-.46.42-.73.08-.27.09-.54.05-.82-.04-.28-.15-.56-.32-.85-.17-.29-.39-.56-.68-.83-.39-.36-.81-.63-1.26-.8-.45-.17-.91-.28-1.39-.33-.48-.05-.97-.06-1.46-.01-.5.04-.98.09-1.46.15l-1.04.14c-.4.05-.83.11-1.29.16-.46.05-.93.09-1.43.1-.49,0-1-.02-1.52-.07s-1.04-.17-1.56-.33c-.53-.16-1.05-.39-1.57-.68-.52-.29-1.03-.67-1.53-1.13-.71-.66-1.26-1.37-1.63-2.13-.37-.76-.58-1.54-.6-2.33-.03-.79.11-1.58.42-2.37.31-.79.8-1.54,1.46-2.25Z"/><path class="cls-4" d="M56.54,45.13l4.03-2.9,10.58,14.7c.35.49.69.88,1.01,1.18.33.3.64.51.94.63.3.12.61.15.91.09.3-.06.6-.19.9-.41s.52-.45.67-.72c.15-.26.21-.56.19-.89-.02-.33-.11-.69-.29-1.1-.18-.4-.45-.85-.8-1.34l-10.58-14.7,4.03-2.9,10.82,15.05c.67.94,1.14,1.87,1.4,2.8.26.93.32,1.83.18,2.69-.14.86-.47,1.69-.99,2.46-.52.78-1.23,1.49-2.12,2.13-.89.64-1.79,1.09-2.69,1.34-.9.25-1.79.3-2.65.16-.87-.14-1.7-.48-2.5-1.02-.8-.54-1.54-1.28-2.21-2.22l-10.82-15.05Z"/><path class="cls-4" d="M82.46,43.72c.63,1.46,1.22,2.68,1.78,3.69.55,1,1.08,1.8,1.58,2.39.5.59.97.98,1.42,1.16.45.19.88.19,1.29.02.38-.17.66-.44.83-.84.17-.39.24-.91.2-1.55-.04-.64-.18-1.41-.43-2.32-.25-.9-.61-1.95-1.08-3.13l4.38-1.9c.71,1.81,1.18,3.45,1.41,4.93.23,1.47.24,2.77.03,3.89-.2,1.12-.61,2.07-1.22,2.84-.61.77-1.39,1.37-2.35,1.78-1.17.51-2.32.69-3.45.56-1.13-.14-2.23-.58-3.28-1.34-1.06-.76-2.07-1.82-3.05-3.18-.97-1.36-1.88-3.02-2.73-4.98-.85-1.95-1.43-3.75-1.77-5.39-.33-1.64-.41-3.11-.24-4.4.17-1.29.6-2.39,1.27-3.31.67-.92,1.6-1.63,2.77-2.14.96-.42,1.93-.58,2.91-.5.98.08,1.95.44,2.91,1.06.96.62,1.9,1.52,2.82,2.69.92,1.17,1.79,2.64,2.63,4.4l-4.38,1.9c-.55-1.15-1.06-2.13-1.55-2.93-.49-.8-.95-1.44-1.39-1.9-.44-.47-.87-.77-1.27-.92-.4-.14-.79-.13-1.18.03-.41.18-.7.49-.87.95-.17.45-.21,1.06-.12,1.83.09.77.31,1.69.66,2.78.35,1.09.84,2.36,1.47,3.82Z"/><path class="cls-4" d="M98.55,38.18c.32,1.55.66,2.88,1,3.97.34,1.09.7,1.98,1.06,2.66.37.68.75,1.15,1.15,1.43s.82.37,1.25.28c.41-.08.73-.3.98-.65.25-.35.42-.84.51-1.48s.11-1.42.04-2.36c-.06-.94-.2-2.03-.42-3.29l4.67-.97c.33,1.92.46,3.62.38,5.11-.08,1.49-.33,2.76-.75,3.82-.43,1.06-1.02,1.91-1.77,2.54-.75.64-1.64,1.06-2.66,1.27-1.25.26-2.41.21-3.49-.15-1.08-.36-2.06-1.02-2.95-1.98-.89-.95-1.67-2.2-2.34-3.73-.68-1.53-1.23-3.34-1.67-5.43-.43-2.08-.65-3.96-.64-5.64,0-1.68.23-3.13.66-4.36.43-1.23,1.07-2.22,1.91-2.99.85-.76,1.89-1.27,3.14-1.53,1.02-.21,2.01-.18,2.95.1.94.28,1.82.82,2.63,1.62.81.8,1.55,1.87,2.22,3.21.66,1.33,1.23,2.95,1.69,4.84l-4.67.97c-.3-1.24-.61-2.3-.93-3.18-.31-.88-.64-1.6-.98-2.14-.34-.55-.69-.93-1.06-1.15-.37-.22-.75-.29-1.16-.21-.44.09-.79.34-1.04.75-.26.41-.42,1-.49,1.77-.07.77-.04,1.72.08,2.86.12,1.14.35,2.49.67,4.04Z"/><path class="cls-4" d="M121.04,23.29l.04,4.11-5.19.05.07,6.38,4.6-.05.04,4-4.6.05.07,6.69,5.33-.06.04,4.11-10.29.11-.27-25.29,10.16-.11Z"/><path class="cls-4" d="M131.58,24.03c1.07.17,1.97.51,2.72,1.02.75.51,1.34,1.19,1.77,2.03.43.84.69,1.83.8,2.99s.04,2.46-.19,3.92l-4.54-.72c.14-.87.22-1.62.25-2.25.03-.63,0-1.16-.1-1.59-.09-.42-.25-.75-.45-.98-.21-.23-.48-.37-.82-.42-.26-.04-.51-.02-.74.05-.23.08-.43.21-.61.38-.18.18-.33.41-.45.68-.12.28-.22.59-.27.96-.08.54-.08,1.03.02,1.49.1.46.25.89.46,1.28s.44.75.71,1.08c.27.33.53.63.78.9l.71.77c.32.34.64.7.98,1.08s.65.78.96,1.2c.31.42.59.88.85,1.36.26.48.47.99.63,1.54s.27,1.14.32,1.76c.05.63.02,1.3-.09,2.01-.16,1.01-.46,1.9-.89,2.67-.43.76-.98,1.38-1.63,1.86s-1.42.8-2.29.97c-.87.17-1.82.18-2.85.01-2.27-.36-3.85-1.39-4.76-3.1-.9-1.7-1.11-4.08-.63-7.14l4.54.72c-.28,1.76-.31,3.09-.08,3.98.22.89.71,1.4,1.46,1.52.3.05.58.03.84-.05s.5-.22.71-.42.38-.44.53-.74c.14-.3.25-.64.31-1.03.08-.52.07-1.02-.04-1.49-.11-.47-.28-.92-.5-1.34-.22-.43-.49-.83-.8-1.22-.31-.39-.62-.77-.94-1.13l-.69-.79c-.27-.3-.55-.63-.85-.98-.3-.35-.59-.73-.87-1.13s-.54-.84-.78-1.3c-.24-.46-.44-.96-.6-1.48-.16-.53-.26-1.09-.31-1.68-.05-.6-.02-1.23.09-1.9.15-.96.44-1.81.86-2.54.42-.73.96-1.33,1.6-1.8.64-.46,1.38-.79,2.21-.97.83-.18,1.72-.19,2.68-.04Z"/><path class="cls-4" d="M149.01,28.43c1.01.37,1.84.88,2.48,1.52.64.65,1.09,1.42,1.35,2.33.26.9.33,1.93.21,3.09-.12,1.16-.43,2.42-.94,3.81l-4.32-1.57c.3-.83.52-1.55.67-2.17.15-.62.21-1.14.2-1.58-.01-.43-.1-.78-.26-1.04-.16-.26-.4-.45-.73-.57-.25-.09-.49-.12-.73-.09-.24.03-.46.12-.67.26-.21.14-.4.33-.57.58-.17.25-.32.54-.45.89-.19.51-.27,1-.26,1.47.01.47.08.92.2,1.35.13.42.29.82.5,1.2.2.37.4.72.59,1.03l.55.89c.25.4.5.81.76,1.24.26.43.5.89.72,1.36.22.48.41.97.58,1.49s.27,1.06.33,1.63c.06.57.05,1.17-.02,1.79s-.23,1.28-.48,1.96c-.35.96-.81,1.78-1.38,2.45-.57.67-1.22,1.17-1.96,1.51-.74.34-1.55.51-2.43.52-.88,0-1.82-.17-2.79-.53-2.16-.79-3.52-2.1-4.08-3.94-.56-1.84-.31-4.22.74-7.13l4.32,1.57c-.61,1.68-.89,2.98-.84,3.9.05.92.43,1.51,1.15,1.77.28.1.56.14.84.11.28-.03.53-.12.77-.27s.46-.36.66-.63c.2-.27.36-.58.5-.95.18-.5.26-.99.25-1.47s-.1-.95-.24-1.41-.32-.91-.55-1.35c-.23-.44-.47-.87-.71-1.29l-.53-.91c-.21-.35-.42-.73-.65-1.12-.23-.4-.44-.83-.64-1.28-.2-.45-.38-.93-.52-1.43s-.25-1.02-.3-1.57c-.06-.55-.05-1.12.01-1.71.07-.59.22-1.21.45-1.85.33-.91.78-1.69,1.33-2.33.56-.64,1.19-1.12,1.91-1.46s1.5-.51,2.35-.53c.85-.02,1.73.14,2.64.47Z"/><path class="cls-2" d="M158.39,47.09c1.25-1.7,2.49-3.1,3.74-4.21s2.48-1.92,3.68-2.43c1.2-.51,2.37-.71,3.5-.6s2.2.53,3.21,1.27c1.01.74,1.73,1.63,2.17,2.68.44,1.05.6,2.22.48,3.52-.12,1.3-.53,2.71-1.21,4.24-.69,1.53-1.65,3.14-2.9,4.83-1.25,1.7-2.49,3.1-3.74,4.21s-2.48,1.92-3.68,2.43c-1.2.51-2.37.71-3.5.6-1.13-.11-2.2-.53-3.21-1.27-1.01-.74-1.73-1.63-2.17-2.68-.44-1.05-.6-2.22-.48-3.52s.53-2.71,1.21-4.24c.69-1.53,1.65-3.14,2.9-4.83ZM162.51,50.11c-.94,1.28-1.7,2.41-2.28,3.4-.58.99-1,1.85-1.25,2.58-.25.73-.34,1.34-.27,1.82.07.49.29.87.67,1.14.37.27.8.37,1.29.29.49-.08,1.04-.35,1.66-.8.62-.46,1.31-1.11,2.08-1.97.77-.85,1.62-1.92,2.56-3.2.94-1.28,1.7-2.41,2.28-3.4.58-.99,1-1.85,1.25-2.58.25-.73.34-1.34.27-1.83-.07-.49-.29-.87-.66-1.14-.38-.28-.81-.37-1.29-.29-.49.08-1.04.35-1.66.81s-1.32,1.11-2.08,1.97c-.77.85-1.62,1.92-2.56,3.2Z"/><path class="cls-2" d="M173.16,77.6l-4.32-4.94,7.75-10.35,5.5-6.97-.06-.07-6.01,6.38-9.41,8.45-3.15-3.6,19.04-16.65,4.38,5.02-6.96,9.26-5.99,7.63.07.08,6.66-6.86,8.39-7.63,3.15,3.6-19.04,16.65Z"/><path class="cls-2" d="M197.58,69.6l-18.25,10.75,2.46,4.18-3.54,2.09-4.98-8.46,21.79-12.83,2.52,4.28Z"/><path class="cls-2" d="M206.3,88.59l-18.88,2.08-6.51,2.66-1.88-4.59,6.43-2.63,15-11.78,2.01,4.9-7.71,4.87-4.95,2.95.04.08,5.58-1.33,8.95-1.89,1.92,4.69Z"/><path class="cls-2" d="M210.31,106.09c.12,1.07.04,2.04-.25,2.9-.29.86-.78,1.61-1.47,2.25-.69.64-1.58,1.16-2.67,1.57-1.09.41-2.36.7-3.83.87l-.53-4.57c.87-.1,1.62-.22,2.24-.37.62-.14,1.12-.32,1.5-.53.38-.2.66-.44.82-.7.16-.26.22-.56.18-.9-.03-.26-.11-.49-.25-.69s-.31-.36-.53-.48c-.22-.12-.48-.21-.78-.25-.3-.04-.63-.05-.99,0-.54.06-1.02.2-1.43.42-.42.22-.79.48-1.11.79-.32.3-.61.63-.85.98-.24.35-.46.68-.66.99l-.55.89c-.24.4-.5.81-.77,1.23s-.57.84-.9,1.25c-.33.41-.69.81-1.08,1.19-.39.38-.83.72-1.31,1.03-.48.31-1.02.57-1.61.78-.59.22-1.24.37-1.96.45-1.02.12-1.96.07-2.81-.14-.85-.21-1.6-.57-2.23-1.07-.63-.51-1.15-1.15-1.55-1.94-.4-.79-.66-1.7-.78-2.74-.26-2.28.3-4.09,1.7-5.42,1.4-1.33,3.63-2.17,6.71-2.53l.53,4.57c-1.77.21-3.06.54-3.86.99-.8.46-1.15,1.06-1.07,1.82.04.3.13.56.28.8.15.23.35.42.59.57.24.15.53.25.85.31.33.06.68.06,1.07.02.53-.06,1-.21,1.42-.44.42-.23.81-.51,1.16-.84.35-.33.67-.7.96-1.1.29-.4.57-.81.84-1.21l.57-.88c.22-.34.46-.7.72-1.08.26-.38.54-.76.86-1.15s.66-.75,1.04-1.11c.38-.36.8-.68,1.27-.97.46-.29.98-.55,1.54-.75.56-.21,1.18-.35,1.85-.43.97-.11,1.86-.06,2.68.15.82.21,1.54.56,2.16,1.05.62.49,1.13,1.11,1.53,1.86.4.75.65,1.61.76,2.58Z"/><path class="cls-2" d="M184.18,129.96l.43-4.94,10.67.93.38-4.32-10.67-.93.43-4.94,25.2,2.2-.43,4.94-10.35-.9-.37,4.32,10.34.9-.43,4.94-25.2-2.2Z"/><path class="cls-2" d="M196.33,133.65c2.01.63,3.74,1.36,5.19,2.19,1.46.83,2.62,1.73,3.48,2.7.87.98,1.43,2.02,1.7,3.12s.21,2.25-.17,3.44-.99,2.17-1.84,2.92-1.91,1.28-3.18,1.58c-1.27.3-2.74.38-4.4.21-1.67-.16-3.5-.55-5.51-1.19s-3.74-1.36-5.19-2.19c-1.46-.82-2.62-1.73-3.48-2.7-.87-.98-1.43-2.02-1.69-3.12-.26-1.1-.21-2.25.17-3.45s.99-2.17,1.84-2.92c.85-.75,1.91-1.28,3.18-1.58,1.27-.3,2.74-.37,4.4-.21,1.67.16,3.5.56,5.51,1.19ZM194.8,138.52c-1.51-.48-2.83-.83-3.95-1.07-1.12-.24-2.07-.35-2.84-.36-.77,0-1.38.11-1.81.33-.44.22-.73.55-.87,1-.14.44-.09.88.14,1.31.23.43.66.87,1.3,1.31.63.44,1.48.89,2.53,1.34,1.05.45,2.34.92,3.85,1.39,1.51.48,2.83.83,3.95,1.07,1.12.24,2.07.36,2.84.36.77,0,1.38-.11,1.82-.33.44-.23.73-.56.87-.99.14-.44.09-.88-.14-1.31-.23-.43-.66-.87-1.3-1.31-.63-.44-1.48-.89-2.53-1.34-1.05-.45-2.34-.92-3.85-1.39Z"/><path class="cls-2" d="M193.74,170.23l-14.58-7.9-5.08-2.85-.05.08,4.69,3.46,13.15,10.14-2.57,4.02-19.72-16.11,3.92-6.12,14.62,7.86,4.41,2.51.05-.08-4.12-2.96-13.26-9.99,3.92-6.12,22.88,11.16-2.73,4.26-14.71-7.71-5.1-2.81-.05.08,4.72,3.4,13.27,9.95-3.67,5.73Z"/><path class="cls-2" d="M181.09,185.51c-.79.74-1.61,1.24-2.48,1.52-.86.28-1.76.33-2.68.15-.92-.18-1.87-.58-2.85-1.21-.98-.63-1.97-1.48-2.97-2.56l3.35-3.14c.6.64,1.14,1.17,1.63,1.58.48.41.92.71,1.32.89.39.19.74.27,1.05.24.31-.03.59-.16.84-.39.19-.18.33-.39.41-.61.08-.23.1-.47.07-.72-.03-.25-.12-.51-.26-.77-.14-.27-.34-.53-.59-.8-.37-.4-.77-.7-1.19-.9s-.86-.34-1.29-.42c-.44-.08-.87-.11-1.29-.1-.42.01-.82.04-1.19.06l-1.04.09c-.47.04-.95.08-1.45.11-.5.03-1.01.04-1.54.02-.52-.02-1.06-.07-1.59-.16-.54-.09-1.07-.24-1.61-.45-.53-.21-1.06-.48-1.59-.83-.52-.34-1.03-.78-1.53-1.31-.7-.75-1.22-1.53-1.56-2.34-.34-.81-.5-1.62-.46-2.43.03-.81.24-1.61.64-2.4.4-.79.97-1.54,1.73-2.26,1.68-1.57,3.46-2.19,5.36-1.86,1.9.33,3.91,1.63,6.02,3.89l-3.35,3.14c-1.22-1.3-2.25-2.14-3.1-2.51-.84-.37-1.54-.3-2.1.22-.22.2-.38.44-.47.7-.1.26-.13.53-.11.81.03.28.11.57.26.87.15.3.36.59.62.87.36.39.76.68,1.2.88s.89.34,1.37.43c.47.09.96.12,1.46.12.5,0,.99-.02,1.47-.05l1.05-.06c.41-.02.84-.05,1.3-.07.46-.02.93-.02,1.43,0s1,.09,1.51.18c.51.09,1.03.24,1.54.44.51.2,1.02.46,1.52.79.5.33.98.74,1.45,1.23.67.71,1.16,1.46,1.48,2.24.32.78.46,1.57.44,2.36-.03.79-.22,1.57-.59,2.33-.37.76-.91,1.48-1.62,2.15Z"/><path class="cls-2" d="M165.87,196.86l-4.42,2.26-8.26-16.12c-.27-.54-.55-.98-.83-1.32-.28-.35-.56-.6-.84-.76-.28-.16-.58-.24-.88-.23-.3.01-.62.1-.95.27-.33.17-.58.37-.77.61-.18.24-.29.52-.32.85-.03.32,0,.7.13,1.13.12.43.32.91.59,1.44l8.26,16.12-4.42,2.26-8.45-16.5c-.53-1.03-.85-2.02-.96-2.98-.12-.96-.04-1.85.22-2.69.26-.83.71-1.6,1.35-2.29.63-.69,1.44-1.28,2.42-1.78.98-.5,1.93-.81,2.86-.92.93-.11,1.81-.03,2.65.24.83.27,1.61.73,2.32,1.39s1.33,1.49,1.85,2.52l8.45,16.5Z"/><path class="cls-2" d="M147.77,205.45l-5.98,1.59c-1.2.32-2.33.42-3.39.3-1.06-.12-2.02-.43-2.87-.95-.86-.52-1.6-1.23-2.23-2.13-.63-.9-1.11-1.98-1.44-3.23-.33-1.22-.45-2.38-.37-3.45.08-1.08.35-2.05.81-2.91.46-.86,1.1-1.6,1.91-2.22s1.79-1.07,2.93-1.37l1.55-.41-2.23-8.38,4.8-1.28,6.51,24.44ZM141.92,202.75l-2.16-8.11-1.22.33c-.52.14-.95.34-1.28.59-.33.26-.58.58-.73.98-.15.4-.22.87-.2,1.41.02.54.13,1.17.32,1.89.19.71.41,1.3.65,1.78.25.48.53.85.86,1.11.32.26.69.43,1.09.48.41.06.86.02,1.37-.12l1.3-.35Z"/><path class="cls-2" d="M106.17,209.85l.06-16.58.11-5.83h-.09s-.83,5.76-.83,5.76l-2.71,16.39-4.76-.37,4.87-24.99,7.25.56v16.6s-.13,5.07-.13,5.07h.09s.66-5.02.66-5.02l2.53-16.41,7.25.56.99,25.44-5.05-.39-.17-16.61.06-5.82h-.09s-.77,5.76-.77,5.76l-2.49,16.4-6.78-.52Z"/><path class="cls-2" d="M87.44,178.83l4.68,1.66-3.58,10.09,4.09,1.45,3.58-10.09,4.68,1.66-8.46,23.83-4.68-1.66,3.48-9.79-4.09-1.44-3.47,9.78-4.68-1.66,8.46-23.83Z"/><path class="cls-2" d="M65.44,195.05l2.07-3.55,4.49,2.61,3.21-5.51-3.97-2.31,2.01-3.45,3.97,2.31,3.37-5.79-4.61-2.68,2.07-3.55,8.9,5.18-12.72,21.86-8.78-5.11Z"/><path class="cls-2" d="M66.78,163.78l4.98,4.28-6.2,11.35-4.45,7.68.07.06,5.05-7.17,8.11-9.71,3.63,3.11-16.48,19.18-5.05-4.34,5.58-10.16,4.84-8.4-.08-.07-5.61,7.73-7.22,8.74-3.62-3.11,16.48-19.18Z"/><path class="cls-2" d="M34.17,161.12l18.17-5.52,5.9-3.82,2.7,4.17-5.84,3.77-12.57,14.34-2.87-4.45,6.67-6.21,4.32-3.81-.05-.08-5.24,2.34-8.45,3.51-2.75-4.25Z"/><path class="cls-2" d="M44.46,153.82c-1.96.77-3.76,1.29-5.42,1.56-1.65.27-3.12.3-4.41.08-1.29-.22-2.38-.67-3.28-1.36-.9-.69-1.58-1.62-2.03-2.79s-.59-2.31-.4-3.43c.19-1.12.68-2.2,1.48-3.23.8-1.03,1.89-2.01,3.29-2.93,1.39-.92,3.07-1.77,5.03-2.54,1.96-.77,3.76-1.29,5.42-1.56,1.65-.27,3.12-.3,4.41-.08,1.29.21,2.38.67,3.28,1.36.9.69,1.58,1.62,2.03,2.79.46,1.16.59,2.31.4,3.43s-.68,2.2-1.48,3.23c-.8,1.03-1.89,2.01-3.29,2.93-1.4.92-3.07,1.77-5.03,2.54ZM42.6,149.07c1.48-.58,2.73-1.13,3.75-1.65,1.02-.52,1.83-1.02,2.43-1.51.6-.48,1-.95,1.21-1.4s.22-.89.05-1.32c-.17-.43-.48-.74-.93-.93s-1.06-.26-1.83-.21c-.77.05-1.71.24-2.81.55-1.1.31-2.39.75-3.87,1.33-1.48.58-2.72,1.13-3.75,1.65-1.02.52-1.83,1.02-2.43,1.51-.6.48-1,.95-1.2,1.4s-.22.89-.05,1.32c.17.43.48.75.93.94s1.06.26,1.83.2c.77-.06,1.71-.24,2.81-.55,1.1-.31,2.39-.76,3.87-1.33Z"/><path class="cls-2" d="M25.69,138.55l-.78-4.9,17.89-2.85c.59-.09,1.1-.22,1.51-.38.41-.16.74-.34.98-.56.24-.22.41-.48.49-.77.08-.29.1-.62.04-.98-.06-.36-.17-.67-.34-.92-.17-.25-.41-.44-.7-.57-.3-.13-.67-.21-1.11-.23s-.96.02-1.55.11l-17.89,2.85-.78-4.9,18.3-2.92c1.14-.18,2.18-.18,3.13,0,.95.19,1.78.54,2.49,1.05.71.51,1.3,1.18,1.75,1.99.46.82.77,1.77.95,2.85.17,1.08.17,2.08-.01,3-.18.92-.53,1.73-1.05,2.44-.52.71-1.2,1.3-2.04,1.77-.84.47-1.83.8-2.97.98l-18.3,2.92Z"/><path class="cls-2" d="M23.25,111.73l.77-5.75c.4-3,1.74-5.11,4.01-6.34s5.52-1.56,9.72-1c4.21.56,7.25,1.73,9.12,3.51,1.87,1.78,2.61,4.17,2.21,7.17l-.77,5.75-25.07-3.35ZM44.9,109.62l.13-.97c.09-.71.03-1.33-.18-1.85-.22-.52-.63-.98-1.25-1.36-.62-.38-1.46-.71-2.52-.99-1.06-.28-2.4-.52-4-.73-1.6-.21-2.95-.33-4.05-.34-1.1-.01-2,.08-2.69.29-.7.21-1.22.54-1.56.99-.35.45-.57,1.03-.66,1.74l-.13.97,16.92,2.26Z"/><path class="cls-2" d="M38.23,96.62c-1.98-.72-3.67-1.53-5.09-2.41-1.42-.89-2.54-1.84-3.36-2.85-.82-1.01-1.34-2.08-1.56-3.19-.21-1.11-.11-2.26.32-3.43.43-1.17,1.08-2.12,1.96-2.83.88-.72,1.96-1.2,3.25-1.44,1.28-.25,2.75-.25,4.41-.02,1.66.23,3.47.71,5.45,1.43,1.98.72,3.68,1.52,5.09,2.41,1.42.89,2.54,1.84,3.36,2.85.82,1.01,1.34,2.08,1.56,3.19.21,1.12.11,2.26-.32,3.43-.43,1.17-1.08,2.12-1.96,2.83-.88.72-1.96,1.2-3.25,1.44-1.28.25-2.75.25-4.41.02-1.66-.23-3.47-.71-5.45-1.43ZM39.97,91.82c1.49.54,2.79.96,3.9,1.24,1.11.28,2.05.44,2.82.48s1.38-.05,1.83-.25c.45-.2.75-.52.91-.96.16-.43.13-.87-.08-1.32-.21-.44-.62-.9-1.24-1.37-.61-.47-1.44-.95-2.47-1.45-1.03-.5-2.29-1.02-3.78-1.56s-2.79-.96-3.9-1.24c-1.11-.28-2.05-.45-2.82-.48-.77-.04-1.38.05-1.83.25-.45.21-.75.52-.91.96-.16.44-.13.88.08,1.32.21.44.62.9,1.24,1.37.61.47,1.44.95,2.47,1.45,1.03.5,2.29,1.02,3.78,1.56Z"/><path class="cls-2" d="M57.75,82.81l-2.08,3.89-5.01-2.69,2.08-3.89,5.01,2.69Z"/><path class="cls-3" d="M95.39,94.99l1.23,6.42c3.27,17.11,13.45,29.54,22.73,27.76,9.28-1.77,14.15-17.08,10.88-34.19l-1.23-6.42-33.61,6.43Z"/><path class="cls-3" d="M115.79,129.24c1.85,3.89.19,8.55-3.71,10.4"/><path class="cls-3" d="M122.68,127.92c-.28,4.3,2.98,8.01,7.28,8.29"/><polyline class="cls-3" points="108.62 151.28 109.65 140.1 132.4 135.75 138.17 145.63"/><path class="cls-3" d="M132.81,92.05l7.66-1.47c.85-.16,1.66.44,1.75,1.3h0c.92,8.84-2.36,17.6-8.85,23.67"/><path class="cls-3" d="M92.91,99.68l-7.66,1.47c-.85.16-1.38,1.02-1.15,1.85h0c2.41,8.56,8.68,15.49,16.96,18.73"/><path class="cls-3" d="M114.05,99.2l3.18,4.21c.12.16.31.25.51.24l5.27-.24c.5-.02.81.54.52.95l-3.02,4.33c-.11.16-.14.37-.07.56l1.85,4.94c.18.47-.26.94-.74.79l-5.05-1.54c-.19-.06-.4-.02-.55.11l-4.13,3.29c-.39.31-.97.04-.98-.46l-.1-5.28c0-.2-.1-.38-.27-.49l-4.4-2.91c-.42-.28-.34-.91.13-1.08l4.99-1.73c.19-.06.33-.22.39-.41l1.4-5.09c.14-.48.76-.6,1.07-.2Z"/></g></svg>