<?xml version="1.0" encoding="UTF-8"?><svg id="Layer_2" xmlns="http://www.w3.org/2000/svg" viewBox="0 0 247.57 418.07"><g id="Layer_1-2"><path d="M167.31,106.33c0,3.64.11,7.29-.02,10.92-.3,8.07-1.08,16.1-2.25,24.09-.4,2.7-.8,5.4-1.03,8.12-.18,2.09-.71,4.02-1.81,5.8-.9,1.45-1.77,2.92-2.7,4.34-1.31,1.98-2.04,4.02-1.23,6.44.28.84.3,1.8.29,2.7-.01,1.83.23,3.61.49,5.42.35,2.47.55,5.01-1.24,7.16-.69.83-.53,1.77.1,2.51,1.14,1.34,1.82,2.86,2.24,4.54.14.54.41,1.07.72,1.54,3.06,4.63,3.96,9.91,4.21,15.26.13,2.8-.33,5.67-1.02,8.44-.31,1.24-.83,2.37-1.67,3.32-.97,1.1-1.28,2.36-1.22,3.79.17,3.99-.42,7.94-.68,11.91-.13,1.92-.47,3.83-.77,5.74-.18,1.14-.67,2.18-1.42,3.07-.78.93-1.01,1.94-.88,3.16.54,4.74,1.11,9.49,1.18,14.27,0,.68.16,1.36.2,2.04.15,2.5.67,4.68,3.41,5.71,1.2.45,1.82,1.69,2.24,2.9.52,1.51.88,3.04.83,4.67-.04,1.36.41,1.81,1.71,2.07.56.11,1.13.12,1.69.2,3.78.54,6.84,2.21,9.12,5.38,2.78,3.88,5.73,7.63,8.57,11.47,1.56,2.11,3.07,4.25,3.14,7.05.03,1.08.63,1.92,1.39,2.65,2.56,2.48,4.5,5.4,6.02,8.62.59,1.26,1.45,2.31,2.56,3.14,1.2.9,2.12,2.05,3.02,3.22,4.79,6.22,9.13,12.75,13.41,19.33,4.27,6.57,8.45,13.21,13.23,19.45,3.25,4.24,6.33,8.61,8.97,13.28.83,1.47,1.97,2.78,3,4.14,2.2,2.91,4.15,5.97,6.02,9.1.61,1.02.59,1.89.03,2.86-.63,1.1-1.38,2.08-2.34,2.91-3.02,2.6-6.12,5.1-9.43,7.31-1.7,1.13-3.49,2.18-5.61,2.34-1.43.1-2.58.74-3.7,1.59-1.9,1.45-3.91,2.75-5.77,4.24-2.58,2.07-5.76,3.21-8.23,5.46-.47.43-1.21.62-1.86.79-.76.2-1.56.32-2.35.34-8.3.29-16.59.55-24.89.83-.23,0-.46,0-.68,0-3.41.07-3.92-.46-3.58-4.07.37-3.9,1.52-6.51,6.54-7.51,1.89-.38,3.68-.71,5.33-1.97.99-.76,2.57-.84,3.91-1.04,1.22-.18,2.15-.66,2.79-1.71,1.25-2.03,2.49-4.07,3.76-6.09,1.03-1.65,1.26-3.38.67-5.23-.45-1.41-.85-2.83-1.31-4.24-.37-1.14-1.05-2.02-2.24-2.4-2.22-.71-3.6-2.37-4.64-4.3-1.45-2.7-2.81-5.46-4.11-8.24-1.21-2.57-2.3-5.2-3.41-7.82-.94-2.21-2.11-4.27-3.69-6.11-2.75-3.21-4.68-6.99-7.08-10.44-1.56-2.24-3.02-4.55-4.56-6.8-2-2.94-4.53-5.4-7.06-7.86-2.53-2.45-5.07-4.91-7.67-7.28-2.52-2.29-5.14-4.49-7.72-6.71-.14-.12-.46-.14-.63-.06-.16.07-.33.35-.31.51.06.56.19,1.12.32,1.67.79,3.45,1.28,6.9.63,10.45-.2,1.1-.02,2.27-.12,3.4-.16,1.82-.57,3.62-1.34,5.27-.64,1.38-1,2.69-.94,4.24.06,1.92-.59,2.63-2.5,3.08-1.34.32-2.6.79-3.86,1.31-2.8,1.15-5.81,1.31-8.73,1.1-7.39-.52-14.79-.18-22.18-.31-1.59-.03-3.17-.06-4.76-.29-2.72-.4-5.44-.24-8.16.18-1.48.23-2.64.9-3.03,2.37-1.2,4.48-3.95,8.17-6.14,12.14-1.6,2.9-2.86,5.93-4.19,8.95-2.47,5.59-3.38,11.52-4.34,17.46-.47,2.93-.69,5.86-.63,8.83.07,3.21-.56,6.34-1.41,9.42-.78,2.84-.76,5.61.26,8.38.56,1.52.89,3.06.6,4.68-.2,1.13-.86,1.84-2,2.04-.56.1-1.13.14-1.7.17-.91.04-1.82.04-2.73.06-12.17.28-24.34.56-36.5.85-2.28.06-4.53-.1-6.78-.58-7.34-1.57-14.7-3.05-22.04-4.58-.78-.16-1.57-.31-2.31-.59-2.09-.8-3.04-2.47-2.53-4.6.49-2.02,1.65-3.73,2.86-5.37.37-.5,1.07-.87,1.7-1.07,1.41-.44,2.86-1.03,4.3-1.02,3.53.03,6.65-1.32,9.85-2.44,1.73-.6,3.5-1.04,5.3-1.23,3.46-.36,6.56-1.79,9.75-2.98.74-.28,1.4-.73,1.88-1.42.91-1.3,1.87-2.57,2.77-3.88.78-1.14,1.18-2.24.85-3.8-.51-2.4.15-4.76,1.78-6.7,1.17-1.39,2.3-2.86,3.68-4.01,1.53-1.27,2.21-2.83,2.52-4.67.75-4.37,1.49-8.73,2.23-13.1.55-3.26,1.48-6.41,2.47-9.56,1.36-4.34,2.69-8.69,3.39-13.2.27-1.72.28-3.38-.15-5.07-.25-.99-.37-2.01-.55-3.02-.56-3.31-.46-6.57.62-9.77.54-1.62,1.04-3.25,1.67-4.84.59-1.49.94-3.04,1.28-4.59.36-1.6.38-3.2-.29-4.69-1.84-4.13-1.31-8.28.03-12.33,1.51-4.55,2.75-9.14,3.63-13.84.32-1.7.87-3.29,1.86-4.73.52-.75,1.02-1.57,1.04-2.49.08-3.22,1.2-6.24,1.78-9.37.42-2.27.54-4.53.16-6.78-.4-2.37-.38-4.76-.55-7.14-.17-2.37.43-4.52,1.68-6.49,1.93-3.04,2.85-6.4,3.41-9.9.34-2.13.66-4.26,1.31-6.34.65-2.08,1.34-4.11,2.75-5.82.75-.91,1.01-2,1.3-3.11.59-2.31,1.15-4.65,1.99-6.87.67-1.79,1.64-3.49,2.66-5.12,1.45-2.34,1.47-4.7.52-7.17-.41-1.07-.89-2.15-.79-3.29.13-1.41-.66-2.07-1.73-2.62-.61-.31-1.2-.64-1.79-.98-.7-.41-1.39-.91-1.66-1.67-.91-2.54-2.37-4.95-2.13-7.81.16-1.97-.2-3.84-.81-5.7-.61-1.84-1.02-3.74-1.1-5.68-.29-7.76.18-15.46,1.96-23.04.41-1.77.96-3.51,1.49-5.25.97-3.16,1.75-6.34,2.17-9.63.49-3.86,2.01-7.46,3.1-11.16,1.32-4.47,2.68-8.92,4.02-13.38.72-2.4,1.37-4.81,2.63-7.01,1.16-2.03,1.21-4.09.13-6.19-.31-.6-.48-1.28-.78-1.89-.91-1.82-1.23-3.63-.23-5.54.64-1.21.45-2.42-.17-3.59-1.28-2.41-2.79-4.85-3.09-7.52-.29-2.6-1.15-5.12-1.04-7.75.14-3.27-1.38-5.63-3.8-7.56-.83-.66-1.42-1.46-1.74-2.47-.5-1.58-1.44-2.82-2.89-3.66-.39-.23-.74-.53-1.07-.85-1.58-1.54-2.57-3.09-.16-5.15,1.34-1.15,1.51-2.41,1.2-3.96-.22-1.11-.31-2.25-.5-3.37-.36-2.15-.9-4.22-2.55-5.83-1.44-1.41-1.59-3.12-1.2-5.05.45-2.24.93-4.38,2.38-6.28.86-1.13,1.78-2.06,3.04-2.63,1.26-.57,2.34-1.38,3.48-2.14,1.37-.91,2.55-1.9,3.04-3.53.27-.91.87-1.61,1.67-2.08,1.68-1,2.99-2.44,4.44-3.71,6.78-5.96,14.5-7.25,22.9-4.2,3.13,1.14,5.9,3.09,7.97,5.71,2.38,3.03,4.87,5.98,6.64,9.47,1.31,2.59,2.06,5.28,2.35,8.13.42,4.18.84,8.36,1.67,12.49.09.45.17.89.27,1.34.43,1.82.78,2.08,2.55,1.94.79-.06,1.59-.24,2.37-.2,1.6.09,2.81.82,3.43,2.38.71,1.8,1.46,3.58,2.13,5.39.46,1.23,1.15,2.19,2.38,2.75,1.26.57,2.31,1.42,3.19,2.51,1.44,1.79,3.16,3.28,5.05,4.55,1.44.97,2.6,2.17,3.59,3.6,1.81,2.62,3.74,5.13,5.87,7.52,2.84,3.18,4.67,6.98,5.86,11.07,1.5,5.17,2.1,10.47,2.06,15.84-.02,3.41,0,6.83,0,10.24-.03,0-.06,0-.08,0Z"/></g></svg>