<?xml version="1.0" encoding="UTF-8"?><svg id="Layer_2" xmlns="http://www.w3.org/2000/svg" viewBox="0 0 299.12 146.25"><defs><style>.cls-1,.cls-2,.cls-3{stroke:#103828;stroke-miterlimit:10;}.cls-1,.cls-3{stroke-width:4px;}.cls-1,.cls-4{fill:#103828;}.cls-2{fill:none;stroke-width:.63px;}.cls-5{fill:#4ed858;}.cls-3,.cls-6{fill:#ffbc38;}.cls-7{fill:#f8f3ef;}</style></defs><g id="Layer_1-2"><path class="cls-3" d="M39.7,10.59c1.6.3,2.96.84,4.08,1.63,1.13.79,2,1.8,2.64,3.04.63,1.24,1.02,2.68,1.15,4.34.14,1.65.01,3.5-.37,5.53l-7.57-1.42c.2-1.06.32-1.98.38-2.76.05-.78.03-1.43-.06-1.95-.1-.52-.26-.93-.51-1.22-.25-.29-.57-.47-.98-.55-.61-.12-1.14.03-1.58.45-.44.41-.74,1.03-.89,1.84-.12.64-.12,1.24.01,1.81.13.57.33,1.11.6,1.61.27.51.59.98.96,1.42.37.44.72.86,1.07,1.25l1,1.09c.44.48.9.99,1.38,1.53.48.54.94,1.13,1.38,1.75.44.62.86,1.29,1.23,2s.68,1.47.92,2.28c.23.81.38,1.68.43,2.6.05.92-.01,1.91-.21,2.95-.28,1.49-.76,2.79-1.45,3.9-.69,1.11-1.54,2-2.57,2.68-1.02.68-2.2,1.13-3.52,1.35-1.32.22-2.76.18-4.31-.11-1.67-.31-3.09-.86-4.26-1.65-1.17-.79-2.08-1.81-2.73-3.06-.65-1.25-1.05-2.73-1.18-4.43-.14-1.7,0-3.63.4-5.79l7.57,1.42c-.41,2.2-.51,3.85-.3,4.95.21,1.1.76,1.73,1.62,1.89.34.06.66.05.96-.04.3-.09.57-.24.82-.46.25-.22.46-.5.63-.84.18-.34.3-.72.38-1.16.12-.64.11-1.25-.03-1.84-.14-.59-.35-1.16-.65-1.72-.29-.55-.64-1.09-1.05-1.6-.41-.52-.81-1.02-1.23-1.51l-.99-1.15c-.39-.45-.8-.94-1.24-1.46-.44-.52-.86-1.09-1.27-1.69-.41-.6-.79-1.25-1.14-1.93s-.63-1.41-.85-2.18c-.22-.77-.36-1.59-.41-2.46-.05-.87,0-1.78.19-2.74.26-1.41.74-2.64,1.42-3.71.68-1.07,1.53-1.93,2.54-2.6,1.01-.66,2.15-1.11,3.43-1.34,1.28-.23,2.65-.21,4.12.07Z"/><path class="cls-1" d="M35,56.24c-1.18-.03-2.39-.15-3.62-.39-2.8-.52-5.29-1.52-7.4-2.95-2.32-1.57-4.16-3.63-5.46-6.12-1.18-2.25-1.88-4.82-2.11-7.65-.19-2.43-.02-5.12.52-7.99.42-2.26,1.72-4.14,3.47-5.35-.02-.05-.03-.1-.04-.15-.37-1.32-.62-2.73-.71-4.19-.1-1.58,0-3.2.31-4.83.46-2.46,1.34-4.71,2.6-6.68,1.32-2.05,2.99-3.76,4.97-5.07,1.96-1.29,4.16-2.16,6.56-2.59,2.28-.41,4.68-.38,7.15.08h0c2.77.52,5.25,1.53,7.35,3.01,2.25,1.58,4.02,3.62,5.28,6.08,1.13,2.21,1.82,4.72,2.05,7.47.2,2.38.03,5-.49,7.76-.38,2.02-1.46,3.74-2.94,4.95.03.1.06.21.09.31.41,1.41.66,2.9.74,4.44.09,1.59-.02,3.27-.34,4.98-.47,2.5-1.33,4.78-2.56,6.76-1.33,2.14-3.03,3.91-5.06,5.25-2,1.33-4.28,2.21-6.77,2.62-1.16.19-2.37.28-3.6.25Z"/><path class="cls-3" d="M51.18,13.52l8.19,1.54-4.48,23.88c-.18.97-.29,1.79-.32,2.47-.03.68.01,1.24.14,1.68.12.44.33.77.6,1.01.28.23.63.39,1.06.47.44.08.83.07,1.17-.05.34-.12.65-.36.93-.72.27-.36.52-.87.73-1.51.21-.65.41-1.45.59-2.42l4.48-23.88,8.2,1.54-4.7,25.08c-.34,1.83-.89,3.39-1.65,4.69-.76,1.3-1.68,2.33-2.78,3.1-1.09.77-2.35,1.27-3.75,1.5-1.41.23-2.93.2-4.57-.11-1.64-.31-3.07-.82-4.29-1.55-1.22-.73-2.21-1.65-2.95-2.76-.75-1.11-1.24-2.41-1.47-3.89-.23-1.48-.18-3.14.17-4.97l4.7-25.08Z"/><path class="cls-1" d="M57.23,60.4c-1.23-.03-2.48-.16-3.75-.4-2.6-.49-4.96-1.36-7.03-2.58-2.3-1.37-4.19-3.14-5.63-5.29-1.43-2.13-2.37-4.58-2.79-7.27-.38-2.42-.31-5.04.21-7.8l4.7-25.08c.85-4.54,5.23-7.54,9.77-6.69l8.19,1.54c.84.16,1.64.44,2.38.83.84-.1,1.68-.07,2.52.09l8.2,1.54c4.54.85,7.54,5.23,6.69,9.77l-4.7,25.08c-.52,2.76-1.41,5.24-2.65,7.37-1.37,2.35-3.12,4.27-5.21,5.73-2.12,1.49-4.54,2.46-7.18,2.9-1.21.2-2.45.29-3.73.26Z"/><path class="cls-3" d="M90.28,57.61l-10.5-1.97-.39-17.19.04-12.08-.12-.02-.98,11.9-2.64,16.63-7.95-1.49,6.66-35.51,10.7,2.01.35,15.9-.03,12.71.12.02,1.2-12.49,2.26-15.41,7.95,1.49-6.66,35.51Z"/><path class="cls-1" d="M90.09,65.98c-.45-.01-.91-.06-1.36-.14l-10.5-1.97c-.71-.13-1.38-.35-2-.64-.69.05-1.4,0-2.1-.13l-7.95-1.49c-4.54-.85-7.54-5.23-6.69-9.77l6.66-35.51c.41-2.18,1.67-4.11,3.5-5.37,1.83-1.25,4.09-1.73,6.27-1.32l10.7,2.01c.67.13,1.31.33,1.91.6.66-.03,1.33,0,1.99.13l7.95,1.49c4.54.85,7.54,5.23,6.69,9.77l-6.66,35.51c-.41,2.18-1.67,4.11-3.5,5.37-1.45,1-3.17,1.5-4.91,1.46Z"/><path class="cls-3" d="M98.86,22.45l8.83,1.66c2.13.4,3.94,1.14,5.44,2.22,1.5,1.08,2.68,2.48,3.53,4.19.85,1.71,1.36,3.73,1.53,6.04.17,2.32-.02,4.91-.56,7.79-.54,2.88-1.31,5.37-2.3,7.47-1,2.1-2.2,3.79-3.61,5.08-1.41,1.29-3.01,2.17-4.81,2.63-1.79.46-3.75.49-5.88.09l-8.83-1.66,6.66-35.51ZM101.65,52.8l1.04.2c.55.1,1.06.13,1.51.06s.87-.23,1.25-.5c.38-.28.73-.67,1.05-1.17.32-.51.62-1.16.91-1.95s.57-1.74.83-2.84c.27-1.1.54-2.38.81-3.84.27-1.46.48-2.75.64-3.87.15-1.12.23-2.11.25-2.95.02-.85-.03-1.56-.14-2.15-.11-.59-.3-1.08-.55-1.47-.26-.4-.58-.7-.98-.92-.4-.22-.88-.38-1.43-.49l-1.04-.2-4.14,22.1Z"/><path class="cls-1" d="M103.39,68.26c-1.27-.03-2.58-.17-3.9-.41l-8.83-1.66c-4.54-.85-7.54-5.23-6.69-9.77l6.66-35.51c.41-2.18,1.67-4.11,3.5-5.37,1.83-1.25,4.09-1.73,6.27-1.32l8.83,1.66c3.33.62,6.28,1.85,8.78,3.64,2.62,1.88,4.69,4.33,6.15,7.28,1.32,2.68,2.12,5.75,2.37,9.14.22,3.01,0,6.36-.68,9.95-.67,3.58-1.67,6.78-2.97,9.52-1.46,3.07-3.32,5.64-5.52,7.66-2.43,2.22-5.24,3.75-8.37,4.56-1.79.46-3.67.67-5.61.63Z"/><path class="cls-3" d="M114.71,62.19l11.77-34.55,12.59,2.36-1.66,36.45-8.65-1.62.86-9.09-4.07-.76-2.53,8.78-8.29-1.56ZM131.01,41.81l.83-8.55-.12-.02-2.36,8.26-2.15,7.03,3.23.6.58-7.32Z"/><path class="cls-1" d="M137.22,74.81c-.45-.01-.9-.06-1.36-.14l-8.65-1.62c-1.01-.19-1.94-.55-2.78-1.06-.96.17-1.96.17-2.97-.02l-8.29-1.56c-2.39-.45-4.46-1.91-5.69-4.01-1.22-2.1-1.48-4.62-.69-6.92l11.77-34.55c1.34-3.94,5.37-6.3,9.47-5.53l12.59,2.36c4.1.77,7.01,4.44,6.82,8.61l-1.66,36.45c-.11,2.42-1.27,4.68-3.17,6.18-1.54,1.22-3.45,1.85-5.38,1.81Z"/><path class="cls-3" d="M166.45,35.13l-12.01,24.23-1.86,9.93-8.2-1.54,1.84-9.81-2.47-27.07,8.73,1.64-.47,12.33-.53,8.02.12.02,2.42-7.64,4.08-11.68,8.34,1.56Z"/><path class="cls-1" d="M152.4,77.65c-.45-.01-.9-.06-1.36-.14l-8.2-1.54c-4.54-.85-7.54-5.23-6.69-9.77l1.62-8.67-2.36-25.91c-.24-2.61.76-5.19,2.7-6.95,1.94-1.77,4.6-2.52,7.18-2.04l8.73,1.64c.98.18,1.9.54,2.72,1.02.94-.16,1.92-.15,2.91.03l8.34,1.56c2.58.48,4.78,2.15,5.95,4.49,1.17,2.35,1.17,5.11.01,7.45l-11.49,23.19-1.65,8.8c-.41,2.18-1.67,4.11-3.5,5.37-1.45,1-3.17,1.5-4.91,1.46Z"/><path class="cls-4" d="M297.03,118.83c-.04-.53-.1-1.05-.18-1.57.74-1.19,1.28-2.54,1.54-4l.28-1.54c.52-2.9.59-5.72.2-8.36-.43-2.96-1.41-5.69-2.89-8.1-1.55-2.52-3.62-4.63-6.13-6.27-2.38-1.55-5.09-2.61-8.06-3.15-4.18-.76-8.23-.3-11.86,1.25-1-.91-2.09-1.75-3.28-2.47-2.36-1.43-5.07-2.43-8.04-2.97-2.99-.54-5.91-.54-8.69,0-1.49.29-2.92.75-4.28,1.34-.23-.23-.44-.49-.68-.71-2.8-2.57-6.17-4.22-10.02-4.92-3.85-.7-7.59-.33-11.1,1.09-.22.09-.43.21-.65.31-1.05-.99-2.22-1.87-3.49-2.65-2.36-1.43-5.07-2.43-8.04-2.97-2.99-.54-5.91-.54-8.69,0-3.1.61-5.93,1.87-8.4,3.76-2.36,1.79-4.32,4.11-5.84,6.9-1.34,2.45-2.3,5.26-2.86,8.38l-.65,3.57c-.04.2-.04.4-.06.6-.28-.07-.55-.15-.83-.2.54-1.01.94-2.12,1.15-3.31l.28-1.54c.53-2.9.59-5.72.2-8.36-.43-2.96-1.4-5.69-2.89-8.1-1.55-2.52-3.62-4.63-6.13-6.27-2.38-1.55-5.09-2.61-8.06-3.15-4.18-.76-8.23-.3-11.86,1.25-1-.91-2.09-1.74-3.28-2.47-2.36-1.43-5.07-2.43-8.03-2.97-2.99-.54-5.91-.54-8.69,0-3.1.61-5.93,1.87-8.4,3.76-1.44,1.09-2.71,2.4-3.84,3.87.59-5.84-3.39-11.25-9.27-12.31l-8.34-1.51c-.6-.11-1.19-.15-1.78-.17-.56-.19-1.13-.36-1.72-.47l-8.34-1.51c-2.08-.38-4.12-.15-5.96.53-.35-.21-.69-.42-1.06-.61-2.38-1.22-5.11-2.11-8.14-2.66l-9.96-1.8c-2.17-.39-4.3-.13-6.2.63-.08-.05-.16-.11-.24-.16-2.56-1.54-5.48-2.62-8.67-3.2l-9.72-1.76c-1.3-.24-2.59-.23-3.83-.03-1.09-.62-2.3-1.08-3.6-1.32l-12.82-2.32c-5.55-1.01-11,2.22-12.79,7.58L.58,83c-1.04,3.12-.68,6.55,1,9.38,1.68,2.83,4.51,4.8,7.75,5.39l8.45,1.53c1.01.18,2.02.22,3,.14.89.42,1.85.74,2.86.92l8.81,1.59c.39.07.79.12,1.18.15.38.11.77.2,1.17.28l8.34,1.51c3.27.59,6.46-.29,8.91-2.16,1.64,2.61,4.31,4.55,7.58,5.14l8.34,1.51c.99.18,1.97.22,2.92.15.87.41,1.8.71,2.78.88l8.24,1.49c.48.09.96.13,1.44.16.45.14.92.27,1.4.36l8.34,1.51c.6.11,1.19.15,1.78.17.56.19,1.13.36,1.72.47l14.86,2.69c2.41.44,4.77.07,6.83-.9,1.59,1.62,3.68,2.8,6.08,3.23l20.81,3.76c1.6.29,3.18.22,4.67-.14,2.38,1.59,5.15,2.7,8.23,3.25.59.11,1.17.17,1.74.23.3.97.73,1.91,1.29,2.78,1.7,2.64,4.42,4.45,7.52,5.01l5.06.91c4.9.89,9.75-1.52,12.04-5.84,1.33.95,2.87,1.64,4.59,1.95l20.81,3.76c1.69.31,3.36.21,4.92-.21,2.37,1.67,5.06,2.79,8.04,3.33,2.97.54,5.87.43,8.66-.3,1.31.92,2.83,1.59,4.51,1.9l20.81,3.76c1.6.29,3.18.22,4.67-.14,2.38,1.59,5.15,2.7,8.23,3.25,3.16.57,6.24.5,9.15-.2,3.07-.74,5.85-2.15,8.26-4.18,2.22-1.86,4.07-4.21,5.5-6.98,1.25-2.42,2.16-5.17,2.7-8.17.47-2.62.62-5.15.43-7.51"/><path class="cls-5" d="M11.35,86.59l11.75-35.22,12.82,2.32-1.46,37.08-8.81-1.59.81-9.26-4.15-.75-2.52,8.95-8.45-1.53ZM27.8,65.76l.79-8.7-.13-.02-2.34,8.42-2.14,7.16,3.29.59.54-7.45Z"/><path class="cls-5" d="M43.36,55.03l9.72,1.76c1.84.33,3.44.91,4.82,1.75,1.38.83,2.49,1.87,3.34,3.11.85,1.24,1.42,2.66,1.71,4.27.29,1.61.26,3.34-.07,5.21-.33,1.84-.9,3.45-1.7,4.83-.8,1.38-1.8,2.51-2.98,3.37-1.18.86-2.53,1.45-4.05,1.75-1.52.31-3.15.3-4.91-.02l-1.91-.35-2.17,11.99-8.34-1.51,6.54-36.16ZM50.47,63.37l-1.9,10.52,1.48.27c.62.11,1.18.11,1.66,0,.48-.11.9-.36,1.26-.73.36-.38.67-.89.92-1.53.25-.65.46-1.44.63-2.39.17-.94.25-1.74.24-2.43,0-.69-.11-1.26-.31-1.73-.2-.47-.5-.85-.9-1.12-.4-.27-.9-.46-1.51-.57l-1.57-.28Z"/><path class="cls-5" d="M78.16,61.33c1.93.35,3.59.88,4.98,1.59,1.38.71,2.49,1.59,3.33,2.63.83,1.04,1.39,2.25,1.66,3.61.27,1.36.26,2.87-.04,4.51-.21,1.15-.52,2.19-.93,3.13-.41.94-.9,1.75-1.46,2.43-.56.68-1.19,1.22-1.89,1.61-.69.39-1.42.62-2.19.67l-.02.13c1.59.6,2.68,1.64,3.26,3.13.58,1.49.67,3.4.24,5.73l-.69,3.84c-.11.6-.19,1.11-.26,1.53-.06.42-.11.82-.14,1.18-.03.37-.04.74-.04,1.11,0,.37,0,.81.03,1.3l-.05.25-8.24-1.49c-.02-.55-.03-1.03-.03-1.44,0-.41.02-.81.06-1.19.03-.39.08-.78.15-1.19.06-.41.15-.89.25-1.44l.76-4.18c.14-.76.19-1.41.15-1.97-.03-.55-.17-1.03-.4-1.41-.23-.39-.57-.69-1-.93-.44-.23-.99-.41-1.67-.53l-1.53-.28-2.45,13.53-8.34-1.51,6.54-36.16,9.96,1.8ZM75.18,77.3c1.18.21,2.13-.03,2.84-.73.71-.7,1.22-1.88,1.52-3.53.14-.78.2-1.47.17-2.06-.03-.59-.15-1.09-.36-1.5-.21-.41-.53-.74-.94-.99s-.93-.43-1.55-.54l-1.52-.27-1.69,9.36,1.53.28Z"/><rect class="cls-5" x="75.85" y="78.66" width="36.75" height="8.48" transform="translate(-4.13 160.87) rotate(-79.75)"/><polygon class="cls-5" points="113.51 67.72 108.2 97.05 114.72 98.23 113.48 105.06 98.63 102.37 105.16 66.21 113.51 67.72"/><path class="cls-7" d="M126.39,107.39l1.02-5.63c.21-1.18.51-2.24.89-3.18.38-.94.81-1.79,1.31-2.53.49-.75,1.03-1.41,1.6-1.98.58-.57,1.17-1.09,1.78-1.55.6-.46,1.22-.86,1.83-1.22.62-.36,1.21-.69,1.77-1l1.32-.78c.66-.37,1.32-.76,1.99-1.17.67-.42,1.3-.89,1.88-1.42.58-.53,1.08-1.15,1.52-1.84.43-.69.73-1.5.89-2.42.18-1,.11-1.81-.21-2.41-.32-.61-.85-.98-1.6-1.11-.4-.07-.77-.05-1.13.06-.35.11-.69.34-.99.7-.31.35-.58.84-.83,1.47s-.45,1.42-.62,2.37l-.63,3.5-7.71-1.4.65-3.57c.35-1.92.9-3.57,1.65-4.95.75-1.38,1.67-2.48,2.76-3.31,1.08-.83,2.32-1.38,3.71-1.65,1.39-.27,2.88-.26,4.48.03,1.6.29,2.99.79,4.17,1.51,1.18.71,2.12,1.6,2.84,2.66.72,1.06,1.19,2.27,1.43,3.63.23,1.36.2,2.84-.08,4.43-.21,1.13-.51,2.15-.9,3.05-.4.9-.86,1.72-1.39,2.45-.53.73-1.1,1.38-1.73,1.95-.62.57-1.27,1.08-1.94,1.54-.67.45-1.34.86-2.01,1.23-.68.37-1.32.71-1.94,1.03l-1.2.72c-.55.3-1.11.62-1.69.96-.58.34-1.12.72-1.63,1.15-.51.43-.97.91-1.38,1.44-.41.54-.72,1.15-.94,1.83l13.14,2.38-1.23,6.83-20.81-3.76Z"/><path class="cls-2" d="M126.39,107.39l1.02-5.63c.21-1.18.51-2.24.89-3.18.38-.94.81-1.79,1.31-2.53.49-.75,1.03-1.41,1.6-1.98.58-.57,1.17-1.09,1.78-1.55.6-.46,1.22-.86,1.83-1.22.62-.36,1.21-.69,1.77-1l1.32-.78c.66-.37,1.32-.76,1.99-1.17.67-.42,1.3-.89,1.88-1.42.58-.53,1.08-1.15,1.52-1.84.43-.69.73-1.5.89-2.42.18-1,.11-1.81-.21-2.41-.32-.61-.85-.98-1.6-1.11-.4-.07-.77-.05-1.13.06-.35.11-.69.34-.99.7-.31.35-.58.84-.83,1.47s-.45,1.42-.62,2.37l-.63,3.5-7.71-1.4.65-3.57c.35-1.92.9-3.57,1.65-4.95.75-1.38,1.67-2.48,2.76-3.31,1.08-.83,2.32-1.38,3.71-1.65,1.39-.27,2.88-.26,4.48.03,1.6.29,2.99.79,4.17,1.51,1.18.71,2.12,1.6,2.84,2.66.72,1.06,1.19,2.27,1.43,3.63.23,1.36.2,2.84-.08,4.43-.21,1.13-.51,2.15-.9,3.05-.4.9-.86,1.72-1.39,2.45-.53.73-1.1,1.38-1.73,1.95-.62.57-1.27,1.08-1.94,1.54-.67.45-1.34.86-2.01,1.23-.68.37-1.32.71-1.94,1.03l-1.2.72c-.55.3-1.11.62-1.69.96-.58.34-1.12.72-1.63,1.15-.51.43-.97.91-1.38,1.44-.41.54-.72,1.15-.94,1.83l13.14,2.38-1.23,6.83-20.81-3.76Z"/><path class="cls-7" d="M166.88,76.59c1.48.27,2.77.76,3.87,1.48,1.11.72,1.99,1.63,2.67,2.72.67,1.09,1.11,2.36,1.33,3.79.21,1.44.16,3-.14,4.69l-.28,1.54-7.27-1.31.26-1.43c.14-.77.21-1.44.22-1.99,0-.55-.06-1.01-.19-1.39-.13-.37-.33-.66-.6-.86-.27-.2-.61-.34-1.01-.41-.56-.1-1.06-.03-1.49.2-.43.24-.82.68-1.16,1.33-.34.65-.66,1.54-.96,2.65-.29,1.11-.59,2.5-.89,4.16l-.39,2.14.13.02c.31-.44.68-.81,1.11-1.12.43-.31.89-.55,1.4-.72.51-.17,1.05-.27,1.62-.31.58-.04,1.17,0,1.79.11,1.18.21,2.19.65,3.04,1.3.85.66,1.51,1.5,2,2.54.48,1.04.78,2.24.89,3.62.11,1.38.02,2.89-.28,4.55-.34,1.9-.88,3.56-1.62,4.99-.74,1.43-1.64,2.59-2.71,3.49-1.07.9-2.28,1.51-3.65,1.84-1.37.33-2.85.35-4.45.06-3.62-.65-6.08-2.62-7.38-5.91-1.3-3.29-1.42-7.87-.36-13.74l.06-.34c1.19-6.59,2.98-11.35,5.36-14.29,2.38-2.93,5.41-4.07,9.09-3.4M161.3,107.43c.42.08.8.04,1.13-.11.33-.15.63-.42.9-.81.27-.39.5-.9.71-1.54.21-.64.39-1.42.56-2.34.16-.9.26-1.68.29-2.32.03-.65-.01-1.19-.13-1.62-.12-.43-.31-.76-.57-1-.26-.24-.6-.4-1.02-.47-.87-.16-1.59.12-2.16.84-.57.71-1.02,1.96-1.34,3.73-.32,1.8-.34,3.15-.06,4.06.29.91.85,1.44,1.7,1.59"/><path class="cls-2" d="M166.88,76.59c1.48.27,2.77.76,3.87,1.48,1.11.72,1.99,1.63,2.67,2.72.67,1.09,1.11,2.36,1.33,3.79.21,1.44.16,3-.14,4.69l-.28,1.54-7.27-1.31.26-1.43c.14-.77.21-1.44.22-1.99,0-.55-.06-1.01-.19-1.39-.13-.37-.33-.66-.6-.86-.27-.2-.61-.34-1.01-.41-.56-.1-1.06-.03-1.49.2-.43.24-.82.68-1.16,1.33-.34.65-.66,1.54-.96,2.65-.29,1.11-.59,2.5-.89,4.16l-.39,2.14.13.02c.31-.44.68-.81,1.11-1.12.43-.31.89-.55,1.4-.72.51-.17,1.05-.27,1.62-.31.58-.04,1.17,0,1.79.11,1.18.21,2.19.65,3.04,1.3.85.66,1.51,1.5,2,2.54.48,1.04.78,2.24.89,3.62.11,1.38.02,2.89-.28,4.55-.34,1.9-.88,3.56-1.62,4.99-.74,1.43-1.64,2.59-2.71,3.49-1.07.9-2.28,1.51-3.65,1.84-1.37.33-2.85.35-4.45.06-3.62-.65-6.08-2.62-7.38-5.91-1.3-3.29-1.42-7.87-.36-13.74l.06-.34c1.19-6.59,2.98-11.35,5.36-14.29,2.38-2.93,5.41-4.07,9.09-3.4ZM161.3,107.43c.42.08.8.04,1.13-.11.33-.15.63-.42.9-.81.27-.39.5-.9.71-1.54.21-.64.39-1.42.56-2.34.16-.9.26-1.68.29-2.32.03-.65-.01-1.19-.13-1.62-.12-.43-.31-.76-.57-1-.26-.24-.6-.4-1.02-.47-.87-.16-1.59.12-2.16.84-.57.71-1.02,1.96-1.34,3.73-.32,1.8-.34,3.15-.06,4.06.29.91.85,1.44,1.7,1.59Z"/><polygon class="cls-6" points="175.71 123.21 170.65 122.29 174.73 105.95 182.32 107.32 175.71 123.21"/><path class="cls-5" d="M192.34,119.32l1.02-5.63c.21-1.18.51-2.24.89-3.18.38-.94.81-1.79,1.31-2.53.49-.75,1.03-1.41,1.61-1.98.58-.57,1.17-1.09,1.77-1.54.6-.46,1.22-.86,1.83-1.22.62-.36,1.21-.69,1.77-1l1.32-.78c.66-.37,1.32-.76,1.99-1.17.67-.41,1.3-.89,1.88-1.42.58-.53,1.09-1.15,1.52-1.84.43-.69.73-1.5.89-2.42.18-1,.11-1.81-.21-2.41-.32-.61-.85-.98-1.59-1.11-.4-.07-.77-.05-1.13.06-.36.11-.69.34-.99.7-.31.35-.58.84-.83,1.47-.24.63-.45,1.42-.62,2.37l-.63,3.5-7.71-1.39.65-3.57c.35-1.92.9-3.57,1.65-4.95.75-1.38,1.67-2.48,2.76-3.31,1.08-.83,2.32-1.38,3.7-1.65,1.39-.27,2.88-.26,4.48.03,1.6.29,2.99.79,4.17,1.51,1.18.71,2.12,1.6,2.84,2.66.72,1.06,1.19,2.27,1.43,3.63.23,1.36.2,2.84-.08,4.42-.21,1.13-.51,2.15-.9,3.05-.4.9-.86,1.72-1.39,2.45-.53.73-1.1,1.38-1.73,1.95-.62.57-1.27,1.08-1.93,1.54-.67.45-1.34.86-2.01,1.23-.67.37-1.32.71-1.93,1.03l-1.2.72c-.55.3-1.11.62-1.69.96-.58.34-1.12.72-1.63,1.15-.51.43-.97.91-1.38,1.44-.41.54-.73,1.15-.94,1.83l13.14,2.38-1.23,6.83-20.81-3.76Z"/><path class="cls-5" d="M218.52,105.38c.53-2.95,1.26-5.54,2.19-7.78.93-2.24,2.01-4.08,3.25-5.53,1.24-1.45,2.62-2.48,4.13-3.08,1.51-.61,3.12-.76,4.83-.45,1.71.31,3.17,1.01,4.37,2.12,1.2,1.1,2.13,2.55,2.79,4.33.66,1.79,1.03,3.9,1.11,6.32.08,2.42-.14,5.11-.67,8.06-.53,2.94-1.26,5.53-2.19,7.77-.93,2.24-2.01,4.08-3.25,5.53-1.24,1.45-2.62,2.48-4.13,3.09-1.51.61-3.12.77-4.84.46-1.71-.31-3.17-1.02-4.37-2.12-1.2-1.11-2.13-2.55-2.79-4.34-.66-1.79-1.03-3.9-1.11-6.32-.09-2.42.14-5.1.67-8.05M226.87,106.89c-.27,1.51-.49,2.86-.66,4.05-.17,1.19-.28,2.24-.35,3.14-.07.91-.09,1.68-.06,2.33.03.64.1,1.18.23,1.6.13.42.3.75.53.96.22.22.49.36.8.41.31.06.61.02.89-.11.28-.13.56-.37.82-.72.27-.35.53-.82.79-1.42.26-.59.51-1.33.76-2.2.25-.87.51-1.89.77-3.07.26-1.17.53-2.51.8-4.02.27-1.51.49-2.86.66-4.05.17-1.19.28-2.23.35-3.14.07-.91.09-1.68.06-2.33-.03-.65-.11-1.18-.24-1.6-.13-.42-.3-.74-.52-.96-.22-.22-.48-.35-.79-.41-.31-.06-.61-.02-.89.1-.28.13-.56.37-.83.72-.27.35-.53.82-.78,1.42-.25.59-.5,1.33-.76,2.2-.25.87-.51,1.89-.77,3.07-.26,1.17-.53,2.51-.8,4.02"/><path class="cls-5" d="M239.29,127.81l1.02-5.63c.21-1.18.51-2.24.89-3.18.38-.94.81-1.79,1.31-2.53.49-.75,1.03-1.41,1.61-1.98.58-.57,1.17-1.09,1.77-1.55.6-.46,1.22-.86,1.83-1.22.62-.36,1.21-.69,1.77-1l1.32-.78c.66-.37,1.32-.76,1.99-1.17.67-.42,1.3-.89,1.88-1.42.58-.53,1.09-1.15,1.52-1.84.43-.69.73-1.5.89-2.42.18-1,.11-1.81-.21-2.41-.32-.61-.85-.98-1.59-1.11-.4-.07-.77-.05-1.13.06-.36.11-.69.34-.99.7-.31.35-.58.84-.83,1.47-.24.63-.45,1.42-.62,2.37l-.63,3.5-7.71-1.4.65-3.57c.35-1.92.9-3.57,1.65-4.95.75-1.38,1.67-2.48,2.76-3.31,1.08-.83,2.32-1.38,3.7-1.65,1.39-.27,2.88-.26,4.48.03,1.6.29,2.99.79,4.17,1.51,1.18.71,2.12,1.6,2.84,2.66.72,1.06,1.19,2.27,1.43,3.63.23,1.36.2,2.84-.08,4.42-.21,1.13-.51,2.15-.9,3.05-.4.9-.86,1.72-1.39,2.45-.53.73-1.1,1.38-1.73,1.95-.62.57-1.27,1.08-1.93,1.54-.67.45-1.34.86-2.01,1.23-.67.37-1.32.71-1.93,1.03l-1.2.72c-.55.3-1.11.62-1.69.96-.58.34-1.12.72-1.63,1.15-.51.43-.97.91-1.38,1.44-.41.54-.73,1.15-.94,1.83l13.14,2.38-1.23,6.83-20.81-3.76Z"/><path class="cls-5" d="M279.78,97c1.48.27,2.77.76,3.87,1.48,1.11.72,1.99,1.63,2.67,2.72.67,1.09,1.11,2.36,1.33,3.79.21,1.44.16,3-.14,4.69l-.28,1.54-7.27-1.31.26-1.43c.14-.77.21-1.44.22-1.99,0-.55-.06-1.01-.19-1.39-.13-.37-.33-.66-.6-.86-.27-.2-.6-.34-1.01-.41-.56-.1-1.06-.03-1.49.2-.43.24-.82.68-1.16,1.33-.34.65-.66,1.54-.96,2.65-.29,1.11-.59,2.5-.89,4.16l-.39,2.14.13.02c.31-.44.68-.81,1.11-1.12.43-.31.89-.55,1.4-.72.51-.17,1.05-.27,1.62-.31.58-.04,1.17,0,1.79.11,1.18.21,2.19.65,3.04,1.3.85.66,1.51,1.5,2,2.54.48,1.04.78,2.24.89,3.62.11,1.38.02,2.89-.28,4.55-.34,1.9-.88,3.56-1.62,4.99-.74,1.43-1.64,2.59-2.71,3.49-1.07.9-2.28,1.51-3.65,1.84-1.37.33-2.85.35-4.45.06-3.61-.65-6.08-2.62-7.38-5.91-1.3-3.29-1.42-7.87-.36-13.74l.06-.34c1.19-6.59,2.98-11.35,5.36-14.29,2.38-2.93,5.41-4.07,9.09-3.4M274.2,127.84c.42.08.8.04,1.13-.11.33-.15.63-.42.9-.8.27-.39.5-.9.71-1.54.21-.64.39-1.42.56-2.34.16-.9.26-1.68.29-2.32.03-.65-.01-1.19-.13-1.62-.12-.43-.31-.77-.57-1-.26-.24-.6-.4-1.02-.47-.87-.16-1.59.12-2.16.84-.57.71-1.02,1.96-1.34,3.73-.32,1.8-.34,3.15-.06,4.06.29.91.85,1.44,1.7,1.59"/><rect class="cls-4" x="117.29" y="59.52" width="21.93" height="12.84"/><path class="cls-6" d="M39.89,10.59c1.6.3,2.96.84,4.08,1.63,1.12.79,2,1.8,2.64,3.04.63,1.24,1.02,2.68,1.15,4.34.14,1.65.01,3.5-.37,5.53l-7.57-1.42c.2-1.06.32-1.98.38-2.76.05-.78.03-1.43-.06-1.95-.09-.52-.27-.93-.51-1.22-.25-.29-.57-.47-.98-.55-.61-.11-1.14.04-1.58.45-.44.41-.74,1.03-.89,1.84-.12.64-.11,1.24.01,1.81.13.57.33,1.11.6,1.61.27.51.59.98.96,1.42.37.44.72.86,1.07,1.25l1,1.09c.44.48.9.99,1.38,1.53.48.54.94,1.13,1.38,1.75.44.62.86,1.29,1.23,2,.38.71.68,1.47.92,2.28.23.81.38,1.68.43,2.6.05.92-.02,1.91-.21,2.95-.28,1.49-.76,2.79-1.45,3.9-.69,1.11-1.54,2-2.57,2.68-1.02.68-2.19,1.13-3.52,1.35-1.32.22-2.76.18-4.31-.11-1.67-.31-3.09-.86-4.26-1.65-1.17-.79-2.08-1.81-2.73-3.06-.65-1.25-1.05-2.73-1.18-4.43-.13-1.7,0-3.63.4-5.79l7.57,1.42c-.41,2.2-.51,3.85-.3,4.95.21,1.1.75,1.73,1.62,1.89.34.06.66.05.96-.04s.57-.24.82-.46c.25-.22.46-.5.63-.84.17-.34.3-.72.38-1.15.12-.64.11-1.25-.03-1.84-.14-.59-.35-1.16-.65-1.72-.29-.55-.64-1.09-1.05-1.6-.4-.52-.81-1.02-1.23-1.51l-.99-1.15c-.39-.45-.8-.94-1.24-1.46-.44-.52-.86-1.09-1.27-1.69-.41-.6-.79-1.25-1.14-1.93-.35-.68-.63-1.41-.85-2.18-.22-.77-.36-1.59-.41-2.46-.06-.87,0-1.78.19-2.74.26-1.41.74-2.64,1.42-3.71.68-1.07,1.53-1.93,2.54-2.6,1.01-.66,2.15-1.11,3.43-1.34,1.28-.23,2.66-.21,4.12.07Z"/><path class="cls-6" d="M51.37,13.51l8.2,1.54-4.48,23.88c-.18.97-.29,1.79-.32,2.47-.03.68.01,1.24.14,1.68.12.44.32.77.6,1.01.28.23.63.39,1.06.47.44.08.83.07,1.17-.05.34-.12.65-.35.93-.72.27-.36.52-.87.73-1.51.21-.65.41-1.45.59-2.42l4.48-23.88,8.2,1.54-4.7,25.08c-.34,1.83-.89,3.39-1.65,4.69-.76,1.3-1.68,2.33-2.78,3.1-1.09.77-2.34,1.27-3.75,1.5-1.41.23-2.93.2-4.57-.11-1.64-.31-3.07-.82-4.29-1.55-1.22-.73-2.21-1.65-2.95-2.76-.75-1.11-1.24-2.41-1.47-3.89-.23-1.48-.18-3.14.17-4.97l4.7-25.08Z"/><path class="cls-6" d="M90.47,57.6l-10.5-1.97-.39-17.19.04-12.07-.12-.02-.98,11.9-2.64,16.62-7.95-1.49,6.66-35.51,10.7,2.01.35,15.9-.03,12.71.12.02,1.2-12.49,2.26-15.41,7.95,1.49-6.66,35.51Z"/><path class="cls-6" d="M99.05,22.45l8.83,1.66c2.13.4,3.94,1.14,5.45,2.22,1.5,1.08,2.68,2.48,3.53,4.19.85,1.71,1.36,3.73,1.53,6.04.17,2.32-.02,4.91-.55,7.79-.54,2.88-1.31,5.37-2.31,7.47-1,2.1-2.2,3.79-3.61,5.08-1.41,1.29-3.01,2.17-4.8,2.63-1.79.46-3.75.49-5.88.09l-8.83-1.66,6.66-35.51ZM101.84,52.79l1.04.2c.55.1,1.06.13,1.51.06.45-.06.87-.23,1.25-.5.38-.28.73-.67,1.05-1.17.32-.51.62-1.16.91-1.95.29-.79.57-1.74.83-2.84s.54-2.38.81-3.84c.27-1.46.48-2.75.64-3.87.15-1.12.23-2.11.25-2.95.02-.85-.03-1.56-.14-2.15-.11-.59-.3-1.08-.55-1.47-.26-.4-.58-.7-.98-.92s-.88-.38-1.43-.49l-1.04-.2-4.14,22.1Z"/><path class="cls-6" d="M114.9,62.18l11.77-34.55,12.59,2.36-1.67,36.45-8.65-1.62.86-9.09-4.07-.76-2.53,8.78-8.29-1.55ZM131.2,41.81l.83-8.55-.12-.02-2.36,8.26-2.15,7.03,3.23.61.58-7.32Z"/><path class="cls-6" d="M166.64,35.12l-12.01,24.23-1.86,9.93-8.19-1.54,1.84-9.81-2.47-27.07,8.73,1.64-.47,12.33-.53,8.02.12.02,2.42-7.64,4.08-11.68,8.34,1.56Z"/></g></svg>