<?xml version="1.0" encoding="UTF-8"?><svg id="Layer_2" xmlns="http://www.w3.org/2000/svg" viewBox="0 0 345.2 424.04"><defs><style>.cls-1{fill:#402f2f;}.cls-2{fill:#020202;}</style></defs><g id="Layer_1-2"><path class="cls-2" d="M20.58,103.12c2.26-1.5,4.86-1.95,7.47-2.37,4.11-.65,8.07-1.89,12.08-2.94,2.17-.57,4.33-1.18,6.51.03.42.24.94.13,1.41,0,4.29-1.26,8.66-2.22,13.07-2.93,4.48-.72,8.89-1.97,13.49-1.87,1.18.03,2.38-.21,3.45-.86,1.52-.93,3.11-.86,4.5.17,1.31.97,2.65.98,4.09.58,4.53-1.24,8.94-2.99,13.69-3.3.71-.05,1.4-.28,2.02-.68,2.61-1.69,5.32-3.21,8.35-4.03.53-.14.77-.55,1-.96.37-.63.78-1.29,1.46-1.55,1.93-.74,2.26-2.32,2.27-4.08.02-3.45,1.14-6.58,2.72-9.59,1.49-2.84,3.69-4.69,6.88-5.47,3.73-.92,7.43-1.85,11.32-1.76,2.83.07,5.55-.55,8.11-1.83.93-.47,1.85-1.14,2.83-1.26,2.64-.31,2.59-2.5,3.04-4.2.43-1.61-2.2-3.31-3.83-2.6-.66.29-1.25.73-1.92.98-2.54.95-4.77-.62-4.7-3.3.03-1.18-.06-2.38.97-3.32.64-.58.6-1.36.33-2.21-.41-1.31-.74-2.67-1.64-3.7-2.6-2.97-2.85-6.46-2.51-10.14.12-1.27.19-2.57.04-3.83-.26-2.13,0-4.16.89-6.08,1.6-3.46,2.44-7.26,4.99-10.29,2.84-3.4,5.95-6.19,10.59-6.78,1.8-.23,3.48-.87,5.12-1.84,2.71-1.59,5.8-1.26,8.6-.33,2.71.9,5.45,1.79,8.03,3.11,2.16,1.11,4.14,2.42,5.92,4.03,1.36,1.23,2.67,2.52,4,3.79,1,.96,1.68,2.13,2.13,3.43.39,1.15.87,2.31,1.71,3.14,1.86,1.84,1.96,3.84,1,6.1-.44,1.03-.7,2.13-1.17,3.14-.27.58-.23,1.07-.04,1.61.74,2.03.36,3.78-1.35,5.16-1.17.95-1.14,2.2-.96,3.49.13.87.61,1.25,1.5.9.22-.09.47-.12.68-.23,3.97-2.24,8.51-2.67,12.77-3.96.69-.21,1.41-.27,2.11-.45,1.96-.5,3.59.2,4.62,1.75,1.52,2.29,4.12,3.57,5.36,6.09.3.62,1.02.74,1.67.77,1.44.07,2.87.19,4.31.17,1.05-.02,2.05-.05,3.07.3.83.28,1.8.47,2.56-.06,1.34-.95,2.47,1.11,3.44.33,1.27-1.02,2.27-.72,3.5-.19.82.36,1.74.11,2.6-.04,3.56-.59,6.98-.06,10.35,1.16,3.67,1.33,7.46,1.53,11.29.89,1.03-.18,2.08-.38,3.09-.11,3.09.83,6.33,1,9.33,2.13,2.96,1.11,6.05,1.52,9.15,1.77,2.33.19,4.57.7,6.81,1.31,2.63.71,5.25,1.4,8.02.79.78-.17,1.59,0,2.37.21,4.8,1.21,9.69,1.99,14.59,2.6,3.64.45,7.2,1.17,10.76,2.06,1.85.46,3.79.53,5.67.85,1.61.28,1.63.33,1.18,2.03-.09.36-.08.62.17.85,1.55,1.38,2.4,3.07,2.8,5.12.14.72,1.06,1.39,1.78,1.87,2.48,1.67,4.32,4.03,6.6,5.91.92.76,1.54,1.77,2.07,2.89,1.32,2.8,3.08,5.41,3.48,8.6.21,1.66.53,3.31.86,4.95.2,1.01-.17,1.25-1.13,1.21-1.85-.08-2.16.26-1.84,1.93.21,1.09.58,2.15.82,3.24.16.75.14,1.48-.86,1.63-1.06.16-.98.92-.83,1.63.36,1.63.56,3.29,1.13,4.88.18.51.21,1.16-.35,1.52-.55.36-.99,0-1.5-.28-2.06-1.16-2.86-3.13-3.5-5.21-.94-3.05-1.76-6.14-2.78-9.15-.66-1.95-2.77-2.76-4.62-2.02-.69.28-.91.86-.98,1.52-.13,1.2.02,2.37.34,3.55.51,1.86.85,3.74.28,5.67-.18.62-.32,1.23-.79,1.71-1.22,1.26-2.71,1-3.36-.64-1.02-2.6-1.43-5.37-2.18-8.05-1.16-4.15-1.98-8.38-2.51-12.65-.16-1.29-.76-1.64-1.85-2.02-2.02-.7-4.09-.71-6.16-.71-2.61,0-5.07-.44-7.37-1.75-1.4-.8-2.95-1.03-4.57-1.2-3.8-.41-7.64-.57-11.33-1.76-4.14-1.34-8.49-1.44-12.77-1.88-1.91-.2-3.84-.21-5.68-.75-1.35-.4-2.53-.19-3.63.59-2.97,2.12-6.32,2.43-9.84,2.19-5.52-.38-11.03-.15-16.52.41-2.33.24-4.62.28-6.91-.23-.08-.02-.15-.04-.23-.06-5.12-1.02-5.22-.79-5.8,4.24-.57,4.96.52,9.69,1.37,14.46.96,5.44,2.77,10.66,4.1,16.01.73,2.94,2.34,5.39,3.72,8,2.28,4.3,4.94,8.4,6.71,12.97.84,2.16,1.65,4.33,1.41,6.73-.13,1.33.42,2.51,1.05,3.63,2.83,5.01,5.8,9.93,8.89,14.79,1.47,2.32,1.55,2.33-.16,4.57-.69.91-.6,1.71-.26,2.67,1.4,4,2.75,8.01,4.12,12.02.05.15.13.29.18.45.25.9.84,1.87-.01,2.69-.76.73-1.68.16-2.51,0-3.68-.74-7.21-2.03-10.79-3.11-1.98-.59-3.38-1.65-3.99-3.73-.5-1.69-1.63-3.11-2.41-4.68-.6-1.22-1.53-1.54-2.74-1.33-1.22.2-2.05.96-2.31,2.12-.28,1.25-.39,2.53-1.14,3.62-.28.4-.04.76.11,1.12,1.27,2.92,2.37,5.89,4.99,8.04,3.31,2.71,4.73,6.54,5.67,10.58.18.79.15,1.59-.07,2.37-.54,1.97-.56,3.96-.07,5.93.51,2.04.61,4.11.52,6.19-.06,1.39.23,2.69.7,3.98,1.72,4.66,2.8,9.46,3.24,14.41.07.8.23,1.57.52,2.33.26.66.54,1.38.52,2.07-.12,4.45,1.35,8.65,2.09,12.95,1.3,7.55,2.94,15.04,3.52,22.69.19,2.56.61,5.06,1.68,7.44.88,1.98,1.44,4.07,1.85,6.19.46,2.38.58,4.78-.29,7.1-.48,1.26-.58,2.5-.21,3.75.83,2.87.92,5.84,1.06,8.78.11,2.33.35,4.61.96,6.85.42,1.55.49,3.15.67,4.73.67,6.02,1.1,12.07,1.66,18.1.55,5.95,1.54,11.88,1.32,17.9-.08,2.24.13,4.48.4,6.7.57,4.62.33,9.25.49,13.88.08,2.18-.55,4.06-1.8,5.82-1.65,2.33-1.77,4.25.27,6.25,3.3,3.22,3.05,6.75,1.73,10.59-.62,1.81-1.24,3.63-1.86,5.44-.51,1.51-.49,2.99.29,4.4.8,1.45.88,3.23,2.1,4.5.4.42.4,1.02-.05,1.52-2.03,2.25-1.61,4.99-.97,7.46,1,3.86.9,7.69.65,11.57-.1,1.57-1.05,2.67-2.49,3.26-.96.39-1.95.7-3.02.7-3.76,0-7.51.02-11.27-.02-1.37-.01-2.69-.38-3.97-.84-2.37-.84-3.53-2.59-3.02-5.01.51-2.41.72-4.89,1.62-7.23.84-2.2.86-4.54.84-6.86-.01-1.06-.31-2.06-.81-2.98-.96-1.78-1.4-3.74-1.87-5.68-.54-2.23-.35-4.44.49-6.59.68-1.73.92-3.4.4-5.33-.59-2.14-.47-4.44-.16-6.67.26-1.91,1.22-3.41,2.54-4.78,1.21-1.25,1.36-1.94.35-3.12-2.36-2.76-2.61-6.09-2.83-9.45-.09-1.35-.04-2.72-.13-4.07-.14-2.24-.52-4.42-1.33-6.54-1.73-4.49-3.07-9.09-3.32-13.92-.17-3.29-.97-6.47-1.41-9.72-.21-1.58-.53-3.14-.55-4.75-.01-.96-.12-1.91-.51-2.81-.19-.43-.42-.97-.32-1.38.68-2.8-.52-5.55-.16-8.34.12-.94.09-1.92-.43-2.8-1.8-3.02-2.54-6.36-2.9-9.81-.17-1.64-.69-3.03-1.9-4.25-1.51-1.53-2.11-3.54-2.36-5.65-.11-.95-.23-1.87-.75-2.74-2.3-3.85-3-8.21-3.84-12.51-.34-1.74-.79-3.36-1.55-4.98-3.27-6.95-7.39-13.45-10.58-20.42-2.59-5.66-5.23-11.31-7.47-17.13-.46-1.19-.92-2.39-1.79-3.37-.76-.85-1.24-.86-1.92.01-.65.83-1.01,1.81-1.15,2.86-.51,3.72-1.69,7.3-2.22,11.03-.47,3.31-1.52,6.54-2.82,9.64-2.1,5.03-3.27,10.35-5.06,15.47-.35.99-.36,2.05-.36,3.08,0,3-.68,5.86-1.75,8.64-.97,2.53-1.16,4.98-.34,7.7.92,3.04.53,6.19-.96,9.08-.52,1.01-.84,2.01-.98,3.15-.34,2.88-1.15,5.57-3.1,7.9-1.64,1.95-2.34,4.31-1.72,6.93.55,2.3.68,4.59-.64,6.73-.3.49-.27,1.08-.25,1.64.21,5.59-.02,11.17-.3,16.76-.28,5.59-.92,11.14-2.15,16.61-1.12,5-1.41,10.12-2.06,15.18-.36,2.79-.86,5.53-1.7,8.19-.43,1.37-.16,2.3.94,3.11,1.7,1.24,3.1,2.73,4.15,4.58.87,1.53.95,3,.19,4.56-.74,1.51-1.4,3.05-2.2,4.52-.56,1.02-.49,1.93,0,2.94.73,1.51,1.42,3.04,2.08,4.58,1.45,3.35,1.24,4.61-1.47,6.96-1.75,1.51-3.64,2.87-5.53,4.21-1.19.85-2.19,1.86-3.03,3.04-1.02,1.43-1.56,3.03-.89,4.74.48,1.23.04,1.93-.86,2.66-2.04,1.68-4.55,1.98-6.99,2.19-4.85.43-9.73.73-14.6.13-.4-.05-.8-.06-1.19-.16-2.15-.54-2.86-2.38-1.63-4.24.68-1.03,1.64-1.74,2.77-2.21.59-.25,1.18-.5,1.75-.78.37-.18.76-.5.66-.91-.63-2.65,1.2-4.48,2.19-6.57.45-.94.98-1.83,1.03-2.9.02-.39.05-1.05-.14-1.14-1.54-.71-.66-1.67-.35-2.58,1-2.87,2.81-5.34,4.13-8.05.22-.46.79-.76,1.24-1.17-.9-1.67-1.79-3.25-2.62-4.85-1.29-2.49-1.47-4.88.78-6.99,1.97-1.85,2.05-3.97,1.55-6.56-1.18-6.18-2.4-12.39-2.46-18.73,0-.56,0-1.13-.09-1.68-.85-5.25-.41-10.53-.17-15.78.24-5.27.36-10.54.37-15.82,0-1.68.05-3.36.19-5.03.28-3.42.62-6.84.69-10.27.04-1.61.37-3.17,1-4.66,1.01-2.4,1.19-4.76-.11-7.15-.82-1.5-1-3.18-.98-4.89.03-4,.24-7.98.8-11.95.34-2.39.35-4.74-.16-7.14-.7-3.31-.51-6.69-.08-10.01.27-2.14.51-4.27.52-6.43.03-6.31.26-12.62.17-18.93-.06-4.15-.44-8.32.12-12.44.93-6.84.09-13.73.83-20.57.2-1.83-.29-2.15-2.07-1.56-1.82.6-3.58,1.36-5.37,2.04-3.95,1.52-7.85,3.2-11.87,4.51-6.49,2.12-10.09.05-12.64-4.86-1.05-2.02-1.57-4.13-1.58-6.44-.04-11.11.21-22.23-.35-33.31-.44-8.62-.54-17.24-.99-25.84-.26-4.93-1.08-9.83-1.62-14.75-.31-2.86-.59-5.72-.85-8.58-.21-2.3-.5-2.61-2.59-1.97-3.55,1.08-7.12,1.62-10.85,1.61-2.21,0-4.44.51-6.63.96-6.58,1.37-13.3,1.75-19.91,2.82-5.44.88-10.88,1.76-16.35,2.41-2.56.3-5.11.4-7.63-.12-1.84-.38-3.64-.39-5.46,0-.78.17-1.58.42-2.36.4-5.05-.14-10.02.89-15.06.91-3.35.01-4.31.7-5.11,4.02-.62,2.57-1.41,5.08-2.44,7.51-.16.37-.29.75-.48,1.1-.81,1.48-2.18,1.62-3.25.34-.25-.3-.44-.67-.58-1.04-.77-2.09-.93-2.18-2.78-.94-1.22.81-2.7,1.44-1.94,3.52.27.74-.53,1.47-1.5,1.47-.64,0-1.27-.1-1.91-.13-1.18-.06-2.07.28-2.11,1.66-.02.71-.44,1.18-.87,1.65-.9.98-1.33,1.01-1.95-.2-.9-1.75-2.47-3.16-2.74-5.24-.02-.16-.05-.42-.13-.44-2.35-.61-1.02-2.18-.85-3.39.32-2.21.73-4.4,1.12-6.6.08-.47.15-1.01.43-1.35,1.67-2.03,2.89-4.43,4.61-6.34,3.15-3.48,6.76-6.55,10.17-9.79.27,0,.42-.13.44-.4,0,0,.08-.07.08-.07.28,0,.42-.15.4-.43,0,0,.04-.06.04-.06.29-.08.42-.26.35-.57,0,0,0,0,0,0,1.4.08,2.26-.51,2.41-1.96Z"/><path class="cls-1" d="M20.58,103.12c-.15,1.45-1.01,2.04-2.41,1.96.35-1.22,1.11-1.92,2.41-1.96Z"/><path class="cls-1" d="M18.17,105.07c.08.31-.06.49-.35.57-.02-.27.09-.47.35-.57Z"/><path class="cls-1" d="M17.79,105.69c.02.28-.12.43-.4.43.03-.24.17-.38.4-.43Z"/><path class="cls-1" d="M17.31,106.19c-.02.27-.16.41-.44.4.04-.25.17-.4.44-.4Z"/></g></svg>