<?xml version="1.0" encoding="UTF-8"?><svg id="Layer_2" xmlns="http://www.w3.org/2000/svg" viewBox="0 0 210.6 417.75"><g id="Layer_1-2"><path d="M35.97,415.2c1.19-1.14,2.55-.43,3.79-1.04-.95-.84-2.13-.81-3.1-.9-9.27-.86-17.88-4.04-26.44-7.4-2.51-.99-4.94-2.13-7.22-3.56-1.73-1.08-2.23-2.12-1.9-3.61.43-1.97,1.63-2.91,3.79-2.72,2.5.22,4.99.6,7.48.9,3.23.39,6.37-.27,9.52-.81.31-.05.84-.32.85-.5.06-2.04,1.69-1.78,2.95-2.11,3.29-.88,6.25-2.38,8.78-4.68.44-.4.89-.55,1.4-.27,1.33.73,2.6.12,3.76-.32,1.92-.73,3.71-1.9,5.44-2.94,1.77-1.06,2.56-3.4,3.18-5.49.21-.69-.17-1.4-.61-1.93-2.84-3.39-2.57-7.36-2.26-11.39.61-8.1,2.79-15.85,5.27-23.52,1.7-5.28,3.2-10.63,5.03-15.86,1.48-4.22,2.7-8.33,2.03-12.85-.21-1.4.46-2.71.89-4.03.9-2.71.81-2.95-1.72-4.25-8.1-4.16-16.2-8.32-24.31-12.46-9.5-4.85-19.01-9.67-28.51-14.51-.62-.31-1.23-.64-1.8-1.03-2.01-1.37-2.7-3.06-1.96-5.4.57-1.81,1.3-3.59,2.12-5.31,7.12-14.95,14.48-29.78,22.8-44.12.43-.75.89-1.49,1.43-2.17,1.71-2.17,3.44-2.56,5.93-1.34,3.43,1.68,6.83,3.4,10.25,5.08,1.58.78,3.15,1.39,4.91.3.82-.5,1.82-.28,2.79-.18,2.01.22,2.89-.43,2.41-2.25-.89-3.39.27-5.88,2.54-8.2.59-.6.93-1.45,1.32-2.23.63-1.27,1.51-2.28,2.66-3.14,2.43-1.81,2.48-1.99,1.59-4.89-.33-1.1.21-1.82.76-2.61,2.65-3.76,5.25-7.56,8.21-11.07,2.01-2.38,2.99-5.31,4.11-8.06.91-2.25.23-4.96.03-7.46-.82-10.12-1.06-20.25-.36-30.38.08-1.14.35-2.23.77-3.28,2.73-6.84,4.98-13.87,7.86-20.66,1.41-3.31,1.64-6.9,2.31-10.38,1.18-6.17,2.91-12.21,5.75-17.76,2.36-4.6,4.52-9.34,7.57-13.59,1.17-1.64,1.64-3.78,2.4-5.71.28-.71-.08-1.35-.4-1.97-1.31-2.53-2.93-4.89-3.38-7.82-.22-1.41-1.56-2.04-2.87-2.34-1.43-.33-2.89-.57-4.35-.73-1.23-.14-2.39-.42-3.48-.98-2.44-1.25-3.28-2.88-2.66-5.53.27-1.16.18-2.04-.37-3.17-.72-1.49-.96-3.33-.33-4.96.46-1.2.38-1.97-.74-2.6-.3-.17-.58-.38-.85-.6-1.72-1.46-1.88-2.74-.37-4.43,1.39-1.55,2.92-2.96,4.16-4.64.41-.56.92-1.08.99-1.8.23-2.4-.11-4.82.42-7.23.2-.89-.54-1.83-1.11-2.57-1.93-2.48-.8-4.95-.07-7.42.18-.6.83-.85,1.41-1.07,1.36-.5,2.26-1.5,3.11-2.65,2.44-3.28,5.52-5.7,9.49-6.93,3.98-1.24,7.94-2.46,12.16-2.57,1.11-.03,2.26-.27,3.3-.66,2.6-.97,4.96-.24,7.26.87,2.44,1.18,4.56,2.83,6.41,4.82,2.17,2.35,4.56,4.5,6.81,6.77,4.55,4.59,7.99,9.86,7.84,16.69-.07,3.58-.84,7.05-2.32,10.33-.79,1.75-1.46,3.5-1.6,5.45-.22,3.03-2.07,5.27-3.85,7.51-.91,1.15-1.94,2.21-2.42,3.66-.31.93-.98,1.67-1.9,2.04-1.24.51-1.4,1.34-1.06,2.51.29,1,.44,2.03.65,3.05.51,2.48,1.64,4.41,3.94,5.8,2.84,1.72,5.04,4.23,6.77,7.09,2.6,4.32,4.9,8.77,6.32,13.64,1.33,4.57,3.25,8.98,3.81,13.76.67,5.68.97,11.4.95,17.11-.03,10.32.17,20.64.7,30.93.61,11.75,1.25,23.53,3.03,35.19,1.14,7.47,1.46,14.99,2.11,22.5.31,3.54.8,7.06,1.23,10.58.24,1.98-1.33,5.22-3.03,6.17-.5.28-.99.25-1.5.08-2.19-.72-4.3.13-6.42.4-1.51.2-2.27,2.32-2.11,4.49.36,5.12,1.75,10.06,2.6,15.09.75,4.44,1.58,8.87,2.41,13.3.19,1.02.48,2.02.79,3.01.49,1.57,1.13,3.16,1.14,4.79.02,3.16.73,6.14,1.63,9.14.6,2.01,1.21,3.95,2.38,5.71,3.66,5.52,6.4,11.51,8.62,17.73.76,2.14,1.87,4.07,3.06,6,4.17,6.79,8.65,13.41,11.71,20.83,1.49,3.61,3.45,6.99,5.38,10.38,3.99,7.02,6.74,14.65,10.46,21.79,2.54,4.87,4.54,9.92,6.18,15.14.65,2.08,1.19,4.16.79,6.38-.09.5-.18,1.13.04,1.53.78,1.4.94,2.7.05,4.13-.36.58-.09,1.19.74,1.29,2.29.28,2.89,2.02,3.12,3.87.16,1.22.31,2.41.83,3.51,1.43,3.02,1.93,6.28,2.42,9.53.4,2.73-.06,3.47-2.72,4.53-2.74,1.09-5.61,1.8-8.48,2.47-3.13.72-6.44,1.1-9.22,2.64-3.81,2.11-7.74,2.51-11.95,2.69-10.67.45-21.33.23-32,.34-.43,0-.87,0-1.3-.09-1.83-.35-2.63-1.73-2.01-3.47.47-1.31,1.39-2.1,2.73-2.56,2.24-.77,4.56-1.03,6.87-1.38,3.24-.49,6.02-2.15,8.98-3.34.64-.26,1.35-.69,1.29-1.48-.09-1.23.67-1.61,1.56-2.08,1.89-1,3.57-2.2,3.33-4.74-.06-.6.38-.96.79-1.26,1.39-1.04,2.08-2.52,2.61-4.1.41-1.24.77-2.5,1.89-3.33.72-.53.56-1.13.18-1.82-2.19-4.03-4.36-8.08-6.53-12.13-1.07-1.99-1.74-4.1-2.25-6.33-1.13-4.88-2.54-9.62-5.36-13.98-3.86-5.95-7.12-12.3-10.64-18.47-4.68-8.21-9.73-16.2-14.7-24.24-2.19-3.54-4.35-7.1-6.23-10.81-5.53-10.9-10.82-21.92-15.5-33.22-.38-.91-.51-2.29-1.73-2.33-1.05-.03-1.33,1.25-1.79,2.04-.74,1.27-1.37,2.61-1.99,3.94-1.42,3.07-2.79,6.16-4.2,9.23-.9,1.98-1.55,4.02-2.09,6.13-1.95,7.63-3.45,15.41-6.98,22.56-.46.94-.74,1.95-.7,3.01.11,3.43-.62,6.71-1.63,9.95-2.02,6.47-2.92,13.19-4.32,19.8-2.09,9.85-4.92,19.49-7.79,29.13-1.06,3.57-2.29,7.1-3.37,10.66-.81,2.67-1.87,5.2-3.31,7.6-.83,1.38-1.61,2.67-3.32,3.05-1.07.24-1.36,1.06-1.22,1.99.76,4.99-.79,10.02.26,15.01.12.58.05,1.22-.04,1.81-.48,3.26-1.1,3.94-4.37,4.43-3.53.53-7.1.34-10.64.15-3.8-.2-7.59-.64-11.39-.94-1.7-.13-3.39-.22-5.22-.96ZM76.16,216.48c-.47-.02-.84.17-1.09.57-.95,1.55-1.89,3.1-2.83,4.66-.28.46-.47.97-.03,1.43,1.69,1.76.64,3.12-.6,4.49-.58.64-1.31,1.27-1.11,2.24.32,1.62.75,3.22,1.82,4.53,1.27,1.56,2.11,1.47,3.05-.31,1.38-2.63,2.37-5.39,2.55-8.38.09-1.36.56-2.51,1.55-3.47.5-.48,1-.97.99-1.75-.03-1.94-2.34-4.11-4.31-4.01ZM59.44,231.93c2.64,1.83,5.39,3.36,8.3,4.59.16.07.33.12.5.12,1.18.03,1.33-.91,1.54-1.73.22-.87-.26-1.32-1.1-1.33-1.14-.01-2.31-.08-3.15-.91-1.8-1.78-3.89-1.24-6.09-.74Z"/></g></svg>