<?xml version="1.0" encoding="UTF-8"?><svg id="Layer_2" xmlns="http://www.w3.org/2000/svg" viewBox="0 0 145.06 430.08"><g id="Layer_1-2"><path d="M91.56,430.08c.12-2.09.31-4.24,1.3-6.06,1.19-2.19.64-4.18-.1-6.19-.83-2.25-1.84-4.44-2.76-6.66-.19-.45-.46-.93-.45-1.39,0-1.22-.44-2.29-.91-3.37-.87-1.98-1.53-4.03-1.86-6.17-.39-2.5-1.75-4.75-1.92-7.31-.28-4.3-.61-8.6-.88-12.9-.4-6.39.51-12.65,1.12-18.96.27-2.76.14-5.55.12-8.32,0-.73-.23-1.35-.91-1.7-.93-.48-1.85-.99-2.83-1.37-.88-.35-1.25-.07-1.36.88-.07.61-.05,1.23-.04,1.85.01,4.44-.01,8.88.05,13.32.06,4.45-.43,8.85-.96,13.25-.18,1.46-.41,2.93-.2,4.42.05.36.03.75-.07,1.1-.72,2.39-.48,4.9-.91,7.32-.02.12-.06.26-.02.37.77,1.98-.42,3.23-1.59,4.54-.9,1.01-1.66,2.14-2.52,3.19-.53.64-.62,1.3-.35,2.07.6,1.71.69,3.49.71,5.29.02,1.33-.37,2.49-1.42,3.27-2.03,1.5-3.48,3.68-5.78,4.86-.51.26-.78.75-1.03,1.26-1.64,3.44-4.23,5.56-8.17,5.62-5.67.08-11.35.1-17.02.08-1.16,0-2.32-.26-3.48-.43-.76-.11-1.2-.53-1.29-1.33-.24-2.24-.09-4.36.94-6.47,1.38-2.8,3.37-5.07,5.32-7.45,1.77-2.17,3.91-4.09,5.22-6.67.51-1,1.44-1.78,1.67-3,.3-1.64-.03-2.24-1.68-2.68-.53-.14-1.1-.22-1.6-.43-1.46-.61-2.1-1.61-1.58-3.08.78-2.19.46-4.21-.24-6.31-.72-2.16-1.38-4.34-2.17-6.48-1.02-2.78-1.57-5.7-1.89-8.65-.08-.74-.04-1.48.14-2.21.9-3.61.88-7.33,1.31-11,.07-.61.09-1.26-.04-1.84-.9-3.91-1.11-7.93-1.94-11.85-.39-1.82-.4-1.83-2.32-1.84-1.72-.01-3.43.22-5.17.05-1.13-.11-2.19-.26-3.18-.83-.48-.27-1-.54-1.53-.64-1.65-.31-2.2-1.42-2.31-2.91-.26-3.44-.51-6.88-.77-10.32-.45-6.02-.9-12.04-1.35-18.06-.2-2.7-.43-5.41-.55-8.11-.31-7.02-.84-14.03-.82-21.06.01-5.24.09-10.48.12-15.72.02-4.74.13-4.06-3.5-5.19-1.58-.49-3.13-1.19-4.56-2.02-2.61-1.52-4.29-3.81-4.94-6.79-.32-1.45-.64-2.88-1.18-4.27-.5-1.3-.37-2.68-.13-4.02.22-1.2.15-2.31-.4-3.42-.42-.84-.5-1.76-.55-2.69-.15-2.77-.42-5.53-.55-8.3-.16-3.4-1.17-6.68-1.43-10.06-.07-.87-.12-1.7.01-2.57.26-1.67.17-3.33-.38-4.93-.84-2.42-1.15-4.94-1.23-7.46-.12-3.76-.5-7.5-.75-11.25-.45-6.7-1.03-13.38-1.32-20.09-.13-2.87.05-5.79-.58-8.65-.31-1.41.11-2.85.49-4.19.64-2.25,1.08-4.55,1.93-6.75.36-.93.72-1.81,1.28-2.64.7-1.03.99-2.26,1.29-3.45,1.06-4.13,2.68-8.07,3.97-12.12.81-2.52,1.89-4.93,2.68-7.47.78-2.51,2.35-4.75,4.09-6.76.95-1.11,1.66-2.28,2.03-3.68.5-1.9,1.5-3.65,1.71-5.65.02-.24.12-.49.25-.69,1.42-2.19,1.89-4.8,3.11-7.08.3-.56.37-1.17.55-1.76.55-1.83,1.06-3.68,1.7-5.47.61-1.71.97-3.43.84-5.25-.06-.87.02-1.71.52-2.48.86-1.35,1.94-2.55,2.68-3.98.29-.56.92-.73,1.53-.94,4.01-1.43,8.23-2.04,12.29-3.23,1.24-.36,2.45-.84,3.76-.95.42-.03.85-.2,1.22-.4,2.88-1.55,5.95-2.72,8.8-4.28,2.26-1.24,4.38-3.03,5.11-5.84.14-.53.37-1.05.63-1.54,1.79-3.46.66-6.39-1.5-9.18-.71.23-.55.71-.46,1.1.09.42.3.81.43,1.22.17.53.38,1.17-.1,1.56-.63.51-.98-.21-1.34-.55-.54-.52-1.08-.45-1.7-.22-2.53.95-5.21,1.39-7.67,2.58-.85.41-1.92.46-2.89.49-1.06.03-1.74-.67-1.92-1.67-.18-.98-.67-1.72-1.42-2.3-1-.77-1.15-1.85-.68-2.83,1.06-2.24,1.96-4.55,4.47-5.85,1.17-.61,1.91-2.16,2.63-3.41.33-.58.35-1.65-.2-2.11-.98-.81-.72-1.63-.52-2.6.18-.84-.2-1.69-.1-2.57.36-3.36,2.37-5.59,4.89-7.51.19-.15.44-.23.64-.37.36-.25.76-.5.7-1-.07-.56-.58-.53-.99-.63-1.98-.45-3.95-.95-5.94-1.34-1.1-.22-2.14-.6-3.16-1.03-2.03-.86-3.05-3.47-2.1-5.45.5-1.04,1.51-1.38,2.59-1.5,2.51-.28,5.02-.55,7.53-.82,2.59-.29,2.54-.29,2.62-2.89.1-3.45-.23-6.91.3-10.34.53-3.46,1.26-4.17,4.75-4.86C64.98-.05,68.61.04,72.23,0c1.97-.02,3.95.04,5.92.04,2.28,0,4.57-.07,6.8.53.35.09.74.12,1.1.1,4.17-.21,8.19.88,12.27,1.48.86.13,1.69.39,2.44.83,1.41.83,2.36,1.98,2.35,3.71,0,3.39-.01,6.78-.05,10.18,0,.61-.14,1.22-.27,1.82-.33,1.61-.27,1.72,1.43,1.99,1.83.29,3.66.54,5.48.82,1.34.2,2.69.39,3.97.87,1.39.53,1.59.8,1.62,2.32,0,.55.02,1.12-.09,1.66-.27,1.29-.94,2.28-2.31,2.61-2.46.58-4.89,1.28-7.46,1.12-1.05-.06-2.09.09-3.09.46-.66.24-1.08.6-.86,1.37.33,1.2.44,2.42.51,3.66.01.24.04.55.19.7,1.03,1.09,1.32,2.5,1.86,3.83.55,1.35,1.48,2.55,2.28,3.79.76,1.17.76,1.46-.19,2.36-1.45,1.37-1.22,3.77.47,4.87-.03.29-.28.36-.48.49-1.31.86-1.4,1.02-.68,2.35,1.39,2.52,1.54,5.15.88,7.88-.43,1.8-1.19,2.49-3.08,2.55-1.15.04-2.24.76-3.39.15-.08.2-.18.33-.15.41.16.49,1.09.61.72,1.33-.46.87-1.42.64-2.17.74-.71.1-.83-.63-.95-1.16-.28-1.22-.42-2.45.27-3.59.54-.89.65-1.84.64-2.84,0-.74-.11-1.53.4-2.14.73-.87-.04-1.26-.54-1.59-.74-.49-1.17.12-1.37.72-.39,1.23-.44,2.61-1.27,3.63-1.63,1.98-1.44,3.68.12,5.69,1,1.29,1.61,2.87,2.97,3.93,2.06,1.61,4.31,2.83,6.8,3.63.53.17,1.1.26,1.56.54,3.81,2.34,8.15,3.1,12.38,4.1,2.33.56,4.61,1.36,6.99,1.7.29.04.64.17.83.38,1.36,1.47,3.12,2.67,3.19,4.98.05,1.43.41,2.8,1.12,4.06.15.26.27.58.29.87.29,4.01,1.78,7.81,2.09,11.82.14,1.8.83,3.47,1.16,5.22.55,2.89.88,5.81,1.79,8.66.82,2.56,1.11,5.3,1.12,8.03,0,1.97-.01,3.95-.01,5.92,0,1.67.26,3.26.71,4.9.55,1.99.66,4.13.74,6.22.14,3.58.72,7.1,1.19,10.65.49,3.6.82,7.22,1.44,10.8.28,1.64.46,3.3.79,4.92.34,1.7.41,3.42.53,5.14.13,1.79.46,3.5.97,5.24.52,1.74.64,3.64.68,5.48.05,2.27-.19,4.54-.26,6.81-.07,2.15-.18,4.28.09,6.45.43,3.42.53,6.86-.4,10.25-.33,1.2-.2,2.46,0,3.68.19,1.18.09,2.32-.02,3.49-.17,1.81-.08,3.65-.27,5.45-.17,1.66-.18,3.3-.13,4.96.03,1,.06,2.02.47,2.9.86,1.86.38,3.62-.13,5.4-.1.35-.43.7-.39,1.02.32,3.02-1.21,5.89-.62,8.96.4,2.05.33,4.17-.66,6.15-.52,1.06-.64,2.25-.87,3.4-.47,2.34-1.4,4.46-2.82,6.37-.37.49-.7,1.01-1.01,1.55-.34.61-.77,1.19-1.4,1.43-2.02.78-3.67,2.28-5.76,2.92-.95.29-2.05.87-2.37,1.63-.38.92-.21,2.2.06,3.23,1.62,6.08,2.62,12.29,4.05,18.4.76,3.23,1.42,6.5,2.03,9.76.14.72.28,1.46.51,2.15.44,1.3.65,2.61.72,3.98.1,2.17.94,4.2,1.35,6.32.84,4.29,1.67,8.58,1.89,12.97.08,1.62-.26,3.2-.57,4.76-.45,2.25-.58,4.52-.55,6.81.03,2.29-.14,4.56-.49,6.81-.11.69,0,1.35.07,2.02.26,2.47-1,3.89-3.45,3.53-2.97-.43-6.03-.56-8.84-1.83-.44-.2-.94-.29-1.43-.35-1.57-.17-2.17.43-1.63,1.91.7,1.9,1.43,3.81,2.47,5.56.22.37.61.65.63,1.1.06,1.46.7,2.74,1.22,4.05.67,1.7.72,3.49.86,5.27.22,2.58.43,5.15.61,7.73.24,3.51.08,7.04.46,10.52.28,2.54.68,5.11,1.11,7.65.55,3.27.29,6.51-.99,9.6-.87,2.11-.09,4.11,2.1,4.88,1.65.58,3.21,1.26,4.52,2.44,2.04,1.85,3.73,4.09,4.66,6.57.74,1.98.9,4.22-.08,6.59-1.78,4.34-4.92,6.61-9.23,7.72-1.97.51-3.85,1.28-5.85,1.7-1.21.25-2.51.82-2.67,2.43h-30.35ZM53.35,34.02c-.9.04-1.14.48-1.41.87-1.03,1.46-1.26,3.18-1.57,4.87-.11.63-.17,1.4.51,1.6.81.23.97-.66,1.11-1.18.54-1.99.37-4.11,1.37-6.16ZM29.13,177.55c-.76,1.24-1.64,2.37-1.39,3.99.23,1.44.2,2.93.29,4.39.16,0,.32,0,.49,0-.13-2.82.86-5.53.61-8.38ZM45.69,53.88c0,.58,0,1.13.56,1.33.5.18.74-.29,1.04-.6.3-.31.63-.58.95-.87.67-.6.58-1.29.24-2.02-.2-.43-.51-.56-.88-.33-.96.61-1.77,1.34-1.91,2.49ZM27.26,194.28c.34-1.69.85-3.42.39-5.59-1.01,2.06-.91,3.79-.39,5.59ZM26.89,203.81c.65-1.92.72-2.98.34-4.69-.38,1.53-.48,2.95-.34,4.69Z"/></g></svg>