<?xml version="1.0" encoding="UTF-8"?><svg id="Layer_2" xmlns="http://www.w3.org/2000/svg" viewBox="0 0 194.29 67.31"><defs><style>.cls-1,.cls-2{fill:none;stroke:#103828;stroke-miterlimit:10;}.cls-3{font-family:Manrope-ExtraLight, Manrope;font-size:13.73px;font-variation-settings:'wght' 200;font-weight:200;}.cls-4{fill:#e7ffd9;}.cls-5{fill:#ffbc38;}.cls-2{stroke-linecap:round;}</style></defs><g id="Layer_1-2"><path class="cls-4" d="M181.99,66.81H12.31c-6.52,0-11.81-5.29-11.81-11.8V12.31C.5,5.79,5.79.5,12.31.5h169.68c6.52,0,11.81,5.29,11.81,11.81v42.7c0,6.52-5.29,11.8-11.81,11.8"/><path class="cls-1" d="M12.3.5h169.68c6.52,0,11.81,5.29,11.81,11.81v42.69c0,6.52-5.29,11.81-11.81,11.81H12.31c-6.52,0-11.81-5.29-11.81-11.81V12.3C.5,5.79,5.79.5,12.3.5Z"/><path class="cls-5" d="M50.46,33.69c0,9.82-7.96,17.79-17.79,17.79s-17.79-7.96-17.79-17.79,7.96-17.79,17.79-17.79,17.79,7.96,17.79,17.79"/><path class="cls-1" d="M50.46,33.69c0,9.82-7.96,17.79-17.79,17.79s-17.79-7.96-17.79-17.79,7.96-17.79,17.79-17.79,17.79,7.96,17.79,17.79Z"/><text class="cls-3" transform="translate(63.09 31.59)"><tspan x="0" y="0">DOWNLOAD THE</tspan></text><text class="cls-3" transform="translate(63.09 48.07)"><tspan x="0" y="0">EXPO FLOOR MAP</tspan></text><line class="cls-2" x1="23.06" y1="29.2" x2="32.03" y2="29.2"/><line class="cls-2" x1="23.06" y1="42.02" x2="25.62" y2="42.02"/><line class="cls-2" x1="28.83" y1="42.02" x2="42.29" y2="42.02"/><line class="cls-2" x1="42.29" y1="25.35" x2="42.29" y2="42.02"/><line class="cls-2" x1="23.06" y1="29.2" x2="23.06" y2="42.03"/><line class="cls-2" x1="23.06" y1="36.9" x2="25.62" y2="36.9"/><line class="cls-2" x1="32.03" y1="29.2" x2="32.03" y2="36.9"/><line class="cls-2" x1="28.83" y1="36.9" x2="32.03" y2="36.9"/><line class="cls-2" x1="32.03" y1="25.35" x2="42.29" y2="25.35"/><line class="cls-2" x1="32.03" y1="29.2" x2="34.6" y2="29.2"/><line class="cls-2" x1="37.8" y1="29.2" x2="42.29" y2="29.2"/><line class="cls-2" x1="32.03" y1="25.35" x2="32.03" y2="29.2"/><line class="cls-2" x1="32.03" y1="40.1" x2="32.03" y2="42.02"/></g></svg>