<?xml version="1.0" encoding="UTF-8"?><svg id="Layer_2" xmlns="http://www.w3.org/2000/svg" viewBox="0 0 65.07 182.23"><defs><style>.cls-1{fill:#e7ffd9;}</style></defs><g id="Layer_1-2"><path class="cls-1" d="M25.31,91.19c7.2-1.24,12.04-8.08,10.8-15.28l-9.59-55.75c-.62-3.6,1.8-7.02,5.4-7.64l4.56-.79-2.02-11.74L10.99,4.04C3.79,5.27-1.05,12.12.19,19.32l10.93,63.57c.62,3.6-1.8,7.02-5.4,7.64l2.02,11.74c3.6-.62,7.02,1.8,7.64,5.4l10.93,63.57c1.24,7.2,8.08,12.04,15.28,10.8l23.47-4.04-2.02-11.74-4.56.79c-3.6.62-7.02-1.8-7.64-5.4l-9.59-55.75c-1.24-7.2-8.08-12.04-15.28-10.8l-4.57.78-.67-3.91,4.56-.78Z"/></g></svg>