<?xml version="1.0" encoding="UTF-8"?><svg id="Layer_2" xmlns="http://www.w3.org/2000/svg" viewBox="0 0 296.57 73.11"><defs><style>.cls-1{stroke:#103828;}.cls-1,.cls-2{fill:none;stroke-miterlimit:10;}.cls-3{fill:#84ec5a;}.cls-4{font-family:Manrope-ExtraLight, Manrope;font-size:18.26px;font-variation-settings:'wght' 200;font-weight:200;}.cls-5{fill:#103828;}.cls-2{stroke:#000;}.cls-6{fill:#00d4f0;}</style></defs><g id="Layer_1-2"><path class="cls-3" d="M283.53.5H13.05C6.12.5.5,6.12.5,13.05v47.02c0,6.93,5.62,12.55,12.55,12.55h270.48c6.93,0,12.55-5.62,12.55-12.55V13.05c0-6.93-5.62-12.55-12.55-12.55"/><path class="cls-1" d="M13.05.5h270.48c6.92,0,12.55,5.62,12.55,12.55v47.02c0,6.92-5.62,12.55-12.55,12.55H13.05c-6.92,0-12.55-5.62-12.55-12.55V13.05C.5,6.12,6.12.5,13.05.5Z"/><path class="cls-6" d="M60.92,36.19c0,11.86-9.62,21.48-21.48,21.48s-21.48-9.62-21.48-21.48,9.62-21.48,21.48-21.48,21.48,9.62,21.48,21.48"/><circle class="cls-2" cx="39.44" cy="36.19" r="21.48"/><text class="cls-4" transform="translate(74.17 33.06)"><tspan x="0" y="0">MAKE CONNECTIONS </tspan></text><text class="cls-4" transform="translate(74.17 53.92)"><tspan x="0" y="0">THAT MATTER.</tspan></text><path class="cls-5" d="M38.21,43.55c.17,0,.35.06.5.17l.39.29c.37.28.44.79.17,1.15l-1.46,1.95c-.16.21-.4.32-.65.32-.17,0-.35-.06-.5-.17l-.39-.29c-.37-.28-.45-.79-.18-1.15l1.47-1.96c.16-.21.4-.32.65-.32M38.21,42.8c-.49,0-.96.23-1.25.62l-1.46,1.95c-.25.34-.36.75-.29,1.17.06.41.28.78.62,1.03l.39.29c.28.21.61.32.95.32.49,0,.96-.23,1.25-.62l1.47-1.95c.52-.69.37-1.68-.33-2.2l-.39-.29c-.28-.21-.61-.32-.95-.32"/><path class="cls-5" d="M34.74,39.51c.16,0,.31.05.44.14l.39.3c.37.28.4.88.05,1.34l-1.86,2.49c-.23.3-.55.47-.86.47-.16,0-.31-.05-.44-.14l-.4-.3c-.36-.27-.39-.83-.09-1.28l1.16-1.55s.02-.03.04-.05l.7-.94c.23-.3.55-.47.86-.47M34.74,38.76c-.55,0-1.1.29-1.46.77l-.71.94-.04.05-1.16,1.55c-.55.81-.43,1.83.24,2.33l.4.3c.25.19.56.29.89.29.55,0,1.1-.29,1.46-.77l1.86-2.49c.59-.79.5-1.86-.2-2.39l-.39-.3c-.26-.19-.56-.29-.89-.29"/><path class="cls-5" d="M30.16,28.18c.11,0,.22.03.33.09l1.7.99c.31.18.42.57.25.86-.17.29-.27.49-.41.73-.14.23-.39.68-.58.99l-2.68,4.62c-.18.31-.41.71-.51.89-.1.18-.25.44-.43.74l-.12.21c-.12.21-.34.32-.57.32-.11,0-.22-.03-.33-.09l-1.7-.99c-.31-.18-.42-.58-.24-.89l4.71-8.14c.12-.21.34-.32.57-.32M30.16,27.43c-.5,0-.96.27-1.21.7l-4.71,8.14c-.19.32-.24.7-.14,1.06.1.36.33.67.65.85l1.7.99c.21.12.46.19.7.19.5,0,.96-.27,1.21-.7l.12-.21.27-.47.16-.27.25-.43.27-.46,2.68-4.62.57-.99c.07-.12.13-.23.19-.34.06-.11.13-.24.22-.38.18-.32.23-.7.12-1.06-.1-.35-.33-.64-.65-.82l-1.7-.99c-.21-.12-.46-.19-.7-.19"/><path class="cls-5" d="M31.89,39.37c.14,0,.28.05.4.13l.33.25c.14.1.23.26.26.43.02.15,0,.3-.08.43l-1.17,1.55s-.05.07-.08.11l-.05.07c-.12.17-.32.26-.53.26-.14,0-.28-.05-.4-.13l-.33-.25c-.14-.11-.23-.26-.26-.44-.02-.17.02-.35.12-.49l1.26-1.67c.13-.17.32-.26.53-.26M31.89,38.62c-.45,0-.86.21-1.13.56l-1.25,1.67c-.23.3-.32.67-.27,1.05.05.37.25.7.55.93l.33.25c.25.18.54.28.85.28.45,0,.86-.21,1.13-.56l.06-.07c.04-.07.06-.09.08-.11l1.16-1.55.03-.03.02-.04c.16-.27.22-.6.18-.91-.05-.37-.25-.7-.55-.93l-.33-.25c-.25-.18-.54-.28-.85-.28"/><path class="cls-5" d="M36.51,41.51c.16,0,.32.05.46.15l.39.29c.37.28.41.84.1,1.25l-1.69,2.26c-.2.26-.49.41-.77.41-.16,0-.32-.05-.46-.15l-.39-.29c-.37-.27-.41-.83-.1-1.25h0s.06-.08.08-.12l1.66-2.22c.19-.21.45-.33.71-.33M36.51,40.76c-.47,0-.93.21-1.26.57l-.02.03-.02.03-1.66,2.22s-.04.05-.06.07v.02s-.03.03-.03.03c-.56.75-.45,1.78.25,2.3l.39.29c.26.2.57.3.91.3.53,0,1.04-.26,1.37-.71l1.69-2.26c.56-.75.45-1.78-.25-2.3l-.39-.29c-.26-.19-.57-.3-.91-.3"/><path class="cls-5" d="M52.18,38.29h0s0,0,0,0c0,0,0,0,0,0M52.21,36.88l-.66,1-.25.38.21.4.21.39h.45s.09,0,.09,0l.09-.02.99-.24-.52-.87-.62-1.03Z"/><path class="cls-5" d="M41.8,30.86c1.09,0,2.19.12,3.3.47.35.11.71.17,1.09.17.57,0,1.17-.13,1.75-.38.03.01.06.03.1.05l3.66,6.31.2.35-2.21,1.76s-.02.02-.04.03c-.02-.01-.04-.03-.06-.04l-8.14-5.53s-.02-.01-.03-.02c-.74-.39-1.26-.6-1.71-.6-.58,0-1.07.34-1.78,1.07-.64.65-1.24,1.21-2.09,1.46-.23.07-.4.11-.54.11-.17,0-.3-.05-.41-.18-.18-.2-.3-.44,0-.91.26-.4.51-.82.74-1.22.29-.51.6-1.03.94-1.51.49-.69,1.19-1.07,2.13-1.17,1.02-.1,2.05-.21,3.09-.21M41.8,30.11h0c-1.08,0-2.14.11-3.17.21-1.15.12-2.05.61-2.67,1.47-.36.51-.68,1.05-.98,1.57-.23.4-.46.8-.72,1.19-.44.66-.42,1.29.06,1.82.26.29.58.43.97.43.26,0,.51-.07.76-.14,1.02-.3,1.72-.95,2.41-1.65.7-.71.99-.84,1.25-.84s.67.15,1.34.5l8.12,5.52.05.03.56.39.41-.48,2.17-1.73.51-.4-.33-.56-.2-.35-3.67-6.31-.11-.2-.21-.1-.12-.05-.3-.14-.3.13c-.49.21-.98.32-1.45.32-.3,0-.59-.04-.86-.13-1.06-.34-2.22-.51-3.53-.51"/><path class="cls-5" d="M32.47,31.19c.92.79,1.71.92,2.48,1.05.29.05.56.09.85.17-.23.35-.43.71-.64,1.06-.23.4-.47.81-.72,1.19-.39.59-.37,1.12.04,1.58.26.28.55.37.82.37.26,0,.5-.07.7-.13.97-.29,1.66-.92,2.33-1.6.62-.62.96-.91,1.41-.91.35,0,.77.19,1.43.53l8.13,5.52c.54.37.81.79.77,1.22-.05.5-.48.91-.87,1.08-.15.07-.3.1-.43.1-.11,0-.21-.03-.29-.08,0,0-.01,0-.02-.01l-4.93-3.19s-.1-.04-.15-.04c-.09,0-.18.04-.23.13-.08.13-.05.3.08.38l4.68,3.03c.13.2,0,.49-.17.7-.25.29-.63.49-1.09.49-.29,0-.6-.08-.92-.27l-3.87-2.21s-.09-.04-.14-.04c-.1,0-.19.05-.24.14-.07.13-.03.3.1.38l3.86,2.21c.13.08.26.14.39.19.13.2,0,.52-.17.76-.28.41-.78.75-1.21.75-.1,0-.2-.02-.29-.06-.02,0-.04-.02-.07-.02-.01-.01-.03-.02-.05-.03l-3.45-1.79s-.08-.03-.13-.03c-.1,0-.2.05-.24.15-.07.14-.02.3.12.37l3.19,1.66c-.56.57-1.23.76-1.89.76-.99,0-1.95-.43-2.47-.66l.48-.64c.43-.57.3-1.38-.27-1.81l-.39-.29c-.24-.18-.52-.26-.79-.26-.04,0-.09,0-.14,0,.22-.58.08-1.21-.38-1.56l-.39-.29c-.21-.16-.46-.23-.72-.23-.09,0-.18,0-.27.03.2-.6.07-1.23-.37-1.56l-.39-.3c-.2-.15-.44-.22-.69-.22-.48,0-1,.26-1.35.74l-.18.25c-.07-.22-.21-.41-.4-.56l-.33-.25c-.2-.15-.44-.23-.69-.23-.36,0-.7.17-.91.46l-.23.31-2.1-1.88,3.83-6.58ZM32.27,30.04l-.45.78-3.83,6.58-.31.53.46.41,2.1,1.88.61.55.49-.66.23-.31c.08-.1.19-.16.31-.16.09,0,.17.03.24.08l.33.25c.08.06.12.14.14.19l.45,1.37.87-1.16.18-.25c.2-.26.49-.43.75-.43.1,0,.18.02.24.07l.39.3c.17.12.21.42.11.72l-.42,1.24,1.28-.27s.08-.01.12-.01c.11,0,.2.03.27.08l.39.29c.18.14.23.42.13.7l-.43,1.14,1.21-.13s.04,0,.06,0c.09,0,.21.02.34.11l.39.29c.12.09.2.22.22.37.02.14-.01.28-.1.4l-.48.64-.56.75.85.39c.52.24,1.61.73,2.78.73.97,0,1.79-.33,2.43-.99l.05-.05c.11.03.22.04.33.04.8,0,1.48-.57,1.83-1.07.2-.29.32-.57.35-.84,0,0,0,0,.01,0,.64,0,1.25-.27,1.66-.75.17-.21.29-.43.36-.65.04,0,.07,0,.11,0,.24,0,.48-.05.73-.16.6-.27,1.24-.89,1.31-1.7.04-.41-.05-1.2-1.09-1.91l-8.13-5.53-.04-.02-.04-.02c-.67-.35-1.22-.62-1.78-.62-.76,0-1.28.47-1.94,1.13-.62.63-1.21,1.17-2.01,1.41-.16.05-.34.1-.49.1-.12,0-.19-.03-.27-.12-.11-.12-.24-.27.02-.67.27-.41.51-.83.74-1.23.2-.34.4-.69.62-1.03l.55-.86-.98-.27c-.32-.09-.62-.14-.92-.19-.73-.12-1.36-.22-2.12-.88l-.68-.59Z"/><path class="cls-5" d="M50.35,28.18c.23,0,.45.12.57.32l4.71,8.14c.18.31.07.71-.24.89l-1.7.99c-.1.06-.21.09-.33.09-.23,0-.44-.12-.57-.32l-.12-.21c-.18-.31-.33-.57-.43-.74-.1-.18-.33-.57-.51-.89l-2.68-4.62c-.18-.31-.44-.76-.58-.99-.14-.23-.24-.43-.41-.73-.17-.29-.06-.68.25-.86l1.7-.99c.1-.06.21-.09.33-.09M50.35,27.43c-.25,0-.49.06-.7.19l-1.7.99c-.32.18-.55.48-.65.82-.11.36-.06.74.12,1.06.09.15.15.27.22.39.06.11.12.22.19.34l.57.99,2.69,4.62.29.5.22.38.16.27.27.47.12.21c.25.43.71.7,1.21.7.25,0,.49-.07.7-.19l1.7-.99c.32-.19.55-.49.65-.85.1-.36.05-.74-.14-1.06l-4.71-8.14c-.25-.43-.72-.7-1.21-.7"/></g></svg>