<?xml version="1.0" encoding="UTF-8"?><svg id="Layer_2" xmlns="http://www.w3.org/2000/svg" viewBox="0 0 224.19 112.92"><defs><style>.cls-1{fill:#84ec5a;}.cls-2{fill:#103828;}</style></defs><g id="Layer_1-2"><path class="cls-2" d="M76.93,13.65h-40.12c-2.28,0-4.14,1.85-4.14,4.14v26.06c0,4.57,3.7,8.27,8.27,8.27h1.65v2.48h-1.65c-4.57,0-8.27,3.7-8.27,8.27v32.26c0,2.29,1.85,4.14,4.14,4.14h40.12c2.28,0,4.14-1.85,4.14-4.14v-32.26c0-4.57-3.7-8.27-8.27-8.27h-1.65v-2.48h1.65c4.57,0,8.27-3.7,8.27-8.27v-26.06c0-2.28-1.85-4.14-4.14-4.14M59.98,83.14h-6.2v-26.06h6.2v26.06ZM59.98,49.64h-6.2v-19.85h6.2v19.85ZM114.58,75.69h-17.37v-2.48h2.41c3.98,0,7.29-3.08,7.56-7.05l3.67-52.51h-21.1l-4.24,60.64c-.34,4.79,3.46,8.85,8.25,8.85h20.81v16.13h21.1V13.65h-21.1v62.04ZM191.51,29.78V13.65h-48.39v33.5l27.3-3.84v39.82h-6.2v-32.26h-21.09v44.26c0,2.29,1.85,4.14,4.14,4.14h40.12c2.29,0,4.14-1.85,4.14-4.14v-52.71c0-5.03-4.45-8.89-9.42-8.19l-17.88,2.51v-6.96h27.3Z"/><path class="cls-1" d="M11.99,55.22c4.57,0,8.27-3.7,8.27-8.27V11.58c0-2.28,1.85-4.14,4.14-4.14h2.89V0h-14.89C7.84,0,4.14,3.7,4.14,8.27v40.33c0,2.29-1.85,4.14-4.14,4.14v7.45c2.28,0,4.14,1.85,4.14,4.14v40.33c0,4.57,3.7,8.27,8.27,8.27h14.89v-7.45h-2.89c-2.28,0-4.14-1.85-4.14-4.14v-35.37c0-4.57-3.7-8.27-8.27-8.27h-2.89v-2.48h2.89Z"/><path class="cls-1" d="M212.19,55.22c-4.57,0-8.27-3.7-8.27-8.27V11.58c0-2.28-1.85-4.14-4.14-4.14h-2.89V0h14.89c4.57,0,8.27,3.7,8.27,8.27v40.33c0,2.29,1.85,4.14,4.14,4.14v7.45c-2.28,0-4.14,1.85-4.14,4.14v40.33c0,4.57-3.7,8.27-8.27,8.27h-14.89v-7.45h2.89c2.28,0,4.14-1.85,4.14-4.14v-35.37c0-4.57,3.7-8.27,8.27-8.27h2.9v-2.48h-2.9Z"/></g></svg>