<?xml version="1.0" encoding="UTF-8"?><svg id="Layer_2" xmlns="http://www.w3.org/2000/svg" viewBox="0 0 104.29 96.56"><defs><style>.cls-1{fill:#4ed858;}.cls-2{fill:#103828;}</style></defs><g id="Layer_1-2"><path class="cls-2" d="M35.76,6.46l-18.66.03c-1.06,0-1.92.86-1.92,1.93l.02,12.12c0,2.13,1.73,3.85,3.85,3.84h.77s0,1.15,0,1.15h-.77c-2.13,0-3.85,1.73-3.84,3.86l.03,15.01c0,1.06.86,1.92,1.93,1.92l18.66-.03c1.06,0,1.92-.86,1.92-1.93l-.03-15.01c0-2.13-1.73-3.85-3.85-3.84h-.77s0-1.15,0-1.15h.77c2.13,0,3.85-1.73,3.84-3.86l-.02-12.12c0-1.06-.86-1.92-1.93-1.92ZM27.92,38.8h-2.89s-.02-12.12-.02-12.12h2.89s.02,12.12.02,12.12ZM27.9,23.21h-2.89s-.02-9.23-.02-9.23h2.89s.02,9.23.02,9.23ZM53.32,35.29h-8.08s0-1.14,0-1.14h1.12c1.85,0,3.39-1.44,3.51-3.29l1.67-24.43-9.81.02-1.92,28.21c-.15,2.23,1.62,4.11,3.85,4.11l9.68-.02v7.5s9.83-.02,9.83-.02l-.07-39.83-9.81.02.05,28.86ZM89.07,13.87v-7.5s-22.53.04-22.53.04l.03,15.59,12.7-1.81.03,18.52h-2.89s-.03-15-.03-15l-9.81.02.04,20.59c0,1.06.86,1.92,1.93,1.92l18.66-.03c1.06,0,1.92-.86,1.92-1.93l-.04-24.52c0-2.34-2.08-4.13-4.39-3.8l-8.31,1.18v-3.24s12.69-.02,12.69-.02Z"/><path class="cls-1" d="M5.58,25.85c2.13,0,3.85-1.73,3.84-3.85l-.03-16.45c0-1.06.86-1.93,1.92-1.93h1.35s0-3.47,0-3.47h-6.93c-2.13.02-3.85,1.74-3.84,3.87l.03,18.76c0,1.06-.86,1.93-1.92,1.93v3.46c1.07,0,1.93.86,1.93,1.92l.03,18.76c0,2.13,1.73,3.85,3.85,3.84h6.93s0-3.48,0-3.48h-1.35c-1.06,0-1.93-.86-1.93-1.92l-.03-16.45c0-2.13-1.73-3.85-3.85-3.84h-1.35s0-1.15,0-1.15h1.35Z"/><path class="cls-1" d="M98.71,25.69c-2.13,0-3.85-1.72-3.85-3.84l-.03-16.45c0-1.06-.86-1.92-1.93-1.92h-1.35s0-3.46,0-3.46h6.93c2.13-.02,3.85,1.7,3.85,3.83l.03,18.76c0,1.06.86,1.92,1.93,1.92v3.46c-1.06,0-1.92.86-1.91,1.93l.03,18.76c0,2.13-1.72,3.85-3.84,3.85h-6.93s0-3.45,0-3.45h1.35c1.06,0,1.92-.87,1.92-1.93l-.03-16.45c0-2.13,1.72-3.85,3.84-3.85h1.35s0-1.16,0-1.16h-1.35Z"/><path class="cls-1" d="M46.59,74.55c2.13,0,3.85-1.73,3.84-3.85l-.02-14.05-9.81.02.03,16.74h-2.89s-.03-16.73-.03-16.73l-9.81.02.02,14.05c0,2.13,1.73,3.85,3.85,3.84h1.35s0,1.15,0,1.15h-1.35c-2.13,0-3.85,1.73-3.84,3.86l.03,16.93,9.81-.02-.03-19.63h2.89s.03,19.62.03,19.62l9.81-.02-.03-16.93c0-2.13-1.73-3.85-3.85-3.84h-1.35s0-1.15,0-1.15h1.35Z"/><path class="cls-1" d="M24.52,71.71l-.03-15.01-20.59.04c-1.06,0-1.92.86-1.92,1.93l.02,12.12c0,2.13,1.73,3.85,3.85,3.84h1.35s0,1.15,0,1.15h-1.35c-2.13,0-3.85,1.73-3.84,3.86l.03,15.01c0,1.06.86,1.92,1.93,1.92l20.59-.04-.03-17.89-9.81.02.02,10.39h-2.89s-.02-10.19-.02-10.19c0-1.06.86-1.93,1.92-1.93h3.27s0-3.47,0-3.47h-3.27c-1.06,0-1.93-.85-1.93-1.92v-7.31s2.87,0,2.87,0v7.5s9.83-.02,9.83-.02Z"/><path class="cls-1" d="M100.49,56.57l-18.66.03c-1.06,0-1.92.86-1.92,1.93l.06,35.98c0,1.06.86,1.92,1.93,1.92l18.66-.03c1.06,0,1.92-.86,1.92-1.93l-.06-35.98c0-1.06-.86-1.92-1.93-1.92ZM92.66,88.9h-2.89s-.04-24.82-.04-24.82h2.89s.04,24.82.04,24.82Z"/><path class="cls-1" d="M74.58,56.61l-20.59.04.07,39.83,9.81-.02v-7.5s10.76-.02,10.76-.02c1.06,0,1.92-.86,1.92-1.93l-.05-28.48c0-1.06-.86-1.92-1.93-1.92ZM63.86,85.49l-.03-16.35c0-2.13-1.73-3.85-3.85-3.84h-.9s0-1.15,0-1.15h7.63s.04,21.34.04,21.34h-2.89Z"/></g></svg>