<?xml version="1.0" encoding="UTF-8"?><svg id="Layer_2" xmlns="http://www.w3.org/2000/svg" viewBox="0 0 299.23 390.29"><defs><style>.cls-1{fill:#103828;}.cls-2{opacity:.35;}</style></defs><g id="Layer_1-2"><g class="cls-2"><rect class="cls-1" y="387.37" width="299.23" height=".46"/><rect class="cls-1" x="296.31" width=".5" height="387.6"/><rect class="cls-1" x="241.34" width=".46" height="387.6"/><rect class="cls-1" x="186.37" width=".46" height="387.6"/><rect class="cls-1" x="131.35" width=".5" height="387.6"/><rect class="cls-1" x="76.38" width=".46" height="387.6"/><rect class="cls-1" x="21.41" width=".46" height="387.6"/><rect class="cls-1" x="2.96" y="2.44" width="296.27" height=".5"/><rect class="cls-1" x="2.96" y="57.41" width="296.27" height=".5"/><rect class="cls-1" y="112.42" width="299.23" height=".46"/><rect class="cls-1" y="167.4" width="299.23" height=".5"/><rect class="cls-1" y="222.41" width="299.23" height=".41"/><rect class="cls-1" y="277.38" width="299.23" height=".46"/><rect class="cls-1" y="332.36" width="299.23" height=".5"/><path class="cls-1" d="M21.64,329.91c1.48,0,2.69,1.2,2.69,2.69s-1.2,2.69-2.69,2.69-2.69-1.2-2.69-2.69,1.2-2.69,2.69-2.69"/><path class="cls-1" d="M21.64,274.93c1.48,0,2.69,1.2,2.69,2.69s-1.2,2.69-2.69,2.69-2.69-1.2-2.69-2.69,1.2-2.69,2.69-2.69"/><path class="cls-1" d="M21.64,219.94c1.48,0,2.69,1.2,2.69,2.69s-1.2,2.69-2.69,2.69-2.69-1.2-2.69-2.69,1.2-2.69,2.69-2.69"/><path class="cls-1" d="M21.64,164.96c1.48,0,2.69,1.2,2.69,2.69s-1.2,2.69-2.69,2.69-2.69-1.2-2.69-2.69,1.2-2.69,2.69-2.69"/><path class="cls-1" d="M21.64,109.97c1.48,0,2.69,1.2,2.69,2.69s-1.2,2.69-2.69,2.69-2.69-1.2-2.69-2.69,1.2-2.69,2.69-2.69"/><path class="cls-1" d="M21.64,54.99c1.48,0,2.69,1.2,2.69,2.69s-1.2,2.69-2.69,2.69-2.69-1.2-2.69-2.69,1.2-2.69,2.69-2.69"/><path class="cls-1" d="M21.64,0c1.48,0,2.69,1.2,2.69,2.69s-1.2,2.69-2.69,2.69-2.69-1.2-2.69-2.69S20.15,0,21.64,0"/><path class="cls-1" d="M131.61,329.91c1.48,0,2.68,1.2,2.68,2.69s-1.2,2.69-2.68,2.69-2.68-1.2-2.68-2.69,1.2-2.69,2.68-2.69"/><path class="cls-1" d="M131.61,274.93c1.48,0,2.68,1.2,2.68,2.69s-1.2,2.69-2.68,2.69-2.68-1.2-2.68-2.69,1.2-2.69,2.68-2.69"/><path class="cls-1" d="M131.61,219.94c1.48,0,2.68,1.2,2.68,2.69s-1.2,2.69-2.68,2.69-2.68-1.2-2.68-2.69,1.2-2.69,2.68-2.69"/><path class="cls-1" d="M131.61,164.96c1.48,0,2.68,1.2,2.68,2.69s-1.2,2.69-2.68,2.69-2.68-1.2-2.68-2.69,1.2-2.69,2.68-2.69"/><path class="cls-1" d="M131.61,109.97c1.48,0,2.68,1.2,2.68,2.69s-1.2,2.69-2.68,2.69-2.68-1.2-2.68-2.69,1.2-2.69,2.68-2.69"/><path class="cls-1" d="M131.61,54.99c1.48,0,2.68,1.2,2.68,2.69s-1.2,2.69-2.68,2.69-2.68-1.2-2.68-2.69,1.2-2.69,2.68-2.69"/><path class="cls-1" d="M131.61,0c1.48,0,2.68,1.2,2.68,2.69s-1.2,2.69-2.68,2.69-2.68-1.2-2.68-2.69S130.12,0,131.61,0"/><path class="cls-1" d="M241.58,329.91c1.48,0,2.68,1.2,2.68,2.69s-1.2,2.69-2.68,2.69-2.68-1.2-2.68-2.69,1.2-2.69,2.68-2.69"/><path class="cls-1" d="M241.58,274.93c1.48,0,2.68,1.2,2.68,2.69s-1.2,2.69-2.68,2.69-2.68-1.2-2.68-2.69,1.2-2.69,2.68-2.69"/><path class="cls-1" d="M241.58,219.94c1.48,0,2.68,1.2,2.68,2.69s-1.2,2.69-2.68,2.69-2.68-1.2-2.68-2.69,1.2-2.69,2.68-2.69"/><path class="cls-1" d="M241.58,164.96c1.48,0,2.68,1.2,2.68,2.69s-1.2,2.69-2.68,2.69-2.68-1.2-2.68-2.69,1.2-2.69,2.68-2.69"/><path class="cls-1" d="M241.58,109.97c1.48,0,2.68,1.2,2.68,2.69s-1.2,2.69-2.68,2.69-2.68-1.2-2.68-2.69,1.2-2.69,2.68-2.69"/><path class="cls-1" d="M241.58,54.99c1.48,0,2.68,1.2,2.68,2.69s-1.2,2.69-2.68,2.69-2.68-1.2-2.68-2.69,1.2-2.69,2.68-2.69"/><path class="cls-1" d="M241.58,0c1.48,0,2.68,1.2,2.68,2.69s-1.2,2.69-2.68,2.69-2.68-1.2-2.68-2.69S240.09,0,241.58,0"/><path class="cls-1" d="M296.31,329.9h.5c1.27.14,2.28,1.18,2.41,2.46v.5c-.14,1.27-1.14,2.27-2.41,2.37-.09.05-.18.05-.27.05h-.23c-1.27-.14-2.32-1.14-2.41-2.41-.05-.09-.05-.18-.05-.27v-.23c.14-1.27,1.18-2.32,2.46-2.46"/><path class="cls-1" d="M296.31,274.93h.5c1.27.14,2.28,1.14,2.41,2.46v.46c-.14,1.32-1.14,2.32-2.41,2.41-.09.05-.18.05-.27.05h-.23c-1.27-.14-2.32-1.14-2.46-2.46v-.46c.14-1.32,1.18-2.32,2.46-2.46"/><path class="cls-1" d="M296.31,219.95h.5c1.27.14,2.28,1.14,2.41,2.46v.41c-.09,1.27-1.09,2.37-2.41,2.46-.09.05-.18.05-.27.05h-.23c-1.27-.14-2.37-1.18-2.46-2.5v-.41c.14-1.32,1.18-2.32,2.46-2.46"/><path class="cls-1" d="M296.31,164.94h.5c1.27.14,2.28,1.18,2.41,2.46v.5c-.14,1.27-1.14,2.27-2.41,2.37-.09.05-.18.05-.27.05h-.23c-1.27-.14-2.32-1.14-2.41-2.41-.05-.09-.05-.18-.05-.27v-.23c.14-1.27,1.18-2.32,2.46-2.46"/><path class="cls-1" d="M296.31,109.97h.5c1.27.14,2.28,1.18,2.41,2.46v.46c-.14,1.32-1.14,2.32-2.41,2.41-.09.05-.18.05-.27.05h-.23c-1.27-.14-2.32-1.14-2.46-2.46v-.46c.14-1.27,1.18-2.32,2.46-2.46"/><path class="cls-1" d="M296.31,54.99h.5c1.27.14,2.28,1.14,2.41,2.41v.5c-.14,1.27-1.14,2.32-2.41,2.41-.09.05-.18.05-.27.05h-.23c-1.27-.14-2.32-1.18-2.46-2.46v-.23c0-.09,0-.18.05-.27.09-1.27,1.14-2.27,2.41-2.41"/><path class="cls-1" d="M296.31.02h.5c1.27.14,2.28,1.14,2.41,2.41v.5c-.14,1.27-1.14,2.32-2.41,2.41-.09.04-.18.04-.27.04h-.23c-1.27-.14-2.32-1.18-2.46-2.46v-.23c0-.09,0-.18.05-.27.09-1.27,1.14-2.27,2.41-2.41"/><path class="cls-1" d="M186.59,329.91c1.48,0,2.68,1.2,2.68,2.69s-1.2,2.69-2.68,2.69-2.68-1.2-2.68-2.69,1.2-2.69,2.68-2.69"/><path class="cls-1" d="M186.59,274.93c1.48,0,2.68,1.2,2.68,2.69s-1.2,2.69-2.68,2.69-2.68-1.2-2.68-2.69,1.2-2.69,2.68-2.69"/><path class="cls-1" d="M186.59,219.94c1.48,0,2.68,1.2,2.68,2.69s-1.2,2.69-2.68,2.69-2.68-1.2-2.68-2.69,1.2-2.69,2.68-2.69"/><path class="cls-1" d="M186.59,164.96c1.48,0,2.68,1.2,2.68,2.69s-1.2,2.69-2.68,2.69-2.68-1.2-2.68-2.69,1.2-2.69,2.68-2.69"/><path class="cls-1" d="M186.59,109.97c1.48,0,2.68,1.2,2.68,2.69s-1.2,2.69-2.68,2.69-2.68-1.2-2.68-2.69,1.2-2.69,2.68-2.69"/><path class="cls-1" d="M186.59,54.99c1.48,0,2.68,1.2,2.68,2.69s-1.2,2.69-2.68,2.69-2.68-1.2-2.68-2.69,1.2-2.69,2.68-2.69"/><path class="cls-1" d="M186.59,0c1.48,0,2.68,1.2,2.68,2.69s-1.2,2.69-2.68,2.69-2.68-1.2-2.68-2.69S185.11,0,186.59,0"/><path class="cls-1" d="M76.62,329.91c1.48,0,2.68,1.2,2.68,2.69s-1.2,2.69-2.68,2.69-2.68-1.2-2.68-2.69,1.2-2.69,2.68-2.69"/><path class="cls-1" d="M76.62,274.93c1.48,0,2.68,1.2,2.68,2.69s-1.2,2.69-2.68,2.69-2.68-1.2-2.68-2.69,1.2-2.69,2.68-2.69"/><path class="cls-1" d="M76.62,219.94c1.48,0,2.68,1.2,2.68,2.69s-1.2,2.69-2.68,2.69-2.68-1.2-2.68-2.69,1.2-2.69,2.68-2.69"/><path class="cls-1" d="M76.62,164.96c1.48,0,2.68,1.2,2.68,2.69s-1.2,2.69-2.68,2.69-2.68-1.2-2.68-2.69,1.2-2.69,2.68-2.69"/><path class="cls-1" d="M76.62,109.97c1.48,0,2.68,1.2,2.68,2.69s-1.2,2.69-2.68,2.69-2.68-1.2-2.68-2.69,1.2-2.69,2.68-2.69"/><path class="cls-1" d="M76.62,54.99c1.48,0,2.68,1.2,2.68,2.69s-1.2,2.69-2.68,2.69-2.68-1.2-2.68-2.69,1.2-2.69,2.68-2.69"/><path class="cls-1" d="M76.62,0c1.48,0,2.68,1.2,2.68,2.69s-1.2,2.69-2.68,2.69-2.68-1.2-2.68-2.69S75.14,0,76.62,0"/><path class="cls-1" d="M21.64,384.9c1.48,0,2.69,1.2,2.69,2.69s-1.2,2.69-2.69,2.69-2.69-1.2-2.69-2.69,1.2-2.69,2.69-2.69"/><path class="cls-1" d="M76.62,384.9c1.48,0,2.68,1.2,2.68,2.69s-1.2,2.69-2.68,2.69-2.68-1.2-2.68-2.69,1.2-2.69,2.68-2.69"/><path class="cls-1" d="M131.61,384.9c1.48,0,2.68,1.2,2.68,2.69s-1.2,2.69-2.68,2.69-2.68-1.2-2.68-2.69,1.2-2.69,2.68-2.69"/><path class="cls-1" d="M186.59,384.9c1.48,0,2.68,1.2,2.68,2.69s-1.2,2.69-2.68,2.69-2.68-1.2-2.68-2.69,1.2-2.69,2.68-2.69"/><path class="cls-1" d="M241.58,384.9c1.48,0,2.68,1.2,2.68,2.69s-1.2,2.69-2.68,2.69-2.68-1.2-2.68-2.69,1.2-2.69,2.68-2.69"/><path class="cls-1" d="M296.31,384.92h.5c1.27.14,2.28,1.14,2.41,2.46v.46c-.14,1.36-1.27,2.46-2.69,2.46s-2.55-1.09-2.68-2.46v-.46c.14-1.32,1.18-2.32,2.46-2.46"/></g></g></svg>