<svg xmlns="http://www.w3.org/2000/svg" id="Layer_2" viewBox="0 0 683.82 210.28"><defs><style>.cls-1{fill:#103828;}.cls-2{opacity:.31;}</style></defs><g id="Layer_1-2"><g class="cls-2"><rect class="cls-1" x="3.87" width=".71" height="210.28"/><rect class="cls-1" x="4.23" y="205.7" width="679.59" height=".79"/><rect class="cls-1" x="4.23" y="119.24" width="679.59" height=".72"/><rect class="cls-1" x="4.23" y="32.77" width="679.59" height=".72"/><rect class="cls-1" x="609.27" y="4.65" width=".79" height="205.63"/><rect class="cls-1" x="522.8" y="4.65" width=".79" height="205.63"/><rect class="cls-1" x="436.34" width=".72" height="210.28"/><rect class="cls-1" x="349.8" width=".79" height="210.28"/><rect class="cls-1" x="263.41" width=".65" height="210.28"/><rect class="cls-1" x="176.87" width=".72" height="210.28"/><rect class="cls-1" x="90.33" width=".79" height="210.28"/><path class="cls-1" d="M94.96,119.61c0,2.33-1.89,4.22-4.22,4.22s-4.22-1.89-4.22-4.22,1.89-4.22,4.22-4.22,4.22,1.89,4.22,4.22"/><path class="cls-1" d="M181.45,119.61c0,2.33-1.89,4.22-4.22,4.22s-4.22-1.89-4.22-4.22,1.89-4.22,4.22-4.22,4.22,1.89,4.22,4.22"/><path class="cls-1" d="M267.94,119.61c0,2.33-1.89,4.22-4.22,4.22s-4.22-1.89-4.22-4.22,1.89-4.22,4.22-4.22,4.22,1.89,4.22,4.22"/><path class="cls-1" d="M354.42,119.61c0,2.33-1.89,4.22-4.22,4.22s-4.22-1.89-4.22-4.22,1.89-4.22,4.22-4.22,4.22,1.89,4.22,4.22"/><path class="cls-1" d="M440.91,119.61c0,2.33-1.89,4.22-4.22,4.22s-4.22-1.89-4.22-4.22,1.89-4.22,4.22-4.22,4.22,1.89,4.22,4.22"/><path class="cls-1" d="M527.4,119.61c0,2.33-1.89,4.22-4.22,4.22s-4.22-1.89-4.22-4.22,1.89-4.22,4.22-4.22,4.22,1.89,4.22,4.22"/><path class="cls-1" d="M613.88,119.61c0,2.33-1.89,4.22-4.22,4.22s-4.22-1.89-4.22-4.22,1.89-4.22,4.22-4.22,4.22,1.89,4.22,4.22"/><path class="cls-1" d="M94.98,205.7v.79c-.21,2-1.86,3.58-3.86,3.79h-.79c-2-.22-3.58-1.79-3.72-3.79-.07-.14-.07-.29-.07-.43v-.36c.21-2,1.79-3.65,3.79-3.79.14-.07.29-.07.43-.07h.36c2,.21,3.65,1.86,3.86,3.87"/><path class="cls-1" d="M181.45,205.7v.79c-.21,2-1.79,3.58-3.86,3.79h-.72c-2.07-.22-3.65-1.79-3.79-3.79-.07-.14-.07-.29-.07-.43v-.36c.21-2,1.79-3.65,3.86-3.87h.72c2.07.21,3.65,1.86,3.86,3.87"/><path class="cls-1" d="M267.92,205.7v.79c-.21,2-1.79,3.58-3.86,3.79h-.65c-2.01-.15-3.72-1.72-3.87-3.79-.07-.14-.07-.29-.07-.43v-.36c.21-2,1.86-3.72,3.94-3.87h.65c2.07.21,3.65,1.86,3.86,3.87"/><path class="cls-1" d="M354.45,205.7v.79c-.21,2-1.86,3.58-3.86,3.79h-.79c-2-.22-3.58-1.79-3.72-3.79-.07-.14-.07-.29-.07-.43v-.36c.21-2,1.79-3.65,3.79-3.79.14-.07.29-.07.43-.07h.36c2.01.21,3.65,1.86,3.86,3.87"/><path class="cls-1" d="M440.92,205.7v.79c-.21,2-1.86,3.58-3.86,3.79h-.72c-2.07-.22-3.65-1.79-3.79-3.79-.07-.14-.07-.29-.07-.43v-.36c.22-2,1.79-3.65,3.86-3.87h.72c2,.21,3.65,1.86,3.86,3.87"/><path class="cls-1" d="M527.39,205.7v.79c-.21,2-1.79,3.58-3.79,3.79h-.79c-2-.22-3.65-1.79-3.79-3.79-.07-.14-.07-.29-.07-.43v-.36c.21-2,1.86-3.65,3.87-3.87h.36c.14,0,.29,0,.43.07,2,.14,3.58,1.79,3.79,3.79"/><path class="cls-1" d="M613.85,205.7v.79c-.21,2-1.79,3.58-3.79,3.79h-.79c-2.01-.22-3.65-1.79-3.8-3.79-.07-.14-.07-.29-.07-.43v-.36c.22-2,1.86-3.65,3.87-3.87h.36c.14,0,.28,0,.43.07,2,.14,3.58,1.79,3.79,3.79"/><path class="cls-1" d="M94.96,33.12c0,2.33-1.89,4.22-4.22,4.22s-4.22-1.89-4.22-4.22,1.89-4.22,4.22-4.22,4.22,1.89,4.22,4.22"/><path class="cls-1" d="M181.45,33.12c0,2.33-1.89,4.22-4.22,4.22s-4.22-1.89-4.22-4.22,1.89-4.22,4.22-4.22,4.22,1.89,4.22,4.22"/><path class="cls-1" d="M267.94,33.12c0,2.33-1.89,4.22-4.22,4.22s-4.22-1.89-4.22-4.22,1.89-4.22,4.22-4.22,4.22,1.89,4.22,4.22"/><path class="cls-1" d="M354.42,33.12c0,2.33-1.89,4.22-4.22,4.22s-4.22-1.89-4.22-4.22,1.89-4.22,4.22-4.22,4.22,1.89,4.22,4.22"/><path class="cls-1" d="M440.91,33.12c0,2.33-1.89,4.22-4.22,4.22s-4.22-1.89-4.22-4.22,1.89-4.22,4.22-4.22,4.22,1.89,4.22,4.22"/><path class="cls-1" d="M527.4,33.12c0,2.33-1.89,4.22-4.22,4.22s-4.22-1.89-4.22-4.22,1.89-4.22,4.22-4.22,4.22,1.89,4.22,4.22"/><path class="cls-1" d="M613.88,33.12c0,2.33-1.89,4.22-4.22,4.22s-4.22-1.89-4.22-4.22,1.89-4.22,4.22-4.22,4.22,1.89,4.22,4.22"/><path class="cls-1" d="M8.48,33.12c0,2.33-1.89,4.22-4.22,4.22S.03,35.45.03,33.12s1.89-4.22,4.22-4.22,4.22,1.89,4.22,4.22"/><path class="cls-1" d="M8.48,119.61c0,2.33-1.89,4.22-4.22,4.22S.03,121.94.03,119.61s1.89-4.22,4.22-4.22,4.22,1.89,4.22,4.22"/><path class="cls-1" d="M8.45,205.7v.79c-.21,2-1.79,3.58-3.86,3.79h-.72c-2.15-.22-3.87-2.01-3.87-4.23s1.72-4.01,3.87-4.22h.72c2.07.21,3.65,1.86,3.86,3.87"/></g></g></svg>